<?xml version="1.0" standalone="yes"?>

<svg version="1.1" viewBox="0.0 0.0 879.9002624671916 169.7270341207349" fill="none" stroke="none" stroke-linecap="square" stroke-miterlimit="10" xmlns="http://www.w3.org/2000/svg" xmlns:xlink="http://www.w3.org/1999/xlink"><clipPath id="p.0"><path d="m0 0l879.90027 0l0 169.72704l-879.90027 0l0 -169.72704z" clip-rule="nonzero"></path></clipPath><g clip-path="url(#p.0)"><path fill="#000000" fill-opacity="0.0" d="m0 0l879.90027 0l0 169.72704l-879.90027 0z" fill-rule="nonzero"></path><path fill="#80c9cf" d="m32.40945 87.238846l0 0c0 -28.953636 30.938179 -52.425198 69.102356 -52.425198l0 0c38.164185 0 69.102356 23.471561 69.102356 52.425198l0 0c0 28.953636 -30.938171 52.4252 -69.102356 52.4252l0 0c-38.16418 0 -69.102356 -23.471565 -69.102356 -52.4252z" fill-rule="nonzero"></path><path stroke="#000000" stroke-width="1.0" stroke-linejoin="round" stroke-linecap="butt" d="m32.40945 87.238846l0 0c0 -28.953636 30.938179 -52.425198 69.102356 -52.425198l0 0c38.164185 0 69.102356 23.471561 69.102356 52.425198l0 0c0 28.953636 -30.938171 52.4252 -69.102356 52.4252l0 0c-38.16418 0 -69.102356 -23.471565 -69.102356 -52.4252z" fill-rule="nonzero"></path><path fill="#000000" d="m72.03969 83.158844l-1.6875 -4.3125l-5.4375 0l-1.671875 4.3125l-1.59375 0l5.359375 -13.625l1.328125 0l5.34375 13.625l-1.640625 0zm-2.1875 -5.734375l-1.5625 -4.203125q-0.3125 -0.796875 -0.640625 -1.953125q-0.203125 0.890625 -0.578125 1.953125l-1.59375 4.203125l4.375 0zm12.149658 4.375l-0.078125 0q-1.0625 1.546875 -3.1875 1.546875q-2.0 0 -3.109375 -1.359375q-1.109375 -1.375 -1.109375 -3.890625q0 -2.515625 1.109375 -3.90625q1.125 -1.390625 3.109375 -1.390625q2.0625 0 3.171875 1.515625l0.125 0l-0.078125 -0.734375l-0.03125 -0.71875l0 -4.140625l1.546875 0l0 14.4375l-1.25 0l-0.21875 -1.359375zm-3.078125 0.25q1.578125 0 2.28125 -0.859375q0.71875 -0.859375 0.71875 -2.765625l0 -0.328125q0 -2.15625 -0.71875 -3.078125q-0.71875 -0.921875 -2.296875 -0.921875q-1.359375 0 -2.078125 1.0625q-0.71875 1.046875 -0.71875 2.96875q0 1.9375 0.71875 2.9375q0.71875 0.984375 2.09375 0.984375z" fill-rule="nonzero"></path><path fill="#000000" d="m71.16469 101.54947q0 1.796875 -1.296875 2.796875q-1.296875 1.0 -3.53125 1.0q-2.40625 0 -3.703125 -0.625l0 -1.515625q0.828125 0.34375 1.8125 0.546875q0.984375 0.203125 1.953125 0.203125q1.578125 0 2.375 -0.59375q0.796875 -0.59375 0.796875 -1.65625q0 -0.71875 -0.28125 -1.15625q-0.28125 -0.453125 -0.953125 -0.828125q-0.65625 -0.390625 -2.015625 -0.875q-1.890625 -0.671875 -2.703125 -1.59375q-0.8125 -0.9375 -0.8125 -2.421875q0 -1.578125 1.171875 -2.5q1.1875 -0.9375 3.125 -0.9375q2.03125 0 3.71875 0.75l-0.484375 1.375q-1.6875 -0.703125 -3.265625 -0.703125q-1.25 0 -1.96875 0.546875q-0.703125 0.53125 -0.703125 1.484375q0 0.703125 0.265625 1.15625q0.265625 0.4375 0.875 0.828125q0.625 0.375 1.890625 0.828125q2.125 0.75 2.921875 1.625q0.8125 0.875 0.8125 2.265625zm6.6453247 3.796875q-2.25 0 -3.5625 -1.375q-1.296875 -1.375 -1.296875 -3.8125q0 -2.453125 1.203125 -3.90625q1.21875 -1.453125 3.265625 -1.453125q1.90625 0 3.015625 1.265625q1.125 1.25 1.125 3.3125l0 0.96875l-7.015625 0q0.046875 1.796875 0.90625 2.734375q0.859375 0.921875 2.421875 0.921875q1.640625 0 3.25 -0.6875l0 1.375q-0.8125 0.34375 -1.546875 0.5q-0.734375 0.15625 -1.765625 0.15625zm-0.40625 -9.25q-1.234375 0 -1.96875 0.796875q-0.71875 0.796875 -0.84375 2.203125l5.3125 0q0 -1.453125 -0.65625 -2.21875q-0.640625 -0.78125 -1.84375 -0.78125zm11.216812 -1.296875q0.6875 0 1.21875 0.109375l-0.203125 1.4375q-0.640625 -0.140625 -1.125 -0.140625q-1.234375 0 -2.109375 1.0q-0.875 1.0 -0.875 2.5l0 5.453125l-1.53125 0l0 -10.171875l1.265625 0l0.171875 1.890625l0.078125 0q0.5625 -1.0 1.359375 -1.53125q0.796875 -0.546875 1.75 -0.546875zm5.2092896 10.359375l-3.859375 -10.171875l1.65625 0l2.1875 6.03125q0.734375 2.125 0.875 2.75l0.0625 0q0.109375 -0.5 0.640625 -2.03125q0.546875 -1.546875 2.453125 -6.75l1.640625 0l-3.859375 10.171875l-1.796875 0zm11.408844 0.1875q-2.25 0 -3.5625 -1.375q-1.296875 -1.375 -1.296875 -3.8125q0 -2.453125 1.203125 -3.90625q1.21875 -1.453125 3.265625 -1.453125q1.90625 0 3.015625 1.265625q1.125 1.25 1.125 3.3125l0 0.96875l-7.015625 0q0.046875 1.796875 0.90625 2.734375q0.859375 0.921875 2.421875 0.921875q1.640625 0 3.25 -0.6875l0 1.375q-0.8125 0.34375 -1.546875 0.5q-0.734375 0.15625 -1.765625 0.15625zm-0.40625 -9.25q-1.234375 0 -1.96875 0.796875q-0.71875 0.796875 -0.84375 2.203125l5.3125 0q0 -1.453125 -0.65625 -2.21875q-0.640625 -0.78125 -1.84375 -0.78125zm11.216812 -1.296875q0.6875 0 1.21875 0.109375l-0.203125 1.4375q-0.640625 -0.140625 -1.125 -0.140625q-1.234375 0 -2.109375 1.0q-0.875 1.0 -0.875 2.5l0 5.453125l-1.53125 0l0 -10.171875l1.265625 0l0.171875 1.890625l0.078125 0q0.5625 -1.0 1.359375 -1.53125q0.796875 -0.546875 1.75 -0.546875z" fill-rule="nonzero"></path><path fill="#89b77f" d="m553.48816 43.632545l128.97638 0l0 87.21259l-128.97638 0z" fill-rule="nonzero"></path><path stroke="#000000" stroke-width="1.0" stroke-linejoin="round" stroke-linecap="butt" d="m553.48816 43.632545l128.97638 0l0 87.21259l-128.97638 0z" fill-rule="nonzero"></path><path fill="#000000" d="m570.16003 70.815094q-2.234375 0 -3.53125 1.484375q-1.296875 1.484375 -1.296875 4.078125q0 2.65625 1.25 4.109375q1.25 1.453125 3.5625 1.453125q1.421875 0 3.234375 -0.5l0 1.375q-1.40625 0.53125 -3.484375 0.53125q-2.984375 0 -4.625 -1.8125q-1.625 -1.828125 -1.625 -5.171875q0 -2.09375 0.78125 -3.671875q0.796875 -1.578125 2.265625 -2.4375q1.484375 -0.859375 3.484375 -0.859375q2.140625 0 3.734375 0.78125l-0.671875 1.359375q-1.53125 -0.71875 -3.078125 -0.71875zm7.26947 12.34375l-1.53125 0l0 -14.4375l1.53125 0l0 14.4375zm4.71875 0l-1.53125 0l0 -10.171875l1.53125 0l0 10.171875zm-1.671875 -12.921875q0 -0.53125 0.25 -0.765625q0.265625 -0.25 0.65625 -0.25q0.375 0 0.640625 0.25q0.28125 0.25 0.28125 0.765625q0 0.515625 -0.28125 0.78125q-0.265625 0.25 -0.640625 0.25q-0.390625 0 -0.65625 -0.25q-0.25 -0.265625 -0.25 -0.78125zm8.921814 13.109375q-2.21875 0 -3.4375 -1.359375q-1.203125 -1.359375 -1.203125 -3.84375q0 -2.5625 1.234375 -3.953125q1.234375 -1.390625 3.5 -1.390625q0.734375 0 1.46875 0.171875q0.734375 0.15625 1.15625 0.359375l-0.484375 1.3125q-0.5 -0.203125 -1.109375 -0.328125q-0.609375 -0.140625 -1.0625 -0.140625q-3.109375 0 -3.109375 3.953125q0 1.875 0.75 2.875q0.765625 1.0 2.25 1.0q1.28125 0 2.609375 -0.546875l0 1.359375q-1.015625 0.53125 -2.5625 0.53125zm6.3349 -5.390625q0.390625 -0.5625 1.21875 -1.484375l3.28125 -3.484375l1.828125 0l-4.125 4.34375l4.40625 5.828125l-1.859375 0l-3.59375 -4.8125l-1.15625 1.015625l0 3.796875l-1.515625 0l0 -14.4375l1.515625 0l0 7.65625q0 0.515625 -0.078125 1.578125l0.078125 0z" fill-rule="nonzero"></path><path fill="#000000" d="m572.9569 95.54947q0 2.0625 -1.40625 3.171875q-1.40625 1.109375 -4.03125 1.109375l-1.59375 0l0 5.328125l-1.578125 0l0 -13.5625l3.515625 0q5.09375 0 5.09375 3.953125zm-7.03125 2.921875l1.421875 0q2.09375 0 3.03125 -0.671875q0.9375 -0.6875 0.9375 -2.171875q0 -1.34375 -0.890625 -2.0q-0.875 -0.671875 -2.734375 -0.671875l-1.765625 0l0 5.515625zm14.060181 -3.671875q0.6875 0 1.21875 0.109375l-0.203125 1.4375q-0.640625 -0.140625 -1.125 -0.140625q-1.234375 0 -2.109375 1.0q-0.875 1.0 -0.875 2.5l0 5.453125l-1.53125 0l0 -10.171875l1.265625 0l0.171875 1.890625l0.078125 0q0.5625 -1.0 1.359375 -1.53125q0.796875 -0.546875 1.75 -0.546875zm11.756165 5.265625q0 2.484375 -1.25 3.890625q-1.25 1.390625 -3.453125 1.390625q-1.375 0 -2.4375 -0.640625q-1.046875 -0.640625 -1.625 -1.828125q-0.578125 -1.203125 -0.578125 -2.8125q0 -2.484375 1.234375 -3.875q1.25 -1.390625 3.46875 -1.390625q2.125 0 3.375 1.421875q1.265625 1.421875 1.265625 3.84375zm-7.75 0q0 1.953125 0.78125 2.96875q0.78125 1.015625 2.296875 1.015625q1.515625 0 2.296875 -1.015625q0.78125 -1.015625 0.78125 -2.96875q0 -1.9375 -0.78125 -2.9375q-0.78125 -1.015625 -2.3125 -1.015625q-1.515625 0 -2.296875 1.0q-0.765625 0.984375 -0.765625 2.953125zm14.315308 5.28125q-2.21875 0 -3.4375 -1.359375q-1.203125 -1.359375 -1.203125 -3.84375q0 -2.5625 1.234375 -3.953125q1.234375 -1.390625 3.5 -1.390625q0.734375 0 1.46875 0.171875q0.734375 0.15625 1.15625 0.359375l-0.484375 1.3125q-0.5 -0.203125 -1.109375 -0.328125q-0.609375 -0.140625 -1.0625 -0.140625q-3.109375 0 -3.109375 3.953125q0 1.875 0.75 2.875q0.765625 1.0 2.25 1.0q1.28125 0 2.609375 -0.546875l0 1.359375q-1.015625 0.53125 -2.5625 0.53125zm9.100525 0q-2.25 0 -3.5625 -1.375q-1.296875 -1.375 -1.296875 -3.8125q0 -2.453125 1.203125 -3.90625q1.21875 -1.453125 3.265625 -1.453125q1.90625 0 3.015625 1.265625q1.125 1.25 1.125 3.3125l0 0.96875l-7.015625 0q0.046875 1.796875 0.90625 2.734375q0.859375 0.921875 2.421875 0.921875q1.640625 0 3.25 -0.6875l0 1.375q-0.8125 0.34375 -1.546875 0.5q-0.734375 0.15625 -1.765625 0.15625zm-0.40625 -9.25q-1.234375 0 -1.96875 0.796875q-0.71875 0.796875 -0.84375 2.203125l5.3125 0q0 -1.453125 -0.65625 -2.21875q-0.640625 -0.78125 -1.84375 -0.78125zm13.138672 6.28125q0 1.421875 -1.0625 2.203125q-1.046875 0.765625 -2.953125 0.765625q-2.03125 0 -3.15625 -0.640625l0 -1.4375q0.734375 0.375 1.5625 0.59375q0.84375 0.21875 1.625 0.21875q1.203125 0 1.84375 -0.390625q0.65625 -0.390625 0.65625 -1.171875q0 -0.59375 -0.515625 -1.015625q-0.515625 -0.421875 -2.0 -1.0q-1.421875 -0.53125 -2.03125 -0.921875q-0.59375 -0.390625 -0.890625 -0.890625q-0.28125 -0.515625 -0.28125 -1.203125q0 -1.25 1.0 -1.96875q1.015625 -0.71875 2.78125 -0.71875q1.640625 0 3.21875 0.671875l-0.546875 1.25q-1.53125 -0.625 -2.78125 -0.625q-1.09375 0 -1.65625 0.34375q-0.546875 0.34375 -0.546875 0.9375q0 0.421875 0.203125 0.703125q0.203125 0.28125 0.671875 0.546875q0.46875 0.265625 1.78125 0.75q1.8125 0.65625 2.4375 1.328125q0.640625 0.671875 0.640625 1.671875zm8.899963 0q0 1.421875 -1.0625 2.203125q-1.046875 0.765625 -2.953125 0.765625q-2.03125 0 -3.15625 -0.640625l0 -1.4375q0.734375 0.375 1.5625 0.59375q0.84375 0.21875 1.625 0.21875q1.203125 0 1.84375 -0.390625q0.65625 -0.390625 0.65625 -1.171875q0 -0.59375 -0.515625 -1.015625q-0.515625 -0.421875 -2.0 -1.0q-1.421875 -0.53125 -2.03125 -0.921875q-0.59375 -0.390625 -0.890625 -0.890625q-0.28125 -0.515625 -0.28125 -1.203125q0 -1.25 1.0 -1.96875q1.015625 -0.71875 2.78125 -0.71875q1.640625 0 3.21875 0.671875l-0.546875 1.25q-1.53125 -0.625 -2.78125 -0.625q-1.09375 0 -1.65625 0.34375q-0.546875 0.34375 -0.546875 0.9375q0 0.421875 0.203125 0.703125q0.203125 0.28125 0.671875 0.546875q0.46875 0.265625 1.78125 0.75q1.8125 0.65625 2.4375 1.328125q0.640625 0.671875 0.640625 1.671875zm11.118713 -2.3125q0 2.484375 -1.25 3.890625q-1.25 1.390625 -3.453125 1.390625q-1.375 0 -2.4375 -0.640625q-1.046875 -0.640625 -1.625 -1.828125q-0.578125 -1.203125 -0.578125 -2.8125q0 -2.484375 1.234375 -3.875q1.25 -1.390625 3.46875 -1.390625q2.125 0 3.375 1.421875q1.265625 1.421875 1.265625 3.84375zm-7.75 0q0 1.953125 0.78125 2.96875q0.78125 1.015625 2.296875 1.015625q1.515625 0 2.296875 -1.015625q0.78125 -1.015625 0.78125 -2.96875q0 -1.9375 -0.78125 -2.9375q-0.78125 -1.015625 -2.3125 -1.015625q-1.515625 0 -2.296875 1.0q-0.765625 0.984375 -0.765625 2.953125zm14.877869 -5.265625q0.6875 0 1.21875 0.109375l-0.203125 1.4375q-0.640625 -0.140625 -1.125 -0.140625q-1.234375 0 -2.109375 1.0q-0.875 1.0 -0.875 2.5l0 5.453125l-1.53125 0l0 -10.171875l1.265625 0l0.171875 1.890625l0.078125 0q0.5625 -1.0 1.359375 -1.53125q0.796875 -0.546875 1.75 -0.546875z" fill-rule="nonzero"></path><path fill="#f0ba95" d="m746.2493 47.922573l0 0c0 7.238407 24.345825 13.106297 54.37799 13.106297c30.032104 0 54.37793 -5.8678894 54.37793 -13.106297l0 78.63779c0 7.2384186 -24.345825 13.106308 -54.37793 13.106308c-30.032166 0 -54.37799 -5.8678894 -54.37799 -13.106308z" fill-rule="nonzero"></path><path fill="#f6d5bf" d="m746.2493 47.922573l0 0c0 -7.238411 24.345825 -13.1063 54.37799 -13.1063c30.032104 0 54.37793 5.8678894 54.37793 13.1063l0 0c0 7.238407 -24.345825 13.106297 -54.37793 13.106297c-30.032166 0 -54.37799 -5.8678894 -54.37799 -13.106297z" fill-rule="nonzero"></path><path fill="#000000" fill-opacity="0.0" d="m855.00525 47.922573l0 0c0 7.238407 -24.345825 13.106297 -54.37793 13.106297c-30.032166 0 -54.37799 -5.8678894 -54.37799 -13.106297l0 0c0 -7.238411 24.345825 -13.1063 54.37799 -13.1063c30.032104 0 54.37793 5.8678894 54.37793 13.1063l0 78.63779c0 7.2384186 -24.345825 13.106308 -54.37793 13.106308c-30.032166 0 -54.37799 -5.8678894 -54.37799 -13.106308l0 -78.63779" fill-rule="nonzero"></path><path stroke="#000000" stroke-width="1.0" stroke-linejoin="round" stroke-linecap="butt" d="m855.00525 47.922573l0 0c0 7.238407 -24.345825 13.106297 -54.37793 13.106297c-30.032166 0 -54.37799 -5.8678894 -54.37799 -13.106297l0 0c0 -7.238411 24.345825 -13.1063 54.37799 -13.1063c30.032104 0 54.37793 5.8678894 54.37793 13.1063l0 78.63779c0 7.2384186 -24.345825 13.106308 -54.37793 13.106308c-30.032166 0 -54.37799 -5.8678894 -54.37799 -13.106308l0 -78.63779" fill-rule="nonzero"></path><path fill="#000000" d="m767.9368 93.808365q0 3.359375 -1.828125 5.140625q-1.8125 1.765625 -5.234375 1.765625l-3.765625 0l0 -13.5625l4.15625 0q3.171875 0 4.921875 1.75q1.75 1.75 1.75 4.90625zm-1.671875 0.046875q0 -2.65625 -1.328125 -4.0q-1.328125 -1.34375 -3.953125 -1.34375l-2.296875 0l0 10.84375l1.921875 0q2.828125 0 4.234375 -1.390625q1.421875 -1.390625 1.421875 -4.109375zm10.475464 6.859375l-0.3125 -1.453125l-0.078125 0q-0.75 0.96875 -1.515625 1.3125q-0.75 0.328125 -1.890625 0.328125q-1.5 0 -2.359375 -0.78125q-0.859375 -0.78125 -0.859375 -2.21875q0 -3.078125 4.921875 -3.234375l1.734375 -0.046875l0 -0.625q0 -1.203125 -0.515625 -1.765625q-0.515625 -0.578125 -1.65625 -0.578125q-1.265625 0 -2.875 0.78125l-0.46875 -1.1875q0.75 -0.40625 1.640625 -0.625q0.90625 -0.234375 1.796875 -0.234375q1.828125 0 2.703125 0.8125q0.875 0.796875 0.875 2.578125l0 6.9375l-1.140625 0zm-3.484375 -1.078125q1.4375 0 2.25 -0.78125q0.828125 -0.796875 0.828125 -2.21875l0 -0.921875l-1.53125 0.0625q-1.84375 0.0625 -2.65625 0.578125q-0.8125 0.5 -0.8125 1.5625q0 0.84375 0.5 1.28125q0.515625 0.4375 1.421875 0.4375zm10.891357 0q0.40625 0 0.78125 -0.0625q0.390625 -0.0625 0.609375 -0.125l0 1.171875q-0.25 0.125 -0.75 0.203125q-0.484375 0.078125 -0.875 0.078125q-2.9375 0 -2.9375 -3.109375l0 -6.046875l-1.46875 0l0 -0.75l1.46875 -0.640625l0.640625 -2.171875l0.890625 0l0 2.359375l2.953125 0l0 1.203125l-2.953125 0l0 5.984375q0 0.921875 0.4375 1.421875q0.4375 0.484375 1.203125 0.484375zm9.554932 1.078125l-0.3125 -1.453125l-0.078125 0q-0.75 0.96875 -1.515625 1.3125q-0.75 0.328125 -1.890625 0.328125q-1.5 0 -2.359375 -0.78125q-0.859375 -0.78125 -0.859375 -2.21875q0 -3.078125 4.921875 -3.234375l1.734375 -0.046875l0 -0.625q0 -1.203125 -0.515625 -1.765625q-0.515625 -0.578125 -1.65625 -0.578125q-1.265625 0 -2.875 0.78125l-0.46875 -1.1875q0.75 -0.40625 1.640625 -0.625q0.90625 -0.234375 1.796875 -0.234375q1.828125 0 2.703125 0.8125q0.875 0.796875 0.875 2.578125l0 6.9375l-1.140625 0zm-3.484375 -1.078125q1.4375 0 2.25 -0.78125q0.828125 -0.796875 0.828125 -2.21875l0 -0.921875l-1.53125 0.0625q-1.84375 0.0625 -2.65625 0.578125q-0.8125 0.5 -0.8125 1.5625q0 0.84375 0.5 1.28125q0.515625 0.4375 1.421875 0.4375zm12.328857 -9.25q2.015625 0 3.109375 1.375q1.109375 1.359375 1.109375 3.859375q0 2.5 -1.125 3.890625q-1.109375 1.390625 -3.09375 1.390625q-0.984375 0 -1.8125 -0.359375q-0.8125 -0.375 -1.375 -1.140625l-0.109375 0l-0.328125 1.3125l-1.09375 0l0 -14.4375l1.53125 0l0 3.515625q0 1.171875 -0.078125 2.109375l0.078125 0q1.078125 -1.515625 3.1875 -1.515625zm-0.21875 1.28125q-1.578125 0 -2.28125 0.90625q-0.6875 0.90625 -0.6875 3.046875q0 2.140625 0.71875 3.0625q0.71875 0.921875 2.28125 0.921875q1.421875 0 2.109375 -1.03125q0.703125 -1.03125 0.703125 -2.96875q0 -1.984375 -0.703125 -2.953125q-0.6875 -0.984375 -2.140625 -0.984375zm13.182373 9.046875l-0.3125 -1.453125l-0.078125 0q-0.75 0.96875 -1.515625 1.3125q-0.75 0.328125 -1.890625 0.328125q-1.5 0 -2.359375 -0.78125q-0.859375 -0.78125 -0.859375 -2.21875q0 -3.078125 4.921875 -3.234375l1.734375 -0.046875l0 -0.625q0 -1.203125 -0.515625 -1.765625q-0.515625 -0.578125 -1.65625 -0.578125q-1.265625 0 -2.875 0.78125l-0.46875 -1.1875q0.75 -0.40625 1.640625 -0.625q0.90625 -0.234375 1.796875 -0.234375q1.828125 0 2.703125 0.8125q0.875 0.796875 0.875 2.578125l0 6.9375l-1.140625 0zm-3.484375 -1.078125q1.4375 0 2.25 -0.78125q0.828125 -0.796875 0.828125 -2.21875l0 -0.921875l-1.53125 0.0625q-1.84375 0.0625 -2.65625 0.578125q-0.8125 0.5 -0.8125 1.5625q0 0.84375 0.5 1.28125q0.515625 0.4375 1.421875 0.4375zm14.156982 -1.703125q0 1.421875 -1.0625 2.203125q-1.046875 0.765625 -2.953125 0.765625q-2.03125 0 -3.15625 -0.640625l0 -1.4375q0.734375 0.375 1.5625 0.59375q0.84375 0.21875 1.625 0.21875q1.203125 0 1.84375 -0.390625q0.65625 -0.390625 0.65625 -1.171875q0 -0.59375 -0.515625 -1.015625q-0.515625 -0.421875 -2.0 -1.0q-1.421875 -0.53125 -2.03125 -0.921875q-0.59375 -0.390625 -0.890625 -0.890625q-0.28125 -0.515625 -0.28125 -1.203125q0 -1.25 1.0 -1.96875q1.015625 -0.71875 2.78125 -0.71875q1.640625 0 3.21875 0.671875l-0.546875 1.25q-1.53125 -0.625 -2.78125 -0.625q-1.09375 0 -1.65625 0.34375q-0.546875 0.34375 -0.546875 0.9375q0 0.421875 0.203125 0.703125q0.203125 0.28125 0.671875 0.546875q0.46875 0.265625 1.78125 0.75q1.8125 0.65625 2.4375 1.328125q0.640625 0.671875 0.640625 1.671875zm6.6343384 2.96875q-2.25 0 -3.5625 -1.375q-1.296875 -1.375 -1.296875 -3.8125q0 -2.453125 1.203125 -3.90625q1.21875 -1.453125 3.265625 -1.453125q1.90625 0 3.015625 1.265625q1.125 1.25 1.125 3.3125l0 0.96875l-7.015625 0q0.046875 1.796875 0.90625 2.734375q0.859375 0.921875 2.421875 0.921875q1.640625 0 3.25 -0.6875l0 1.375q-0.8125 0.34375 -1.546875 0.5q-0.734375 0.15625 -1.765625 0.15625zm-0.40625 -9.25q-1.234375 0 -1.96875 0.796875q-0.71875 0.796875 -0.84375 2.203125l5.3125 0q0 -1.453125 -0.65625 -2.21875q-0.640625 -0.78125 -1.84375 -0.78125z" fill-rule="nonzero"></path><path fill="#000000" fill-opacity="0.0" d="m170.61417 87.238846l72.157486 0" fill-rule="nonzero"></path><path stroke="#000000" stroke-width="2.0" stroke-linejoin="round" stroke-linecap="butt" d="m170.61417 87.238846l60.157486 0" fill-rule="evenodd"></path><path fill="#000000" stroke="#000000" stroke-width="2.0" stroke-linecap="butt" d="m230.77165 90.54231l9.076202 -3.3034668l-9.076202 -3.3034668z" fill-rule="evenodd"></path><path fill="#000000" fill-opacity="0.0" d="m682.46454 87.238846l63.77954 0" fill-rule="nonzero"></path><path stroke="#000000" stroke-width="2.0" stroke-linejoin="round" stroke-linecap="butt" d="m682.46454 87.238846l51.77954 0" fill-rule="evenodd"></path><path fill="#000000" stroke="#000000" stroke-width="2.0" stroke-linecap="butt" d="m734.2441 90.54231l9.076233 -3.3034668l-9.076233 -3.3034668z" fill-rule="evenodd"></path><path fill="#6a2569" d="m212.2126 117.62895l61.10182 -60.77953l244.40738 0l-61.101868 60.77953z" fill-rule="nonzero"></path><path stroke="#000000" stroke-width="1.0" stroke-linejoin="round" stroke-linecap="butt" d="m212.2126 117.62895l61.10182 -60.77953l244.40738 0l-61.101868 60.77953z" fill-rule="nonzero"></path><path fill="#ffffff" d="m289.9863 70.81544q-2.234375 0 -3.53125 1.484375q-1.296875 1.484375 -1.296875 4.078125q0 2.65625 1.25 4.109375q1.25 1.453125 3.5625 1.453125q1.421875 0 3.234375 -0.5l0 1.375q-1.40625 0.53125 -3.484375 0.53125q-2.984375 0 -4.625 -1.8125q-1.625 -1.828125 -1.625 -5.171875q0 -2.09375 0.78125 -3.671875q0.796875 -1.578125 2.265625 -2.4375q1.484375 -0.859375 3.484375 -0.859375q2.140625 0 3.734375 0.78125l-0.671875 1.359375q-1.53125 -0.71875 -3.078125 -0.71875zm7.26947 12.34375l-1.53125 0l0 -14.4375l1.53125 0l0 14.4375zm4.7187195 0l-1.53125 0l0 -10.171875l1.53125 0l0 10.171875zm-1.671875 -12.921875q0 -0.53125 0.25 -0.765625q0.265625 -0.25 0.65625 -0.25q0.375 0 0.640625 0.25q0.28125 0.25 0.28125 0.765625q0 0.515625 -0.28125 0.78125q-0.265625 0.25 -0.640625 0.25q-0.390625 0 -0.65625 -0.25q-0.25 -0.265625 -0.25 -0.78125zm8.9218445 13.109375q-2.21875 0 -3.4375 -1.359375q-1.203125 -1.359375 -1.203125 -3.84375q0 -2.5625 1.234375 -3.953125q1.234375 -1.390625 3.5 -1.390625q0.734375 0 1.46875 0.171875q0.734375 0.15625 1.15625 0.359375l-0.484375 1.3125q-0.5 -0.203125 -1.109375 -0.328125q-0.609375 -0.140625 -1.0625 -0.140625q-3.109375 0 -3.109375 3.953125q0 1.875 0.75 2.875q0.765625 1.0 2.25 1.0q1.28125 0 2.609375 -0.546875l0 1.359375q-1.015625 0.53125 -2.5625 0.53125zm6.3349 -5.390625q0.390625 -0.5625 1.21875 -1.484375l3.28125 -3.484375l1.828125 0l-4.125 4.34375l4.40625 5.828125l-1.859375 0l-3.59375 -4.8125l-1.15625 1.015625l0 3.796875l-1.515625 0l0 -14.4375l1.515625 0l0 7.65625q0 0.515625 -0.078125 1.578125l0.078125 0zm19.357697 5.203125l-4.609375 -12.03125l-0.078125 0q0.140625 1.4375 0.140625 3.40625l0 8.625l-1.46875 0l0 -13.5625l2.375 0l4.296875 11.1875l0.078125 0l4.328125 -11.1875l2.359375 0l0 13.5625l-1.578125 0l0 -8.734375q0 -1.515625 0.125 -3.265625l-0.0625 0l-4.640625 12.0l-1.265625 0zm14.89035 0.1875q-2.25 0 -3.5625 -1.375q-1.296875 -1.375 -1.296875 -3.8125q0 -2.453125 1.203125 -3.90625q1.21875 -1.453125 3.265625 -1.453125q1.90625 0 3.015625 1.265625q1.125 1.25 1.125 3.3125l0 0.96875l-7.015625 0q0.046875 1.796875 0.90625 2.734375q0.859375 0.921875 2.421875 0.921875q1.640625 0 3.25 -0.6875l0 1.375q-0.8125 0.34375 -1.546875 0.5q-0.734375 0.15625 -1.765625 0.15625zm-0.40625 -9.25q-1.234375 0 -1.96875 0.796875q-0.71875 0.796875 -0.84375 2.203125l5.3125 0q0 -1.453125 -0.65625 -2.21875q-0.640625 -0.78125 -1.84375 -0.78125zm13.138672 6.28125q0 1.421875 -1.0625 2.203125q-1.046875 0.765625 -2.953125 0.765625q-2.03125 0 -3.15625 -0.640625l0 -1.4375q0.734375 0.375 1.5625 0.59375q0.84375 0.21875 1.625 0.21875q1.203125 0 1.84375 -0.390625q0.65625 -0.390625 0.65625 -1.171875q0 -0.59375 -0.515625 -1.015625q-0.515625 -0.421875 -2.0 -1.0q-1.421875 -0.53125 -2.03125 -0.921875q-0.59375 -0.390625 -0.890625 -0.890625q-0.28125 -0.515625 -0.28125 -1.203125q0 -1.25 1.0 -1.96875q1.015625 -0.71875 2.78125 -0.71875q1.640625 0 3.21875 0.671875l-0.546875 1.25q-1.53125 -0.625 -2.78125 -0.625q-1.09375 0 -1.65625 0.34375q-0.546875 0.34375 -0.546875 0.9375q0 0.421875 0.203125 0.703125q0.203125 0.28125 0.671875 0.546875q0.46875 0.265625 1.78125 0.75q1.8125 0.65625 2.4375 1.328125q0.640625 0.671875 0.640625 1.671875zm8.899994 0q0 1.421875 -1.0625 2.203125q-1.046875 0.765625 -2.953125 0.765625q-2.03125 0 -3.15625 -0.640625l0 -1.4375q0.734375 0.375 1.5625 0.59375q0.84375 0.21875 1.625 0.21875q1.203125 0 1.84375 -0.390625q0.65625 -0.390625 0.65625 -1.171875q0 -0.59375 -0.515625 -1.015625q-0.515625 -0.421875 -2.0 -1.0q-1.421875 -0.53125 -2.03125 -0.921875q-0.59375 -0.390625 -0.890625 -0.890625q-0.28125 -0.515625 -0.28125 -1.203125q0 -1.25 1.0 -1.96875q1.015625 -0.71875 2.78125 -0.71875q1.640625 0 3.21875 0.671875l-0.546875 1.25q-1.53125 -0.625 -2.78125 -0.625q-1.09375 0 -1.65625 0.34375q-0.546875 0.34375 -0.546875 0.9375q0 0.421875 0.203125 0.703125q0.203125 0.28125 0.671875 0.546875q0.46875 0.265625 1.78125 0.75q1.8125 0.65625 2.4375 1.328125q0.640625 0.671875 0.640625 1.671875zm8.603088 2.78125l-0.3125 -1.453125l-0.078125 0q-0.75 0.96875 -1.515625 1.3125q-0.75 0.328125 -1.890625 0.328125q-1.5 0 -2.359375 -0.78125q-0.859375 -0.78125 -0.859375 -2.21875q0 -3.078125 4.921875 -3.234375l1.734375 -0.046875l0 -0.625q0 -1.203125 -0.515625 -1.765625q-0.515625 -0.578125 -1.65625 -0.578125q-1.265625 0 -2.875 0.78125l-0.46875 -1.1875q0.75 -0.40625 1.640625 -0.625q0.90625 -0.234375 1.796875 -0.234375q1.828125 0 2.703125 0.8125q0.875 0.796875 0.875 2.578125l0 6.9375l-1.140625 0zm-3.484375 -1.078125q1.4375 0 2.25 -0.78125q0.828125 -0.796875 0.828125 -2.21875l0 -0.921875l-1.53125 0.0625q-1.84375 0.0625 -2.65625 0.578125q-0.8125 0.5 -0.8125 1.5625q0 0.84375 0.5 1.28125q0.515625 0.4375 1.421875 0.4375zm15.922607 -9.09375l0 0.984375l-1.875 0.21875q0.25 0.328125 0.453125 0.859375q0.203125 0.515625 0.203125 1.171875q0 1.484375 -1.015625 2.375q-1.015625 0.890625 -2.796875 0.890625q-0.453125 0 -0.859375 -0.0625q-0.984375 0.515625 -0.984375 1.296875q0 0.421875 0.34375 0.625q0.34375 0.203125 1.1875 0.203125l1.796875 0q1.640625 0 2.53125 0.703125q0.890625 0.6875 0.890625 2.015625q0 1.6875 -1.359375 2.5625q-1.359375 0.890625 -3.953125 0.890625q-1.984375 0 -3.078125 -0.75q-1.078125 -0.734375 -1.078125 -2.09375q0 -0.921875 0.59375 -1.609375q0.59375 -0.671875 1.671875 -0.90625q-0.390625 -0.171875 -0.65625 -0.546875q-0.265625 -0.375 -0.265625 -0.859375q0 -0.5625 0.296875 -0.96875q0.296875 -0.421875 0.9375 -0.8125q-0.78125 -0.328125 -1.28125 -1.109375q-0.5 -0.78125 -0.5 -1.78125q0 -1.671875 1.0 -2.578125q1.0 -0.90625 2.84375 -0.90625q0.796875 0 1.4375 0.1875l3.515625 0zm-8.109375 11.875q0 0.828125 0.6875 1.25q0.703125 0.4375 2.0 0.4375q1.9375 0 2.875 -0.578125q0.9375 -0.578125 0.9375 -1.578125q0 -0.828125 -0.515625 -1.15625q-0.515625 -0.3125 -1.921875 -0.3125l-1.84375 0q-1.046875 0 -1.640625 0.5q-0.578125 0.5 -0.578125 1.4375zm0.84375 -8.609375q0 1.0625 0.59375 1.609375q0.609375 0.546875 1.6875 0.546875q2.25 0 2.25 -2.1875q0 -2.296875 -2.28125 -2.296875q-1.09375 0 -1.671875 0.59375q-0.578125 0.578125 -0.578125 1.734375zm13.455231 7.09375q-2.25 0 -3.5625 -1.375q-1.296875 -1.375 -1.296875 -3.8125q0 -2.453125 1.203125 -3.90625q1.21875 -1.453125 3.265625 -1.453125q1.90625 0 3.015625 1.265625q1.125 1.25 1.125 3.3125l0 0.96875l-7.015625 0q0.046875 1.796875 0.90625 2.734375q0.859375 0.921875 2.421875 0.921875q1.640625 0 3.25 -0.6875l0 1.375q-0.8125 0.34375 -1.546875 0.5q-0.734375 0.15625 -1.765625 0.15625zm-0.40625 -9.25q-1.234375 0 -1.96875 0.796875q-0.71875 0.796875 -0.84375 2.203125l5.3125 0q0 -1.453125 -0.65625 -2.21875q-0.640625 -0.78125 -1.84375 -0.78125z" fill-rule="nonzero"></path><path fill="#ffffff" d="m289.9863 92.81544q-2.234375 0 -3.53125 1.484375q-1.296875 1.484375 -1.296875 4.078125q0 2.65625 1.25 4.109375q1.25 1.453125 3.5625 1.453125q1.421875 0 3.234375 -0.5l0 1.375q-1.40625 0.53125 -3.484375 0.53125q-2.984375 0 -4.625 -1.8125q-1.625 -1.828125 -1.625 -5.171875q0 -2.09375 0.78125 -3.671875q0.796875 -1.578125 2.265625 -2.4375q1.484375 -0.859375 3.484375 -0.859375q2.140625 0 3.734375 0.78125l-0.671875 1.359375q-1.53125 -0.71875 -3.078125 -0.71875zm12.691345 12.34375l0 -6.578125q0 -1.25 -0.578125 -1.859375q-0.5625 -0.609375 -1.765625 -0.609375q-1.609375 0 -2.34375 0.875q-0.734375 0.875 -0.734375 2.859375l0 5.3125l-1.53125 0l0 -14.4375l1.53125 0l0 4.375q0 0.78125 -0.078125 1.296875l0.09375 0q0.453125 -0.71875 1.296875 -1.140625q0.84375 -0.421875 1.921875 -0.421875q1.859375 0 2.78125 0.890625q0.9375 0.875 0.9375 2.796875l0 6.640625l-1.53125 0zm10.747528 0l-0.3125 -1.453125l-0.078125 0q-0.75 0.96875 -1.515625 1.3125q-0.75 0.328125 -1.890625 0.328125q-1.5 0 -2.359375 -0.78125q-0.859375 -0.78125 -0.859375 -2.21875q0 -3.078125 4.921875 -3.234375l1.734375 -0.046875l0 -0.625q0 -1.203125 -0.515625 -1.765625q-0.515625 -0.578125 -1.65625 -0.578125q-1.265625 0 -2.875 0.78125l-0.46875 -1.1875q0.75 -0.40625 1.640625 -0.625q0.90625 -0.234375 1.796875 -0.234375q1.828125 0 2.703125 0.8125q0.875 0.796875 0.875 2.578125l0 6.9375l-1.140625 0zm-3.484375 -1.078125q1.4375 0 2.25 -0.78125q0.828125 -0.796875 0.828125 -2.21875l0 -0.921875l-1.53125 0.0625q-1.84375 0.0625 -2.65625 0.578125q-0.8125 0.5 -0.8125 1.5625q0 0.84375 0.5 1.28125q0.515625 0.4375 1.421875 0.4375zm14.563202 1.078125l0 -6.578125q0 -1.25 -0.578125 -1.859375q-0.5625 -0.609375 -1.765625 -0.609375q-1.59375 0 -2.34375 0.875q-0.734375 0.859375 -0.734375 2.84375l0 5.328125l-1.53125 0l0 -10.171875l1.25 0l0.25 1.390625l0.0625 0q0.484375 -0.75 1.328125 -1.15625q0.859375 -0.421875 1.90625 -0.421875q1.84375 0 2.765625 0.890625q0.921875 0.890625 0.921875 2.828125l0 6.640625l-1.53125 0zm11.450653 0l0 -6.578125q0 -1.25 -0.578125 -1.859375q-0.5625 -0.609375 -1.765625 -0.609375q-1.59375 0 -2.34375 0.875q-0.734375 0.859375 -0.734375 2.84375l0 5.328125l-1.53125 0l0 -10.171875l1.25 0l0.25 1.390625l0.0625 0q0.484375 -0.75 1.328125 -1.15625q0.859375 -0.421875 1.90625 -0.421875q1.84375 0 2.765625 0.890625q0.921875 0.890625 0.921875 2.828125l0 6.640625l-1.53125 0zm8.778748 0.1875q-2.25 0 -3.5625 -1.375q-1.296875 -1.375 -1.296875 -3.8125q0 -2.453125 1.203125 -3.90625q1.21875 -1.453125 3.265625 -1.453125q1.90625 0 3.015625 1.265625q1.125 1.25 1.125 3.3125l0 0.96875l-7.015625 0q0.046875 1.796875 0.90625 2.734375q0.859375 0.921875 2.421875 0.921875q1.640625 0 3.25 -0.6875l0 1.375q-0.8125 0.34375 -1.546875 0.5q-0.734375 0.15625 -1.765625 0.15625zm-0.40625 -9.25q-1.234375 0 -1.96875 0.796875q-0.71875 0.796875 -0.84375 2.203125l5.3125 0q0 -1.453125 -0.65625 -2.21875q-0.640625 -0.78125 -1.84375 -0.78125zm8.123077 9.0625l-1.53125 0l0 -14.4375l1.53125 0l0 14.4375z" fill-rule="nonzero"></path><path fill="#000000" fill-opacity="0.0" d="m487.17087 87.23919l66.33072 0" fill-rule="nonzero"></path><path stroke="#000000" stroke-width="2.0" stroke-linejoin="round" stroke-linecap="butt" d="m487.17084 87.23918l54.33075 0" fill-rule="evenodd"></path><path fill="#000000" stroke="#000000" stroke-width="2.0" stroke-linecap="butt" d="m541.5016 90.54265l9.076172 -3.3034668l-9.076172 -3.3034592z" fill-rule="evenodd"></path><path fill="#fff450" d="m175.77945 36.265976l13.079361 -5.5943356l4.9962616 -9.051334l16.167343 -2.5367737E-4l13.079941 -5.5938053l13.079956 5.5938053l16.167343 2.5367737E-4l4.9962616 9.051334l13.079346 5.5943356l-4.995697 9.051609l4.995697 9.051609l-13.079346 5.5943375l-4.9962616 9.051331l-16.167343 2.593994E-4l-13.079956 5.5938034l-13.079941 -5.5938034l-16.167343 -2.593994E-4l-4.9962616 -9.051331l-13.079361 -5.5943375l4.9957123 -9.051609z" fill-rule="nonzero"></path><path stroke="#000000" stroke-width="1.0" stroke-linejoin="round" stroke-linecap="butt" d="m175.77945 36.265976l13.079361 -5.5943356l4.9962616 -9.051334l16.167343 -2.5367737E-4l13.079941 -5.5938053l13.079956 5.5938053l16.167343 2.5367737E-4l4.9962616 9.051334l13.079346 5.5943356l-4.995697 9.051609l4.995697 9.051609l-13.079346 5.5943375l-4.9962616 9.051331l-16.167343 2.593994E-4l-13.079956 5.5938034l-13.079941 -5.5938034l-16.167343 -2.593994E-4l-4.9962616 -9.051331l-13.079361 -5.5943375l4.9957123 -9.051609z" fill-rule="nonzero"></path><path fill="#000000" d="m205.53069 39.893833q-2.234375 0 -3.53125 1.484375q-1.296875 1.484375 -1.296875 4.078125q0 2.65625 1.25 4.109375q1.25 1.453125 3.5625 1.453125q1.421875 0 3.234375 -0.5l0 1.375q-1.40625 0.53125 -3.484375 0.53125q-2.984375 0 -4.625 -1.8125q-1.625 -1.828125 -1.625 -5.171875q0 -2.09375 0.78125 -3.671875q0.796875 -1.578125 2.265625 -2.4375q1.484375 -0.859375 3.484375 -0.859375q2.140625 0 3.734375 0.78125l-0.671875 1.359375q-1.53125 -0.71875 -3.078125 -0.71875zm7.26947 12.34375l-1.53125 0l0 -14.4375l1.53125 0l0 14.4375zm4.7187195 0l-1.53125 0l0 -10.171875l1.53125 0l0 10.171875zm-1.671875 -12.921875q0 -0.53125 0.25 -0.765625q0.265625 -0.25 0.65625 -0.25q0.375 0 0.640625 0.25q0.28125 0.25 0.28125 0.765625q0 0.515625 -0.28125 0.78125q-0.265625 0.25 -0.640625 0.25q-0.390625 0 -0.65625 -0.25q-0.25 -0.265625 -0.25 -0.78125zm8.9218445 13.109375q-2.21875 0 -3.4375 -1.359375q-1.203125 -1.359375 -1.203125 -3.84375q0 -2.5625 1.234375 -3.953125q1.234375 -1.390625 3.5 -1.390625q0.734375 0 1.46875 0.171875q0.734375 0.15625 1.15625 0.359375l-0.484375 1.3125q-0.5 -0.203125 -1.109375 -0.328125q-0.609375 -0.140625 -1.0625 -0.140625q-3.109375 0 -3.109375 3.953125q0 1.875 0.75 2.875q0.765625 1.0 2.25 1.0q1.28125 0 2.609375 -0.546875l0 1.359375q-1.015625 0.53125 -2.5625 0.53125zm6.3348846 -5.390625q0.390625 -0.5625 1.21875 -1.484375l3.28125 -3.484375l1.828125 0l-4.125 4.34375l4.40625 5.828125l-1.859375 0l-3.59375 -4.8125l-1.15625 1.015625l0 3.796875l-1.515625 0l0 -14.4375l1.515625 0l0 7.65625q0 0.515625 -0.078125 1.578125l0.078125 0zm9.667709 1.46875l-0.984375 0l-0.46875 -9.828125l1.921875 0l-0.46875 9.828125zm-1.625 2.75q0 -1.265625 1.125 -1.265625q0.53125 0 0.8125 0.328125q0.296875 0.328125 0.296875 0.9375q0 0.59375 -0.296875 0.921875q-0.296875 0.328125 -0.8125 0.328125q-0.484375 0 -0.8125 -0.28125q-0.3125 -0.296875 -0.3125 -0.96875z" fill-rule="nonzero"></path></g></svg>

