<?xml version="1.0" standalone="yes"?>

<svg version="1.1" viewBox="0.0 0.0 657.3989501312336 166.9448818897638" fill="none" stroke="none" stroke-linecap="square" stroke-miterlimit="10" xmlns="http://www.w3.org/2000/svg" xmlns:xlink="http://www.w3.org/1999/xlink"><clipPath id="p.0"><path d="m0 0l657.3989 0l0 166.94489l-657.3989 0l0 -166.94489z" clip-rule="nonzero"></path></clipPath><g clip-path="url(#p.0)"><path fill="#000000" fill-opacity="0.0" d="m0 0l657.3989 0l0 166.94489l-657.3989 0z" fill-rule="nonzero"></path><path fill="#80c9cf" d="m5.5118113 87.238846l0 0c0 -28.953636 32.940563 -52.425198 73.57481 -52.425198l0 0c40.63424 0 73.57481 23.471561 73.57481 52.425198l0 0c0 28.953636 -32.940567 52.4252 -73.57481 52.4252l0 0c-40.634243 0 -73.57481 -23.471565 -73.57481 -52.4252z" fill-rule="nonzero"></path><path stroke="#000000" stroke-width="1.0" stroke-linejoin="round" stroke-linecap="butt" d="m5.5118113 87.238846l0 0c0 -28.953636 32.940563 -52.425198 73.57481 -52.425198l0 0c40.63424 0 73.57481 23.471561 73.57481 52.425198l0 0c0 28.953636 -32.940567 52.4252 -73.57481 52.4252l0 0c-40.634243 0 -73.57481 -23.471565 -73.57481 -52.4252z" fill-rule="nonzero"></path><path fill="#000000" d="m43.733246 70.815094q-2.234375 0 -3.53125 1.484375q-1.296875 1.484375 -1.296875 4.078125q0 2.65625 1.25 4.109375q1.25 1.453125 3.5625 1.453125q1.421875 0 3.234375 -0.5l0 1.375q-1.40625 0.53125 -3.484375 0.53125q-2.984375 0 -4.625 -1.8125q-1.625 -1.828125 -1.625 -5.171875q0 -2.09375 0.78125 -3.671875q0.796875 -1.578125 2.265625 -2.4375q1.484375 -0.859375 3.484375 -0.859375q2.140625 0 3.734375 0.78125l-0.671875 1.359375q-1.53125 -0.71875 -3.078125 -0.71875zm7.26947 12.34375l-1.53125 0l0 -14.4375l1.53125 0l0 14.4375zm4.7187195 0l-1.53125 0l0 -10.171875l1.53125 0l0 10.171875zm-1.671875 -12.921875q0 -0.53125 0.25 -0.765625q0.265625 -0.25 0.65625 -0.25q0.375 0 0.640625 0.25q0.28125 0.25 0.28125 0.765625q0 0.515625 -0.28125 0.78125q-0.265625 0.25 -0.640625 0.25q-0.390625 0 -0.65625 -0.25q-0.25 -0.265625 -0.25 -0.78125zm9.1405945 13.109375q-2.25 0 -3.5625 -1.375q-1.296875 -1.375 -1.296875 -3.8125q0 -2.453125 1.203125 -3.90625q1.21875 -1.453125 3.265625 -1.453125q1.90625 0 3.015625 1.265625q1.125 1.25 1.125 3.3125l0 0.96875l-7.015625 0q0.046875 1.796875 0.90625 2.734375q0.859375 0.921875 2.421875 0.921875q1.640625 0 3.25 -0.6875l0 1.375q-0.8125 0.34375 -1.546875 0.5q-0.734375 0.15625 -1.765625 0.15625zm-0.40625 -9.25q-1.234375 0 -1.96875 0.796875q-0.71875 0.796875 -0.84375 2.203125l5.3125 0q0 -1.453125 -0.65625 -2.21875q-0.640625 -0.78125 -1.84375 -0.78125zm13.544937 9.0625l0 -6.578125q0 -1.25 -0.578125 -1.859375q-0.5625 -0.609375 -1.765625 -0.609375q-1.59375 0 -2.34375 0.875q-0.734375 0.859375 -0.734375 2.84375l0 5.328125l-1.53125 0l0 -10.171875l1.25 0l0.25 1.390625l0.0625 0q0.484375 -0.75 1.328125 -1.15625q0.859375 -0.421875 1.90625 -0.421875q1.84375 0 2.765625 0.890625q0.921875 0.890625 0.921875 2.828125l0 6.640625l-1.53125 0zm7.778763 -1.078125q0.40625 0 0.78125 -0.0625q0.390625 -0.0625 0.609375 -0.125l0 1.171875q-0.25 0.125 -0.75 0.203125q-0.484375 0.078125 -0.875 0.078125q-2.9375 0 -2.9375 -3.109375l0 -6.046875l-1.46875 0l0 -0.75l1.46875 -0.640625l0.640625 -2.171875l0.890625 0l0 2.359375l2.953125 0l0 1.203125l-2.953125 0l0 5.984375q0 0.921875 0.4375 1.421875q0.4375 0.484375 1.203125 0.484375z" fill-rule="nonzero"></path><path fill="#000000" d="m36.826996 99.95572q0 -2.453125 0.71875 -4.59375q0.71875 -2.15625 2.0625 -3.765625l1.515625 0q-1.34375 1.796875 -2.015625 3.9375q-0.671875 2.140625 -0.671875 4.40625q0 2.21875 0.6875 4.34375q0.6875 2.125 1.96875 3.875l-1.484375 0q-1.359375 -1.578125 -2.078125 -3.671875q-0.703125 -2.109375 -0.703125 -4.53125zm11.114105 -5.125q2.015625 0 3.109375 1.375q1.109375 1.359375 1.109375 3.859375q0 2.5 -1.125 3.890625q-1.109375 1.390625 -3.09375 1.390625q-0.984375 0 -1.8125 -0.359375q-0.8125 -0.375 -1.375 -1.140625l-0.109375 0l-0.328125 1.3125l-1.09375 0l0 -14.4375l1.53125 0l0 3.515625q0 1.171875 -0.078125 2.109375l0.078125 0q1.078125 -1.515625 3.1875 -1.515625zm-0.21875 1.28125q-1.578125 0 -2.28125 0.90625q-0.6875 0.90625 -0.6875 3.046875q0 2.140625 0.71875 3.0625q0.71875 0.921875 2.28125 0.921875q1.421875 0 2.109375 -1.03125q0.703125 -1.03125 0.703125 -2.96875q0 -1.984375 -0.703125 -2.953125q-0.6875 -0.984375 -2.140625 -0.984375zm11.557419 -1.3125q0.6875 0 1.21875 0.109375l-0.203125 1.4375q-0.640625 -0.140625 -1.125 -0.140625q-1.234375 0 -2.109375 1.0q-0.875 1.0 -0.875 2.5l0 5.453125l-1.53125 0l0 -10.171875l1.265625 0l0.171875 1.890625l0.078125 0q0.5625 -1.0 1.359375 -1.53125q0.796875 -0.546875 1.75 -0.546875zm11.756165 5.265625q0 2.484375 -1.25 3.890625q-1.25 1.390625 -3.453125 1.390625q-1.375 0 -2.4375 -0.640625q-1.046875 -0.640625 -1.625 -1.828125q-0.578125 -1.203125 -0.578125 -2.8125q0 -2.484375 1.234375 -3.875q1.25 -1.390625 3.46875 -1.390625q2.125 0 3.375 1.421875q1.265625 1.421875 1.265625 3.84375zm-7.75 0q0 1.953125 0.78125 2.96875q0.78125 1.015625 2.296875 1.015625q1.515625 0 2.296875 -1.015625q0.78125 -1.015625 0.78125 -2.96875q0 -1.9375 -0.78125 -2.9375q-0.78125 -1.015625 -2.3125 -1.015625q-1.515625 0 -2.296875 1.0q-0.765625 0.984375 -0.765625 2.953125zm18.549698 5.09375l-1.859375 -5.96875q-0.1875 -0.546875 -0.671875 -2.484375l-0.0625 0q-0.375 1.625 -0.65625 2.5l-1.921875 5.953125l-1.78125 0l-2.765625 -10.171875l1.609375 0q0.984375 3.828125 1.5 5.84375q0.515625 2.0 0.59375 2.6875l0.0625 0q0.109375 -0.515625 0.328125 -1.359375q0.234375 -0.84375 0.40625 -1.328125l1.859375 -5.84375l1.671875 0l1.8125 5.84375q0.515625 1.59375 0.703125 2.671875l0.078125 0q0.03125 -0.328125 0.1875 -1.015625q0.171875 -0.703125 1.953125 -7.5l1.59375 0l-2.8125 10.171875l-1.828125 0zm12.761429 -2.78125q0 1.421875 -1.0625 2.203125q-1.046875 0.765625 -2.953125 0.765625q-2.03125 0 -3.15625 -0.640625l0 -1.4375q0.734375 0.375 1.5625 0.59375q0.84375 0.21875 1.625 0.21875q1.203125 0 1.84375 -0.390625q0.65625 -0.390625 0.65625 -1.171875q0 -0.59375 -0.515625 -1.015625q-0.515625 -0.421875 -2.0 -1.0q-1.421875 -0.53125 -2.03125 -0.921875q-0.59375 -0.390625 -0.890625 -0.890625q-0.28125 -0.515625 -0.28125 -1.203125q0 -1.25 1.0 -1.96875q1.015625 -0.71875 2.78125 -0.71875q1.640625 0 3.21875 0.671875l-0.546875 1.25q-1.53125 -0.625 -2.78125 -0.625q-1.09375 0 -1.65625 0.34375q-0.546875 0.34375 -0.546875 0.9375q0 0.421875 0.203125 0.703125q0.203125 0.28125 0.671875 0.546875q0.46875 0.265625 1.78125 0.75q1.8125 0.65625 2.4375 1.328125q0.640625 0.671875 0.640625 1.671875zm6.6343536 2.96875q-2.25 0 -3.5625 -1.375q-1.296875 -1.375 -1.296875 -3.8125q0 -2.453125 1.203125 -3.90625q1.21875 -1.453125 3.265625 -1.453125q1.90625 0 3.015625 1.265625q1.125 1.25 1.125 3.3125l0 0.96875l-7.015625 0q0.046875 1.796875 0.90625 2.734375q0.859375 0.921875 2.421875 0.921875q1.640625 0 3.25 -0.6875l0 1.375q-0.8125 0.34375 -1.546875 0.5q-0.734375 0.15625 -1.765625 0.15625zm-0.40625 -9.25q-1.234375 0 -1.96875 0.796875q-0.71875 0.796875 -0.84375 2.203125l5.3125 0q0 -1.453125 -0.65625 -2.21875q-0.640625 -0.78125 -1.84375 -0.78125zm11.216812 -1.296875q0.6875 0 1.21875 0.109375l-0.203125 1.4375q-0.640625 -0.140625 -1.125 -0.140625q-1.234375 0 -2.109375 1.0q-0.875 1.0 -0.875 2.5l0 5.453125l-1.53125 0l0 -10.171875l1.265625 0l0.171875 1.890625l0.078125 0q0.5625 -1.0 1.359375 -1.53125q0.796875 -0.546875 1.75 -0.546875zm6.2092896 5.15625q0 2.4375 -0.71875 4.546875q-0.71875 2.109375 -2.078125 3.65625l-1.484375 0q1.296875 -1.734375 1.984375 -3.859375q0.6875 -2.140625 0.6875 -4.359375q0 -2.265625 -0.671875 -4.40625q-0.671875 -2.140625 -2.015625 -3.9375l1.5 0q1.375 1.625 2.078125 3.78125q0.71875 2.140625 0.71875 4.578125z" fill-rule="nonzero"></path><path fill="#89b77f" d="m256.01837 43.632545l128.97638 0l0 87.21259l-128.97638 0z" fill-rule="nonzero"></path><path stroke="#000000" stroke-width="1.0" stroke-linejoin="round" stroke-linecap="butt" d="m256.01837 43.632545l128.97638 0l0 87.21259l-128.97638 0z" fill-rule="nonzero"></path><path fill="#000000" d="m275.48712 73.54947q0 2.0625 -1.40625 3.171875q-1.40625 1.109375 -4.03125 1.109375l-1.59375 0l0 5.328125l-1.578125 0l0 -13.5625l3.515625 0q5.09375 0 5.09375 3.953125zm-7.03125 2.921875l1.421875 0q2.09375 0 3.03125 -0.671875q0.9375 -0.6875 0.9375 -2.171875q0 -1.34375 -0.890625 -2.0q-0.875 -0.671875 -2.734375 -0.671875l-1.765625 0l0 5.515625zm13.7164 6.875q-2.25 0 -3.5625 -1.375q-1.296875 -1.375 -1.296875 -3.8125q0 -2.453125 1.203125 -3.90625q1.21875 -1.453125 3.265625 -1.453125q1.90625 0 3.015625 1.265625q1.125 1.25 1.125 3.3125l0 0.96875l-7.015625 0q0.046875 1.796875 0.90625 2.734375q0.859375 0.921875 2.421875 0.921875q1.640625 0 3.25 -0.6875l0 1.375q-0.8125 0.34375 -1.546875 0.5q-0.734375 0.15625 -1.765625 0.15625zm-0.40625 -9.25q-1.234375 0 -1.96875 0.796875q-0.71875 0.796875 -0.84375 2.203125l5.3125 0q0 -1.453125 -0.65625 -2.21875q-0.640625 -0.78125 -1.84375 -0.78125zm9.873047 7.984375q0.40625 0 0.78125 -0.0625q0.390625 -0.0625 0.609375 -0.125l0 1.171875q-0.25 0.125 -0.75 0.203125q-0.484375 0.078125 -0.875 0.078125q-2.9375 0 -2.9375 -3.109375l0 -6.046875l-1.46875 0l0 -0.75l1.46875 -0.640625l0.640625 -2.171875l0.890625 0l0 2.359375l2.953125 0l0 1.203125l-2.953125 0l0 5.984375q0 0.921875 0.4375 1.421875q0.4375 0.484375 1.203125 0.484375zm16.026184 -2.53125q0 1.796875 -1.296875 2.796875q-1.296875 1.0 -3.53125 1.0q-2.40625 0 -3.703125 -0.625l0 -1.515625q0.828125 0.34375 1.8125 0.546875q0.984375 0.203125 1.953125 0.203125q1.578125 0 2.375 -0.59375q0.796875 -0.59375 0.796875 -1.65625q0 -0.71875 -0.28125 -1.15625q-0.28125 -0.453125 -0.953125 -0.828125q-0.65625 -0.390625 -2.015625 -0.875q-1.890625 -0.671875 -2.703125 -1.59375q-0.8125 -0.9375 -0.8125 -2.421875q0 -1.578125 1.171875 -2.5q1.1875 -0.9375 3.125 -0.9375q2.03125 0 3.71875 0.75l-0.484375 1.375q-1.6875 -0.703125 -3.265625 -0.703125q-1.25 0 -1.96875 0.546875q-0.703125 0.53125 -0.703125 1.484375q0 0.703125 0.265625 1.15625q0.265625 0.4375 0.875 0.828125q0.625 0.375 1.890625 0.828125q2.125 0.75 2.921875 1.625q0.8125 0.875 0.8125 2.265625zm5.6453247 2.53125q0.40625 0 0.78125 -0.0625q0.390625 -0.0625 0.609375 -0.125l0 1.171875q-0.25 0.125 -0.75 0.203125q-0.484375 0.078125 -0.875 0.078125q-2.9375 0 -2.9375 -3.109375l0 -6.046875l-1.46875 0l0 -0.75l1.46875 -0.640625l0.640625 -2.171875l0.890625 0l0 2.359375l2.953125 0l0 1.203125l-2.953125 0l0 5.984375q0 0.921875 0.4375 1.421875q0.4375 0.484375 1.203125 0.484375zm12.070526 -4.015625q0 2.484375 -1.25 3.890625q-1.25 1.390625 -3.453125 1.390625q-1.375 0 -2.4375 -0.640625q-1.046875 -0.640625 -1.625 -1.828125q-0.578125 -1.203125 -0.578125 -2.8125q0 -2.484375 1.234375 -3.875q1.25 -1.390625 3.46875 -1.390625q2.125 0 3.375 1.421875q1.265625 1.421875 1.265625 3.84375zm-7.75 0q0 1.953125 0.78125 2.96875q0.78125 1.015625 2.296875 1.015625q1.515625 0 2.296875 -1.015625q0.78125 -1.015625 0.78125 -2.96875q0 -1.9375 -0.78125 -2.9375q-0.78125 -1.015625 -2.3125 -1.015625q-1.515625 0 -2.296875 1.0q-0.765625 0.984375 -0.765625 2.953125zm14.877838 -5.265625q0.6875 0 1.21875 0.109375l-0.203125 1.4375q-0.640625 -0.140625 -1.125 -0.140625q-1.234375 0 -2.109375 1.0q-0.875 1.0 -0.875 2.5l0 5.453125l-1.53125 0l0 -10.171875l1.265625 0l0.171875 1.890625l0.078125 0q0.5625 -1.0 1.359375 -1.53125q0.796875 -0.546875 1.75 -0.546875zm7.2717896 10.546875q-2.25 0 -3.5625 -1.375q-1.296875 -1.375 -1.296875 -3.8125q0 -2.453125 1.203125 -3.90625q1.21875 -1.453125 3.265625 -1.453125q1.90625 0 3.015625 1.265625q1.125 1.25 1.125 3.3125l0 0.96875l-7.015625 0q0.046875 1.796875 0.90625 2.734375q0.859375 0.921875 2.421875 0.921875q1.640625 0 3.25 -0.6875l0 1.375q-0.8125 0.34375 -1.546875 0.5q-0.734375 0.15625 -1.765625 0.15625zm-0.40625 -9.25q-1.234375 0 -1.96875 0.796875q-0.71875 0.796875 -0.84375 2.203125l5.3125 0q0 -1.453125 -0.65625 -2.21875q-0.640625 -0.78125 -1.84375 -0.78125z" fill-rule="nonzero"></path><path fill="#000000" d="m274.534 101.54947q0 1.796875 -1.296875 2.796875q-1.296875 1.0 -3.53125 1.0q-2.40625 0 -3.703125 -0.625l0 -1.515625q0.828125 0.34375 1.8125 0.546875q0.984375 0.203125 1.953125 0.203125q1.578125 0 2.375 -0.59375q0.796875 -0.59375 0.796875 -1.65625q0 -0.71875 -0.28125 -1.15625q-0.28125 -0.453125 -0.953125 -0.828125q-0.65625 -0.390625 -2.015625 -0.875q-1.890625 -0.671875 -2.703125 -1.59375q-0.8125 -0.9375 -0.8125 -2.421875q0 -1.578125 1.171875 -2.5q1.1875 -0.9375 3.125 -0.9375q2.03125 0 3.71875 0.75l-0.484375 1.375q-1.6875 -0.703125 -3.265625 -0.703125q-1.25 0 -1.96875 0.546875q-0.703125 0.53125 -0.703125 1.484375q0 0.703125 0.265625 1.15625q0.265625 0.4375 0.875 0.828125q0.625 0.375 1.890625 0.828125q2.125 0.75 2.921875 1.625q0.8125 0.875 0.8125 2.265625zm6.6453247 3.796875q-2.25 0 -3.5625 -1.375q-1.296875 -1.375 -1.296875 -3.8125q0 -2.453125 1.203125 -3.90625q1.21875 -1.453125 3.265625 -1.453125q1.90625 0 3.015625 1.265625q1.125 1.25 1.125 3.3125l0 0.96875l-7.015625 0q0.046875 1.796875 0.90625 2.734375q0.859375 0.921875 2.421875 0.921875q1.640625 0 3.25 -0.6875l0 1.375q-0.8125 0.34375 -1.546875 0.5q-0.734375 0.15625 -1.765625 0.15625zm-0.40625 -9.25q-1.234375 0 -1.96875 0.796875q-0.71875 0.796875 -0.84375 2.203125l5.3125 0q0 -1.453125 -0.65625 -2.21875q-0.640625 -0.78125 -1.84375 -0.78125zm11.216827 -1.296875q0.6875 0 1.21875 0.109375l-0.203125 1.4375q-0.640625 -0.140625 -1.125 -0.140625q-1.234375 0 -2.109375 1.0q-0.875 1.0 -0.875 2.5l0 5.453125l-1.53125 0l0 -10.171875l1.265625 0l0.171875 1.890625l0.078125 0q0.5625 -1.0 1.359375 -1.53125q0.796875 -0.546875 1.75 -0.546875zm5.2092896 10.359375l-3.859375 -10.171875l1.65625 0l2.1875 6.03125q0.734375 2.125 0.875 2.75l0.0625 0q0.109375 -0.5 0.640625 -2.03125q0.546875 -1.546875 2.453125 -6.75l1.640625 0l-3.859375 10.171875l-1.796875 0zm11.408844 0.1875q-2.25 0 -3.5625 -1.375q-1.296875 -1.375 -1.296875 -3.8125q0 -2.453125 1.203125 -3.90625q1.21875 -1.453125 3.265625 -1.453125q1.90625 0 3.015625 1.265625q1.125 1.25 1.125 3.3125l0 0.96875l-7.015625 0q0.046875 1.796875 0.90625 2.734375q0.859375 0.921875 2.421875 0.921875q1.640625 0 3.25 -0.6875l0 1.375q-0.8125 0.34375 -1.546875 0.5q-0.734375 0.15625 -1.765625 0.15625zm-0.40625 -9.25q-1.234375 0 -1.96875 0.796875q-0.71875 0.796875 -0.84375 2.203125l5.3125 0q0 -1.453125 -0.65625 -2.21875q-0.640625 -0.78125 -1.84375 -0.78125zm11.216797 -1.296875q0.6875 0 1.21875 0.109375l-0.203125 1.4375q-0.640625 -0.140625 -1.125 -0.140625q-1.234375 0 -2.109375 1.0q-0.875 1.0 -0.875 2.5l0 5.453125l-1.53125 0l0 -10.171875l1.265625 0l0.171875 1.890625l0.078125 0q0.5625 -1.0 1.359375 -1.53125q0.796875 -0.546875 1.75 -0.546875z" fill-rule="nonzero"></path><path fill="#f0ba95" d="m514.8845 47.91995l0 0c0 7.238407 24.712463 13.106297 55.19684 13.106297c30.484375 0 55.19684 -5.8678894 55.19684 -13.106297l0 78.63779c0 7.2384186 -24.712463 13.106308 -55.19684 13.106308c-30.484375 0 -55.19684 -5.8678894 -55.19684 -13.106308z" fill-rule="nonzero"></path><path fill="#f6d5bf" d="m514.8845 47.91995l0 0c0 -7.238411 24.712463 -13.1063 55.19684 -13.1063c30.484375 0 55.19684 5.8678894 55.19684 13.1063l0 0c0 7.238407 -24.712463 13.106297 -55.19684 13.106297c-30.484375 0 -55.19684 -5.8678894 -55.19684 -13.106297z" fill-rule="nonzero"></path><path fill="#000000" fill-opacity="0.0" d="m625.2782 47.91995l0 0c0 7.238407 -24.712463 13.106297 -55.19684 13.106297c-30.484375 0 -55.19684 -5.8678894 -55.19684 -13.106297l0 0c0 -7.238411 24.712463 -13.1063 55.19684 -13.1063c30.484375 0 55.19684 5.8678894 55.19684 13.1063l0 78.63779c0 7.2384186 -24.712463 13.106308 -55.19684 13.106308c-30.484375 0 -55.19684 -5.8678894 -55.19684 -13.106308l0 -78.63779" fill-rule="nonzero"></path><path stroke="#000000" stroke-width="1.0" stroke-linejoin="round" stroke-linecap="butt" d="m625.2782 47.91995l0 0c0 7.238407 -24.712463 13.106297 -55.19684 13.106297c-30.484375 0 -55.19684 -5.8678894 -55.19684 -13.106297l0 0c0 -7.238411 24.712463 -13.1063 55.19684 -13.1063c30.484375 0 55.19684 5.8678894 55.19684 13.1063l0 78.63779c0 7.2384186 -24.712463 13.106308 -55.19684 13.106308c-30.484375 0 -55.19684 -5.8678894 -55.19684 -13.106308l0 -78.63779" fill-rule="nonzero"></path><path fill="#000000" d="m536.572 93.80574q0 3.359375 -1.828125 5.140625q-1.8125 1.765625 -5.234375 1.765625l-3.765625 0l0 -13.5625l4.15625 0q3.171875 0 4.921875 1.75q1.75 1.75 1.75 4.90625zm-1.671875 0.046875q0 -2.65625 -1.328125 -4.0q-1.328125 -1.34375 -3.953125 -1.34375l-2.296875 0l0 10.84375l1.921875 0q2.828125 0 4.234375 -1.390625q1.421875 -1.390625 1.421875 -4.109375zm10.475464 6.859375l-0.3125 -1.453125l-0.078125 0q-0.75 0.96875 -1.515625 1.3125q-0.75 0.328125 -1.890625 0.328125q-1.5 0 -2.359375 -0.78125q-0.859375 -0.78125 -0.859375 -2.21875q0 -3.078125 4.921875 -3.234375l1.734375 -0.046875l0 -0.625q0 -1.203125 -0.515625 -1.765625q-0.515625 -0.578125 -1.65625 -0.578125q-1.265625 0 -2.875 0.78125l-0.46875 -1.1875q0.75 -0.40625 1.640625 -0.625q0.90625 -0.234375 1.796875 -0.234375q1.828125 0 2.703125 0.8125q0.875 0.796875 0.875 2.578125l0 6.9375l-1.140625 0zm-3.484375 -1.078125q1.4375 0 2.25 -0.78125q0.828125 -0.796875 0.828125 -2.21875l0 -0.921875l-1.53125 0.0625q-1.84375 0.0625 -2.65625 0.578125q-0.8125 0.5 -0.8125 1.5625q0 0.84375 0.5 1.28125q0.515625 0.4375 1.421875 0.4375zm10.891357 0q0.40625 0 0.78125 -0.0625q0.390625 -0.0625 0.609375 -0.125l0 1.171875q-0.25 0.125 -0.75 0.203125q-0.484375 0.078125 -0.875 0.078125q-2.9375 0 -2.9375 -3.109375l0 -6.046875l-1.46875 0l0 -0.75l1.46875 -0.640625l0.640625 -2.171875l0.890625 0l0 2.359375l2.953125 0l0 1.203125l-2.953125 0l0 5.984375q0 0.921875 0.4375 1.421875q0.4375 0.484375 1.203125 0.484375zm9.554932 1.078125l-0.3125 -1.453125l-0.078125 0q-0.75 0.96875 -1.515625 1.3125q-0.75 0.328125 -1.890625 0.328125q-1.5 0 -2.359375 -0.78125q-0.859375 -0.78125 -0.859375 -2.21875q0 -3.078125 4.921875 -3.234375l1.734375 -0.046875l0 -0.625q0 -1.203125 -0.515625 -1.765625q-0.515625 -0.578125 -1.65625 -0.578125q-1.265625 0 -2.875 0.78125l-0.46875 -1.1875q0.75 -0.40625 1.640625 -0.625q0.90625 -0.234375 1.796875 -0.234375q1.828125 0 2.703125 0.8125q0.875 0.796875 0.875 2.578125l0 6.9375l-1.140625 0zm-3.484375 -1.078125q1.4375 0 2.25 -0.78125q0.828125 -0.796875 0.828125 -2.21875l0 -0.921875l-1.53125 0.0625q-1.84375 0.0625 -2.65625 0.578125q-0.8125 0.5 -0.8125 1.5625q0 0.84375 0.5 1.28125q0.515625 0.4375 1.421875 0.4375zm12.328796 -9.25q2.015625 0 3.109375 1.375q1.109375 1.359375 1.109375 3.859375q0 2.5 -1.125 3.890625q-1.109375 1.390625 -3.09375 1.390625q-0.984375 0 -1.8125 -0.359375q-0.8125 -0.375 -1.375 -1.140625l-0.109375 0l-0.328125 1.3125l-1.09375 0l0 -14.4375l1.53125 0l0 3.515625q0 1.171875 -0.078125 2.109375l0.078125 0q1.078125 -1.515625 3.1875 -1.515625zm-0.21875 1.28125q-1.578125 0 -2.28125 0.90625q-0.6875 0.90625 -0.6875 3.046875q0 2.140625 0.71875 3.0625q0.71875 0.921875 2.28125 0.921875q1.421875 0 2.109375 -1.03125q0.703125 -1.03125 0.703125 -2.96875q0 -1.984375 -0.703125 -2.953125q-0.6875 -0.984375 -2.140625 -0.984375zm13.182434 9.046875l-0.3125 -1.453125l-0.078125 0q-0.75 0.96875 -1.515625 1.3125q-0.75 0.328125 -1.890625 0.328125q-1.5 0 -2.359375 -0.78125q-0.859375 -0.78125 -0.859375 -2.21875q0 -3.078125 4.921875 -3.234375l1.734375 -0.046875l0 -0.625q0 -1.203125 -0.515625 -1.765625q-0.515625 -0.578125 -1.65625 -0.578125q-1.265625 0 -2.875 0.78125l-0.46875 -1.1875q0.75 -0.40625 1.640625 -0.625q0.90625 -0.234375 1.796875 -0.234375q1.828125 0 2.703125 0.8125q0.875 0.796875 0.875 2.578125l0 6.9375l-1.140625 0zm-3.484375 -1.078125q1.4375 0 2.25 -0.78125q0.828125 -0.796875 0.828125 -2.21875l0 -0.921875l-1.53125 0.0625q-1.84375 0.0625 -2.65625 0.578125q-0.8125 0.5 -0.8125 1.5625q0 0.84375 0.5 1.28125q0.515625 0.4375 1.421875 0.4375zm14.156982 -1.703125q0 1.421875 -1.0625 2.203125q-1.046875 0.765625 -2.953125 0.765625q-2.03125 0 -3.15625 -0.640625l0 -1.4375q0.734375 0.375 1.5625 0.59375q0.84375 0.21875 1.625 0.21875q1.203125 0 1.84375 -0.390625q0.65625 -0.390625 0.65625 -1.171875q0 -0.59375 -0.515625 -1.015625q-0.515625 -0.421875 -2.0 -1.0q-1.421875 -0.53125 -2.03125 -0.921875q-0.59375 -0.390625 -0.890625 -0.890625q-0.28125 -0.515625 -0.28125 -1.203125q0 -1.25 1.0 -1.96875q1.015625 -0.71875 2.78125 -0.71875q1.640625 0 3.21875 0.671875l-0.546875 1.25q-1.53125 -0.625 -2.78125 -0.625q-1.09375 0 -1.65625 0.34375q-0.546875 0.34375 -0.546875 0.9375q0 0.421875 0.203125 0.703125q0.203125 0.28125 0.671875 0.546875q0.46875 0.265625 1.78125 0.75q1.8125 0.65625 2.4375 1.328125q0.640625 0.671875 0.640625 1.671875zm6.6343384 2.96875q-2.25 0 -3.5625 -1.375q-1.296875 -1.375 -1.296875 -3.8125q0 -2.453125 1.203125 -3.90625q1.21875 -1.453125 3.265625 -1.453125q1.90625 0 3.015625 1.265625q1.125 1.25 1.125 3.3125l0 0.96875l-7.015625 0q0.046875 1.796875 0.90625 2.734375q0.859375 0.921875 2.421875 0.921875q1.640625 0 3.25 -0.6875l0 1.375q-0.8125 0.34375 -1.546875 0.5q-0.734375 0.15625 -1.765625 0.15625zm-0.40625 -9.25q-1.234375 0 -1.96875 0.796875q-0.71875 0.796875 -0.84375 2.203125l5.3125 0q0 -1.453125 -0.65625 -2.21875q-0.640625 -0.78125 -1.84375 -0.78125z" fill-rule="nonzero"></path><path fill="#000000" fill-opacity="0.0" d="m152.66142 87.238846l103.37007 0" fill-rule="nonzero"></path><path stroke="#000000" stroke-width="2.0" stroke-linejoin="round" stroke-linecap="butt" d="m152.66142 87.238846l91.37007 0" fill-rule="evenodd"></path><path fill="#000000" stroke="#000000" stroke-width="2.0" stroke-linecap="butt" d="m244.0315 90.54231l9.076202 -3.3034668l-9.076202 -3.3034668z" fill-rule="evenodd"></path><path fill="#000000" fill-opacity="0.0" d="m384.99475 87.238846l129.88977 0" fill-rule="nonzero"></path><path stroke="#000000" stroke-width="2.0" stroke-linejoin="round" stroke-linecap="butt" d="m384.99475 87.238846l117.88977 0" fill-rule="evenodd"></path><path fill="#000000" stroke="#000000" stroke-width="2.0" stroke-linecap="butt" d="m502.88452 90.54231l9.076202 -3.3034668l-9.076202 -3.3034668z" fill-rule="evenodd"></path></g></svg>

