<?xml version="1.0" encoding="UTF-8" standalone="no"?><svg xmlns="http://www.w3.org/2000/svg" xmlns:xlink="http://www.w3.org/1999/xlink" contentScriptType="application/ecmascript" contentStyleType="text/css" height="365px" preserveAspectRatio="none" style="width:606px;height:365px;" version="1.1" viewBox="0 0 606 365" width="606px" zoomAndPan="magnify"><defs/><g><rect fill="#F7F8FE" height="33.9688" style="stroke:#070D4A;stroke-width:1.5;" width="48" x="168.5" y="7"/><text fill="#000000" font-family="sans-serif" font-size="12" lengthAdjust="spacing" textLength="34" x="175.5" y="20.1387">Client</text><line style="stroke:#070D4A;stroke-width:1.5;" x1="169.5" x2="215.5" y1="24.9688" y2="24.9688"/><rect fill="#F7F8FE" height="37.6094" style="stroke:#070D4A;stroke-width:1.5;" width="59" x="163" y="144"/><text fill="#000000" font-family="sans-serif" font-size="12" lengthAdjust="spacing" textLength="26" x="179.5" y="157.1387">Blue</text><line style="stroke:#070D4A;stroke-width:1.5;" x1="164" x2="221" y1="161.9688" y2="161.9688"/><text fill="#000000" font-family="sans-serif" font-size="10" lengthAdjust="spacing" textLength="47" x="169" y="175.251">clock = 2</text><rect fill="#F7F8FE" height="37.6094" style="stroke:#070D4A;stroke-width:1.5;" width="59" x="7" y="295"/><text fill="#000000" font-family="sans-serif" font-size="12" lengthAdjust="spacing" textLength="25" x="24" y="308.1387">Pink</text><line style="stroke:#070D4A;stroke-width:1.5;" x1="8" x2="65" y1="312.9688" y2="312.9688"/><text fill="#000000" font-family="sans-serif" font-size="10" lengthAdjust="spacing" textLength="47" x="13" y="326.251">clock = 2</text><rect fill="#F7F8FE" height="37.6094" style="stroke:#070D4A;stroke-width:1.5;" width="59" x="321" y="295"/><text fill="#000000" font-family="sans-serif" font-size="12" lengthAdjust="spacing" textLength="44" x="328.5" y="308.1387">Orange</text><line style="stroke:#070D4A;stroke-width:1.5;" x1="322" x2="379" y1="312.9688" y2="312.9688"/><text fill="#000000" font-family="sans-serif" font-size="10" lengthAdjust="spacing" textLength="47" x="327" y="326.251">clock = 2</text><path d="M257.5,118 L257.5,159 L222.24,163 L257.5,167 L257.5,207.6641 A0,0 0 0 0 257.5,207.6641 L441.5,207.6641 A0,0 0 0 0 441.5,207.6641 L441.5,128 L431.5,118 L257.5,118 A0,0 0 0 0 257.5,118 " fill="#F7F8FE" style="stroke:#070D4A;stroke-width:1.0;"/><path d="M431.5,118 L431.5,128 L441.5,128 L431.5,118 " fill="#F7F8FE" style="stroke:#070D4A;stroke-width:1.0;"/><text fill="#000000" font-family="sans-serif" font-size="13" lengthAdjust="spacing" textLength="102" x="275.5" y="135.0669">key: "name@1"</text><text fill="#000000" font-family="sans-serif" font-size="13" lengthAdjust="spacing" textLength="88" x="275.5" y="150.1997">value: "Alice"</text><text fill="#000000" font-family="sans-serif" font-size="13" lengthAdjust="spacing" textLength="91" x="275.5" y="180.4653">key: "title@2"</text><text fill="#000000" font-family="sans-serif" font-size="13" lengthAdjust="spacing" textLength="145" x="275.5" y="195.5981">value: "Microservices"</text><line style="stroke:#070D4A;stroke-width:1.0;" x1="258.5" x2="339.5" y1="160.832" y2="160.832"/><text fill="#000000" font-family="sans-serif" font-size="13" lengthAdjust="spacing" text-decoration="line-through" textLength="5" x="339.5" y="164.8325">-</text><text fill="#000000" font-family="sans-serif" font-size="13" lengthAdjust="spacing" text-decoration="line-through" textLength="5" x="344.5" y="164.8325">-</text><text fill="#000000" font-family="sans-serif" font-size="13" lengthAdjust="spacing" textLength="10" x="349.5" y="164.8325">--</text><line style="stroke:#070D4A;stroke-width:1.0;" x1="359.5" x2="440.5" y1="160.832" y2="160.832"/><path d="M101.5,269 L101.5,310 L66.24,314 L101.5,318 L101.5,358.6641 A0,0 0 0 0 101.5,358.6641 L285.5,358.6641 A0,0 0 0 0 285.5,358.6641 L285.5,279 L275.5,269 L101.5,269 A0,0 0 0 0 101.5,269 " fill="#F7F8FE" style="stroke:#070D4A;stroke-width:1.0;"/><path d="M275.5,269 L275.5,279 L285.5,279 L275.5,269 " fill="#F7F8FE" style="stroke:#070D4A;stroke-width:1.0;"/><text fill="#000000" font-family="sans-serif" font-size="13" lengthAdjust="spacing" textLength="102" x="119.5" y="286.0669">key: "name@1"</text><text fill="#000000" font-family="sans-serif" font-size="13" lengthAdjust="spacing" textLength="88" x="119.5" y="301.1997">value: "Alice"</text><text fill="#000000" font-family="sans-serif" font-size="13" lengthAdjust="spacing" textLength="91" x="119.5" y="331.4653">key: "title@2"</text><text fill="#000000" font-family="sans-serif" font-size="13" lengthAdjust="spacing" textLength="145" x="119.5" y="346.5981">value: "Microservices"</text><line style="stroke:#070D4A;stroke-width:1.0;" x1="102.5" x2="183.5" y1="311.832" y2="311.832"/><text fill="#000000" font-family="sans-serif" font-size="13" lengthAdjust="spacing" text-decoration="line-through" textLength="5" x="183.5" y="315.8325">-</text><text fill="#000000" font-family="sans-serif" font-size="13" lengthAdjust="spacing" text-decoration="line-through" textLength="5" x="188.5" y="315.8325">-</text><text fill="#000000" font-family="sans-serif" font-size="13" lengthAdjust="spacing" textLength="10" x="193.5" y="315.8325">--</text><line style="stroke:#070D4A;stroke-width:1.0;" x1="203.5" x2="284.5" y1="311.832" y2="311.832"/><path d="M415.5,269 L415.5,310 L380.24,314 L415.5,318 L415.5,358.6641 A0,0 0 0 0 415.5,358.6641 L599.5,358.6641 A0,0 0 0 0 599.5,358.6641 L599.5,279 L589.5,269 L415.5,269 A0,0 0 0 0 415.5,269 " fill="#F7F8FE" style="stroke:#070D4A;stroke-width:1.0;"/><path d="M589.5,269 L589.5,279 L599.5,279 L589.5,269 " fill="#F7F8FE" style="stroke:#070D4A;stroke-width:1.0;"/><text fill="#000000" font-family="sans-serif" font-size="13" lengthAdjust="spacing" textLength="102" x="433.5" y="286.0669">key: "name@1"</text><text fill="#000000" font-family="sans-serif" font-size="13" lengthAdjust="spacing" textLength="88" x="433.5" y="301.1997">value: "Alice"</text><text fill="#000000" font-family="sans-serif" font-size="13" lengthAdjust="spacing" textLength="91" x="433.5" y="331.4653">key: "title@2"</text><text fill="#000000" font-family="sans-serif" font-size="13" lengthAdjust="spacing" textLength="145" x="433.5" y="346.5981">value: "Microservices"</text><line style="stroke:#070D4A;stroke-width:1.0;" x1="416.5" x2="497.5" y1="311.832" y2="311.832"/><text fill="#000000" font-family="sans-serif" font-size="13" lengthAdjust="spacing" text-decoration="line-through" textLength="5" x="497.5" y="315.8325">-</text><text fill="#000000" font-family="sans-serif" font-size="13" lengthAdjust="spacing" text-decoration="line-through" textLength="5" x="502.5" y="315.8325">-</text><text fill="#000000" font-family="sans-serif" font-size="13" lengthAdjust="spacing" textLength="10" x="507.5" y="315.8325">--</text><line style="stroke:#070D4A;stroke-width:1.0;" x1="517.5" x2="598.5" y1="311.832" y2="311.832"/><!--MD5=[d2d9f9568183fdfa8857a134dda5fe4d]
link Client to Blue--><path codeLine="16" d="M168.34,29.1 C145.4,34.41 112.16,46.13 96.5,71 C76.12,103.36 122.88,132.13 158.05,148.28 " fill="none" id="Client-to-Blue" style="stroke:#070D4A;stroke-width:1.0;"/><polygon fill="#070D4A" points="162.71,150.38,156.1528,143.0313,158.1528,148.3228,152.8613,150.3229,162.71,150.38" style="stroke:#070D4A;stroke-width:1.0;"/><text fill="#000000" font-family="sans-serif" font-size="13" lengthAdjust="spacing" textLength="144" x="97.5" y="84.0669">write("name", "Alice")</text><!--MD5=[d2d9f9568183fdfa8857a134dda5fe4d]
link Client to Blue--><path codeLine="17" d="M216.5,38.6 C227.85,46.45 240.25,57.47 246.5,71 C249.67,77.86 248.84,80.82 246.5,88 C240.1,107.63 226.31,126.37 214.27,140.09 " fill="none" id="Client-to-Blue-1" style="stroke:#070D4A;stroke-width:1.0;"/><polygon fill="#070D4A" points="210.92,143.82,219.9053,139.7871,214.2569,140.0964,213.9476,134.448,210.92,143.82" style="stroke:#070D4A;stroke-width:1.0;"/><text fill="#000000" font-family="sans-serif" font-size="13" lengthAdjust="spacing" textLength="190" x="249.5" y="84.0669">write("title", "Microservices")</text><!--MD5=[06bb6308115f3532bb0ed7d2b6914ed4]
link Blue to Pink--><path codeLine="27" d="M173.37,182.27 C144.6,209.75 90.28,261.63 59.43,291.1 " fill="none" id="Blue-to-Pink" style="stroke:#070D4A;stroke-width:1.0;"/><polygon fill="#070D4A" points="55.79,294.58,65.0587,291.2496,59.4032,291.1239,59.5289,285.4684,55.79,294.58" style="stroke:#070D4A;stroke-width:1.0;"/><!--MD5=[295f7da92527e3abe7e1c3d66f2e368c]
link Blue to Orange--><path codeLine="28" d="M211.87,182.27 C241.01,209.75 296.03,261.63 327.28,291.1 " fill="none" id="Blue-to-Orange" style="stroke:#070D4A;stroke-width:1.0;"/><polygon fill="#070D4A" points="330.97,294.58,327.1755,285.4915,327.3357,291.146,321.6811,291.3063,330.97,294.58" style="stroke:#070D4A;stroke-width:1.0;"/><!--MD5=[1491707795e461e8c836d58fc6f4c559]
@startuml
!include ../style.puml
object Client
object Blue {
    clock = 2
}

object Pink {
    clock = 2
} 

object Orange {
    clock = 2
}


Client - -> Blue: write("name", "Alice")
Client - -> Blue: write("title", "Microservices")

note right of Blue
     key: "name@1"
     value: "Alice"
  - - - - - - - - - - - - - - - -
     key: "title@2"
     value: "Microservices"
end note 

Blue - -> Pink
Blue - -> Orange


note right of Pink
     key: "name@1"
     value: "Alice"
  - - - - - - - - - - - - - - - -
     key: "title@2"
     value: "Microservices"
end note 


note right of Orange
     key: "name@1"
     value: "Alice"
  - - - - - - - - - - - - - - - -
     key: "title@2"
     value: "Microservices"
end note 

@enduml

@startuml
skinparam shadowing false
skinparam sequenceParticipant{
    BackgroundColor #F7F8FE
  BorderColor #070D4A
}
skinparam sequenceLifeLine {
   BackgroundColor #F7F8FE
  BorderColor #070D4A
}
skinparam sequence {
  ArrowColor #070D4A
}

skinparam Note {
    BackgroundColor #F7F8FE
  BorderColor #070D4A
}
skinparam Node {
    BackgroundColor #F7F8FE
  BorderColor #070D4A
}

skinparam object {
    BackgroundColor #F7F8FE
  BorderColor #070D4A
}


hide footbox
object Client
object Blue {
    clock = 2
}

object Pink {
    clock = 2
} 

object Orange {
    clock = 2
}


Client - -> Blue: write("name", "Alice")
Client - -> Blue: write("title", "Microservices")

note right of Blue
     key: "name@1"
     value: "Alice"
  - - - - - - - - - - - - - - - -
     key: "title@2"
     value: "Microservices"
end note 

Blue - -> Pink
Blue - -> Orange


note right of Pink
     key: "name@1"
     value: "Alice"
  - - - - - - - - - - - - - - - -
     key: "title@2"
     value: "Microservices"
end note 


note right of Orange
     key: "name@1"
     value: "Alice"
  - - - - - - - - - - - - - - - -
     key: "title@2"
     value: "Microservices"
end note 

@enduml

PlantUML version 1.2021.5(Sun Apr 25 16:50:28 IST 2021)
(GPL source distribution)
Java Runtime: Java(TM) SE Runtime Environment
JVM: Java HotSpot(TM) 64-Bit Server VM
Default Encoding: UTF-8
Language: en
Country: IN
--></g></svg>