<?xml version="1.0" standalone="yes"?>

<svg version="1.1" viewBox="0.0 0.0 835.2362204724409 523.4750656167979" fill="none" stroke="none" stroke-linecap="square" stroke-miterlimit="10" xmlns="http://www.w3.org/2000/svg" xmlns:xlink="http://www.w3.org/1999/xlink"><clipPath id="p.0"><path d="m0 0l835.2362 0l0 523.47504l-835.2362 0l0 -523.47504z" clip-rule="nonzero"></path></clipPath><g clip-path="url(#p.0)"><path fill="#000000" fill-opacity="0.0" d="m0 0l835.2362 0l0 523.47504l-835.2362 0z" fill-rule="nonzero"></path><path fill="#80c9cf" d="m11.451444 252.6483l0 0c0 -28.953644 33.427055 -52.4252 74.661415 -52.4252l0 0c41.23436 0 74.661415 23.471558 74.661415 52.4252l0 0c0 28.953629 -33.427055 52.425186 -74.661415 52.425186l0 0c-41.234364 0 -74.661415 -23.471558 -74.661415 -52.425186z" fill-rule="nonzero"></path><path stroke="#000000" stroke-width="1.0" stroke-linejoin="round" stroke-linecap="butt" d="m11.451444 252.6483l0 0c0 -28.953644 33.427055 -52.4252 74.661415 -52.4252l0 0c41.23436 0 74.661415 23.471558 74.661415 52.4252l0 0c0 28.953629 -33.427055 52.425186 -74.661415 52.425186l0 0c-41.234364 0 -74.661415 -23.471558 -74.661415 -52.425186z" fill-rule="nonzero"></path><path fill="#000000" d="m49.991142 236.22455q-2.234375 0 -3.53125 1.484375q-1.296875 1.484375 -1.296875 4.078125q0 2.65625 1.25 4.109375q1.25 1.453125 3.5625 1.453125q1.421875 0 3.234375 -0.5l0 1.375q-1.40625 0.53125 -3.484375 0.53125q-2.984375 0 -4.625 -1.8125q-1.625 -1.828125 -1.625 -5.171875q0 -2.09375 0.78125 -3.671875q0.796875 -1.578125 2.265625 -2.4375q1.484375 -0.859375 3.484375 -0.859375q2.140625 0 3.734375 0.78125l-0.671875 1.359375q-1.53125 -0.71875 -3.078125 -0.71875zm7.26947 12.34375l-1.53125 0l0 -14.4375l1.53125 0l0 14.4375zm4.7187195 0l-1.53125 0l0 -10.171875l1.53125 0l0 10.171875zm-1.671875 -12.921875q0 -0.53125 0.25 -0.765625q0.265625 -0.25 0.65625 -0.25q0.375 0 0.640625 0.25q0.28125 0.25 0.28125 0.765625q0 0.515625 -0.28125 0.78125q-0.265625 0.25 -0.640625 0.25q-0.390625 0 -0.65625 -0.25q-0.25 -0.265625 -0.25 -0.78125zm9.1405945 13.109375q-2.25 0 -3.5625 -1.375q-1.296875 -1.375 -1.296875 -3.8125q0 -2.453125 1.203125 -3.90625q1.21875 -1.453125 3.265625 -1.453125q1.90625 0 3.015625 1.265625q1.125 1.25 1.125 3.3125l0 0.96875l-7.015625 0q0.046875 1.796875 0.90625 2.734375q0.859375 0.921875 2.421875 0.921875q1.640625 0 3.25 -0.6875l0 1.375q-0.8125 0.34375 -1.546875 0.5q-0.734375 0.15625 -1.765625 0.15625zm-0.40625 -9.25q-1.234375 0 -1.96875 0.796875q-0.71875 0.796875 -0.84375 2.203125l5.3125 0q0 -1.453125 -0.65625 -2.21875q-0.640625 -0.78125 -1.84375 -0.78125zm13.544937 9.0625l0 -6.578125q0 -1.25 -0.578125 -1.859375q-0.5625 -0.609375 -1.765625 -0.609375q-1.59375 0 -2.34375 0.875q-0.734375 0.859375 -0.734375 2.84375l0 5.328125l-1.53125 0l0 -10.171875l1.25 0l0.25 1.390625l0.0625 0q0.484375 -0.75 1.328125 -1.15625q0.859375 -0.421875 1.90625 -0.421875q1.84375 0 2.765625 0.890625q0.921875 0.890625 0.921875 2.828125l0 6.640625l-1.53125 0zm7.778763 -1.078125q0.40625 0 0.78125 -0.0625q0.390625 -0.0625 0.609375 -0.125l0 1.171875q-0.25 0.125 -0.75 0.203125q-0.484375 0.078125 -0.875 0.078125q-2.9375 0 -2.9375 -3.109375l0 -6.046875l-1.46875 0l0 -0.75l1.46875 -0.640625l0.640625 -2.171875l0.890625 0l0 2.359375l2.953125 0l0 1.203125l-2.953125 0l0 5.984375q0 0.921875 0.4375 1.421875q0.4375 0.484375 1.203125 0.484375z" fill-rule="nonzero"></path><path fill="#000000" d="m43.084892 265.36517q0 -2.453125 0.71875 -4.59375q0.71875 -2.15625 2.0625 -3.765625l1.515625 0q-1.34375 1.796875 -2.015625 3.9375q-0.671875 2.140625 -0.671875 4.40625q0 2.21875 0.6875 4.34375q0.6875 2.125 1.96875 3.875l-1.484375 0q-1.359375 -1.578125 -2.078125 -3.671875q-0.703125 -2.109375 -0.703125 -4.53125zm11.114105 -5.125q2.015625 0 3.109375 1.375q1.109375 1.359375 1.109375 3.859375q0 2.5 -1.125 3.890625q-1.109375 1.390625 -3.09375 1.390625q-0.984375 0 -1.8125 -0.359375q-0.8125 -0.375 -1.375 -1.140625l-0.109375 0l-0.328125 1.3125l-1.09375 0l0 -14.4375l1.53125 0l0 3.515625q0 1.171875 -0.078125 2.109375l0.078125 0q1.078125 -1.515625 3.1875 -1.515625zm-0.21875 1.28125q-1.578125 0 -2.28125 0.90625q-0.6875 0.90625 -0.6875 3.046875q0 2.140625 0.71875 3.0625q0.71875 0.921875 2.28125 0.921875q1.421875 0 2.109375 -1.03125q0.703125 -1.03125 0.703125 -2.96875q0 -1.984375 -0.703125 -2.953125q-0.6875 -0.984375 -2.140625 -0.984375zm11.557419 -1.3125q0.6875 0 1.21875 0.109375l-0.203125 1.4375q-0.640625 -0.140625 -1.125 -0.140625q-1.234375 0 -2.109375 1.0q-0.875 1.0 -0.875 2.5l0 5.453125l-1.53125 0l0 -10.171875l1.265625 0l0.171875 1.890625l0.078125 0q0.5625 -1.0 1.359375 -1.53125q0.796875 -0.546875 1.75 -0.546875zm11.756165 5.265625q0 2.484375 -1.25 3.890625q-1.25 1.390625 -3.453125 1.390625q-1.375 0 -2.4375 -0.640625q-1.046875 -0.640625 -1.625 -1.828125q-0.578125 -1.203125 -0.578125 -2.8125q0 -2.484375 1.234375 -3.875q1.25 -1.390625 3.46875 -1.390625q2.125 0 3.375 1.421875q1.265625 1.421875 1.265625 3.84375zm-7.75 0q0 1.953125 0.78125 2.96875q0.78125 1.015625 2.296875 1.015625q1.515625 0 2.296875 -1.015625q0.78125 -1.015625 0.78125 -2.96875q0 -1.9375 -0.78125 -2.9375q-0.78125 -1.015625 -2.3125 -1.015625q-1.515625 0 -2.296875 1.0q-0.765625 0.984375 -0.765625 2.953125zm18.549698 5.09375l-1.859375 -5.96875q-0.1875 -0.546875 -0.671875 -2.484375l-0.0625 0q-0.375 1.625 -0.65625 2.5l-1.921875 5.953125l-1.78125 0l-2.765625 -10.171875l1.609375 0q0.984375 3.828125 1.5 5.84375q0.515625 2.0 0.59375 2.6875l0.0625 0q0.109375 -0.515625 0.328125 -1.359375q0.234375 -0.84375 0.40625 -1.328125l1.859375 -5.84375l1.671875 0l1.8125 5.84375q0.515625 1.59375 0.703125 2.671875l0.078125 0q0.03125 -0.328125 0.1875 -1.015625q0.171875 -0.703125 1.953125 -7.5l1.59375 0l-2.8125 10.171875l-1.828125 0zm12.761429 -2.78125q0 1.421875 -1.0625 2.203125q-1.046875 0.765625 -2.953125 0.765625q-2.03125 0 -3.15625 -0.640625l0 -1.4375q0.734375 0.375 1.5625 0.59375q0.84375 0.21875 1.625 0.21875q1.203125 0 1.84375 -0.390625q0.65625 -0.390625 0.65625 -1.171875q0 -0.59375 -0.515625 -1.015625q-0.515625 -0.421875 -2.0 -1.0q-1.421875 -0.53125 -2.03125 -0.921875q-0.59375 -0.390625 -0.890625 -0.890625q-0.28125 -0.515625 -0.28125 -1.203125q0 -1.25 1.0 -1.96875q1.015625 -0.71875 2.78125 -0.71875q1.640625 0 3.21875 0.671875l-0.546875 1.25q-1.53125 -0.625 -2.78125 -0.625q-1.09375 0 -1.65625 0.34375q-0.546875 0.34375 -0.546875 0.9375q0 0.421875 0.203125 0.703125q0.203125 0.28125 0.671875 0.546875q0.46875 0.265625 1.78125 0.75q1.8125 0.65625 2.4375 1.328125q0.640625 0.671875 0.640625 1.671875zm6.6343536 2.96875q-2.25 0 -3.5625 -1.375q-1.296875 -1.375 -1.296875 -3.8125q0 -2.453125 1.203125 -3.90625q1.21875 -1.453125 3.265625 -1.453125q1.90625 0 3.015625 1.265625q1.125 1.25 1.125 3.3125l0 0.96875l-7.015625 0q0.046875 1.796875 0.90625 2.734375q0.859375 0.921875 2.421875 0.921875q1.640625 0 3.25 -0.6875l0 1.375q-0.8125 0.34375 -1.546875 0.5q-0.734375 0.15625 -1.765625 0.15625zm-0.40625 -9.25q-1.234375 0 -1.96875 0.796875q-0.71875 0.796875 -0.84375 2.203125l5.3125 0q0 -1.453125 -0.65625 -2.21875q-0.640625 -0.78125 -1.84375 -0.78125zm11.216812 -1.296875q0.6875 0 1.21875 0.109375l-0.203125 1.4375q-0.640625 -0.140625 -1.125 -0.140625q-1.234375 0 -2.109375 1.0q-0.875 1.0 -0.875 2.5l0 5.453125l-1.53125 0l0 -10.171875l1.265625 0l0.171875 1.890625l0.078125 0q0.5625 -1.0 1.359375 -1.53125q0.796875 -0.546875 1.75 -0.546875zm6.2092896 5.15625q0 2.4375 -0.71875 4.546875q-0.71875 2.109375 -2.078125 3.65625l-1.484375 0q1.296875 -1.734375 1.984375 -3.859375q0.6875 -2.140625 0.6875 -4.359375q0 -2.265625 -0.671875 -4.40625q-0.671875 -2.140625 -2.015625 -3.9375l1.5 0q1.375 1.625 2.078125 3.78125q0.71875 2.140625 0.71875 4.578125z" fill-rule="nonzero"></path><path fill="#f0ba95" d="m680.0551 171.46326l0 0c0 7.2384033 27.835876 13.106293 62.173218 13.106293c34.33734 0 62.173218 -5.8678894 62.173218 -13.106293l0 78.63779c0 7.2384033 -27.835876 13.106293 -62.173218 13.106293c-34.33734 0 -62.173218 -5.8678894 -62.173218 -13.106293z" fill-rule="nonzero"></path><path fill="#f6d5bf" d="m680.0551 171.46326l0 0c0 -7.2384186 27.835876 -13.106308 62.173218 -13.106308c34.33734 0 62.173218 5.8678894 62.173218 13.106308l0 0c0 7.2384033 -27.835876 13.106293 -62.173218 13.106293c-34.33734 0 -62.173218 -5.8678894 -62.173218 -13.106293z" fill-rule="nonzero"></path><path fill="#000000" fill-opacity="0.0" d="m804.40155 171.46326l0 0c0 7.2384033 -27.835876 13.106293 -62.173218 13.106293c-34.33734 0 -62.173218 -5.8678894 -62.173218 -13.106293l0 0c0 -7.2384186 27.835876 -13.106308 62.173218 -13.106308c34.33734 0 62.173218 5.8678894 62.173218 13.106308l0 78.63779c0 7.2384033 -27.835876 13.106293 -62.173218 13.106293c-34.33734 0 -62.173218 -5.8678894 -62.173218 -13.106293l0 -78.63779" fill-rule="nonzero"></path><path stroke="#000000" stroke-width="1.0" stroke-linejoin="round" stroke-linecap="butt" d="m804.40155 171.46326l0 0c0 7.2384033 -27.835876 13.106293 -62.173218 13.106293c-34.33734 0 -62.173218 -5.8678894 -62.173218 -13.106293l0 0c0 -7.2384186 27.835876 -13.106308 62.173218 -13.106308c34.33734 0 62.173218 5.8678894 62.173218 13.106308l0 78.63779c0 7.2384033 -27.835876 13.106293 -62.173218 13.106293c-34.33734 0 -62.173218 -5.8678894 -62.173218 -13.106293l0 -78.63779" fill-rule="nonzero"></path><path fill="#000000" d="m699.52386 203.64592q0 2.0625 -1.40625 3.171875q-1.40625 1.109375 -4.03125 1.109375l-1.59375 0l0 5.328125l-1.578125 0l0 -13.5625l3.515625 0q5.09375 0 5.09375 3.953125zm-7.03125 2.921875l1.421875 0q2.09375 0 3.03125 -0.671875q0.9375 -0.6875 0.9375 -2.171875q0 -1.34375 -0.890625 -2.0q-0.875 -0.671875 -2.734375 -0.671875l-1.765625 0l0 5.515625zm10.87262 -3.484375l0 6.59375q0 1.25 0.5625 1.859375q0.578125 0.609375 1.78125 0.609375q1.59375 0 2.328125 -0.859375q0.734375 -0.875 0.734375 -2.859375l0 -5.34375l1.546875 0l0 10.171875l-1.265625 0l-0.234375 -1.359375l-0.078125 0q-0.46875 0.75 -1.3125 1.15625q-0.84375 0.390625 -1.921875 0.390625q-1.84375 0 -2.78125 -0.875q-0.921875 -0.890625 -0.921875 -2.828125l0 -6.65625l1.5625 0zm14.638184 -0.1875q0.6875 0 1.21875 0.109375l-0.203125 1.4375q-0.640625 -0.140625 -1.125 -0.140625q-1.234375 0 -2.109375 1.0q-0.875 1.0 -0.875 2.5l0 5.453125l-1.53125 0l0 -10.171875l1.265625 0l0.171875 1.890625l0.078125 0q0.5625 -1.0 1.359375 -1.53125q0.796875 -0.546875 1.75 -0.546875zm7.0530396 10.546875q-2.21875 0 -3.4375 -1.359375q-1.203125 -1.359375 -1.203125 -3.84375q0 -2.5625 1.234375 -3.953125q1.234375 -1.390625 3.5 -1.390625q0.734375 0 1.46875 0.171875q0.734375 0.15625 1.15625 0.359375l-0.484375 1.3125q-0.5 -0.203125 -1.109375 -0.328125q-0.609375 -0.140625 -1.0625 -0.140625q-3.109375 0 -3.109375 3.953125q0 1.875 0.75 2.875q0.765625 1.0 2.25 1.0q1.28125 0 2.609375 -0.546875l0 1.359375q-1.015625 0.53125 -2.5625 0.53125zm11.772339 -0.1875l0 -6.578125q0 -1.25 -0.578125 -1.859375q-0.5625 -0.609375 -1.765625 -0.609375q-1.609375 0 -2.34375 0.875q-0.734375 0.875 -0.734375 2.859375l0 5.3125l-1.53125 0l0 -14.4375l1.53125 0l0 4.375q0 0.78125 -0.078125 1.296875l0.09375 0q0.453125 -0.71875 1.296875 -1.140625q0.84375 -0.421875 1.921875 -0.421875q1.859375 0 2.78125 0.890625q0.9375 0.875 0.9375 2.796875l0 6.640625l-1.53125 0zm10.747559 0l-0.3125 -1.453125l-0.078125 0q-0.75 0.96875 -1.515625 1.3125q-0.75 0.328125 -1.890625 0.328125q-1.5 0 -2.359375 -0.78125q-0.859375 -0.78125 -0.859375 -2.21875q0 -3.078125 4.921875 -3.234375l1.734375 -0.046875l0 -0.625q0 -1.203125 -0.515625 -1.765625q-0.515625 -0.578125 -1.65625 -0.578125q-1.265625 0 -2.875 0.78125l-0.46875 -1.1875q0.75 -0.40625 1.640625 -0.625q0.90625 -0.234375 1.796875 -0.234375q1.828125 0 2.703125 0.8125q0.875 0.796875 0.875 2.578125l0 6.9375l-1.140625 0zm-3.484375 -1.078125q1.4375 0 2.25 -0.78125q0.828125 -0.796875 0.828125 -2.21875l0 -0.921875l-1.53125 0.0625q-1.84375 0.0625 -2.65625 0.578125q-0.8125 0.5 -0.8125 1.5625q0 0.84375 0.5 1.28125q0.515625 0.4375 1.421875 0.4375zm14.156921 -1.703125q0 1.421875 -1.0625 2.203125q-1.046875 0.765625 -2.953125 0.765625q-2.03125 0 -3.15625 -0.640625l0 -1.4375q0.734375 0.375 1.5625 0.59375q0.84375 0.21875 1.625 0.21875q1.203125 0 1.84375 -0.390625q0.65625 -0.390625 0.65625 -1.171875q0 -0.59375 -0.515625 -1.015625q-0.515625 -0.421875 -2.0 -1.0q-1.421875 -0.53125 -2.03125 -0.921875q-0.59375 -0.390625 -0.890625 -0.890625q-0.28125 -0.515625 -0.28125 -1.203125q0 -1.25 1.0 -1.96875q1.015625 -0.71875 2.78125 -0.71875q1.640625 0 3.21875 0.671875l-0.546875 1.25q-1.53125 -0.625 -2.78125 -0.625q-1.09375 0 -1.65625 0.34375q-0.546875 0.34375 -0.546875 0.9375q0 0.421875 0.203125 0.703125q0.203125 0.28125 0.671875 0.546875q0.46875 0.265625 1.78125 0.75q1.8125 0.65625 2.4375 1.328125q0.640625 0.671875 0.640625 1.671875zm6.6343994 2.96875q-2.25 0 -3.5625 -1.375q-1.296875 -1.375 -1.296875 -3.8125q0 -2.453125 1.203125 -3.90625q1.21875 -1.453125 3.265625 -1.453125q1.90625 0 3.015625 1.265625q1.125 1.25 1.125 3.3125l0 0.96875l-7.015625 0q0.046875 1.796875 0.90625 2.734375q0.859375 0.921875 2.421875 0.921875q1.640625 0 3.25 -0.6875l0 1.375q-0.8125 0.34375 -1.546875 0.5q-0.734375 0.15625 -1.765625 0.15625zm-0.40625 -9.25q-1.234375 0 -1.96875 0.796875q-0.71875 0.796875 -0.84375 2.203125l5.3125 0q0 -1.453125 -0.65625 -2.21875q-0.640625 -0.78125 -1.84375 -0.78125z" fill-rule="nonzero"></path><path fill="#000000" d="m701.7426 228.34904q0 3.359375 -1.828125 5.140625q-1.8125 1.765625 -5.234375 1.765625l-3.765625 0l0 -13.5625l4.15625 0q3.171875 0 4.921875 1.75q1.75 1.75 1.75 4.90625zm-1.671875 0.046875q0 -2.65625 -1.328125 -4.0q-1.328125 -1.34375 -3.953125 -1.34375l-2.296875 0l0 10.84375l1.921875 0q2.828125 0 4.234375 -1.390625q1.421875 -1.390625 1.421875 -4.109375zm10.475464 6.859375l-0.3125 -1.453125l-0.078125 0q-0.75 0.96875 -1.515625 1.3125q-0.75 0.328125 -1.890625 0.328125q-1.5 0 -2.359375 -0.78125q-0.859375 -0.78125 -0.859375 -2.21875q0 -3.078125 4.921875 -3.234375l1.734375 -0.046875l0 -0.625q0 -1.203125 -0.515625 -1.765625q-0.515625 -0.578125 -1.65625 -0.578125q-1.265625 0 -2.875 0.78125l-0.46875 -1.1875q0.75 -0.40625 1.640625 -0.625q0.90625 -0.234375 1.796875 -0.234375q1.828125 0 2.703125 0.8125q0.875 0.796875 0.875 2.578125l0 6.9375l-1.140625 0zm-3.484375 -1.078125q1.4375 0 2.25 -0.78125q0.828125 -0.796875 0.828125 -2.21875l0 -0.921875l-1.53125 0.0625q-1.84375 0.0625 -2.65625 0.578125q-0.8125 0.5 -0.8125 1.5625q0 0.84375 0.5 1.28125q0.515625 0.4375 1.421875 0.4375zm10.891357 0q0.40625 0 0.78125 -0.0625q0.390625 -0.0625 0.609375 -0.125l0 1.171875q-0.25 0.125 -0.75 0.203125q-0.484375 0.078125 -0.875 0.078125q-2.9375 0 -2.9375 -3.109375l0 -6.046875l-1.46875 0l0 -0.75l1.46875 -0.640625l0.640625 -2.171875l0.890625 0l0 2.359375l2.953125 0l0 1.203125l-2.953125 0l0 5.984375q0 0.921875 0.4375 1.421875q0.4375 0.484375 1.203125 0.484375zm9.554932 1.078125l-0.3125 -1.453125l-0.078125 0q-0.75 0.96875 -1.515625 1.3125q-0.75 0.328125 -1.890625 0.328125q-1.5 0 -2.359375 -0.78125q-0.859375 -0.78125 -0.859375 -2.21875q0 -3.078125 4.921875 -3.234375l1.734375 -0.046875l0 -0.625q0 -1.203125 -0.515625 -1.765625q-0.515625 -0.578125 -1.65625 -0.578125q-1.265625 0 -2.875 0.78125l-0.46875 -1.1875q0.75 -0.40625 1.640625 -0.625q0.90625 -0.234375 1.796875 -0.234375q1.828125 0 2.703125 0.8125q0.875 0.796875 0.875 2.578125l0 6.9375l-1.140625 0zm-3.484375 -1.078125q1.4375 0 2.25 -0.78125q0.828125 -0.796875 0.828125 -2.21875l0 -0.921875l-1.53125 0.0625q-1.84375 0.0625 -2.65625 0.578125q-0.8125 0.5 -0.8125 1.5625q0 0.84375 0.5 1.28125q0.515625 0.4375 1.421875 0.4375zm12.328857 -9.25q2.015625 0 3.109375 1.375q1.109375 1.359375 1.109375 3.859375q0 2.5 -1.125 3.890625q-1.109375 1.390625 -3.09375 1.390625q-0.984375 0 -1.8125 -0.359375q-0.8125 -0.375 -1.375 -1.140625l-0.109375 0l-0.328125 1.3125l-1.09375 0l0 -14.4375l1.53125 0l0 3.515625q0 1.171875 -0.078125 2.109375l0.078125 0q1.078125 -1.515625 3.1875 -1.515625zm-0.21875 1.28125q-1.578125 0 -2.28125 0.90625q-0.6875 0.90625 -0.6875 3.046875q0 2.140625 0.71875 3.0625q0.71875 0.921875 2.28125 0.921875q1.421875 0 2.109375 -1.03125q0.703125 -1.03125 0.703125 -2.96875q0 -1.984375 -0.703125 -2.953125q-0.6875 -0.984375 -2.140625 -0.984375zm13.182373 9.046875l-0.3125 -1.453125l-0.078125 0q-0.75 0.96875 -1.515625 1.3125q-0.75 0.328125 -1.890625 0.328125q-1.5 0 -2.359375 -0.78125q-0.859375 -0.78125 -0.859375 -2.21875q0 -3.078125 4.921875 -3.234375l1.734375 -0.046875l0 -0.625q0 -1.203125 -0.515625 -1.765625q-0.515625 -0.578125 -1.65625 -0.578125q-1.265625 0 -2.875 0.78125l-0.46875 -1.1875q0.75 -0.40625 1.640625 -0.625q0.90625 -0.234375 1.796875 -0.234375q1.828125 0 2.703125 0.8125q0.875 0.796875 0.875 2.578125l0 6.9375l-1.140625 0zm-3.484375 -1.078125q1.4375 0 2.25 -0.78125q0.828125 -0.796875 0.828125 -2.21875l0 -0.921875l-1.53125 0.0625q-1.84375 0.0625 -2.65625 0.578125q-0.8125 0.5 -0.8125 1.5625q0 0.84375 0.5 1.28125q0.515625 0.4375 1.421875 0.4375zm14.156982 -1.703125q0 1.421875 -1.0625 2.203125q-1.046875 0.765625 -2.953125 0.765625q-2.03125 0 -3.15625 -0.640625l0 -1.4375q0.734375 0.375 1.5625 0.59375q0.84375 0.21875 1.625 0.21875q1.203125 0 1.84375 -0.390625q0.65625 -0.390625 0.65625 -1.171875q0 -0.59375 -0.515625 -1.015625q-0.515625 -0.421875 -2.0 -1.0q-1.421875 -0.53125 -2.03125 -0.921875q-0.59375 -0.390625 -0.890625 -0.890625q-0.28125 -0.515625 -0.28125 -1.203125q0 -1.25 1.0 -1.96875q1.015625 -0.71875 2.78125 -0.71875q1.640625 0 3.21875 0.671875l-0.546875 1.25q-1.53125 -0.625 -2.78125 -0.625q-1.09375 0 -1.65625 0.34375q-0.546875 0.34375 -0.546875 0.9375q0 0.421875 0.203125 0.703125q0.203125 0.28125 0.671875 0.546875q0.46875 0.265625 1.78125 0.75q1.8125 0.65625 2.4375 1.328125q0.640625 0.671875 0.640625 1.671875zm6.6343384 2.96875q-2.25 0 -3.5625 -1.375q-1.296875 -1.375 -1.296875 -3.8125q0 -2.453125 1.203125 -3.90625q1.21875 -1.453125 3.265625 -1.453125q1.90625 0 3.015625 1.265625q1.125 1.25 1.125 3.3125l0 0.96875l-7.015625 0q0.046875 1.796875 0.90625 2.734375q0.859375 0.921875 2.421875 0.921875q1.640625 0 3.25 -0.6875l0 1.375q-0.8125 0.34375 -1.546875 0.5q-0.734375 0.15625 -1.765625 0.15625zm-0.40625 -9.25q-1.234375 0 -1.96875 0.796875q-0.71875 0.796875 -0.84375 2.203125l5.3125 0q0 -1.453125 -0.65625 -2.21875q-0.640625 -0.78125 -1.84375 -0.78125z" fill-rule="nonzero"></path><path fill="#fff450" d="m262.73688 64.38042l0 0c-1.9403992 -8.457554 4.4303284 -16.830025 16.408813 -21.564655c11.978516 -4.7346344 27.46405 -5.0010796 39.88553 -0.6862755l0 0c4.400055 -4.917572 12.45343 -8.312817 21.724182 -9.158741c9.270752 -0.84592056 18.669922 0.9568405 25.354492 4.86298l0 0c3.748291 -4.4585876 11.108124 -7.4541893 19.467834 -7.923809c8.359741 -0.46961975 16.536224 1.653204 21.628082 5.615185l0 0c6.77182 -4.7260914 17.54596 -6.715973 27.6604 -5.10861c10.114441 1.6073627 17.752502 6.5232716 19.609192 12.620588l0 0c8.296631 1.3422279 15.20755 4.7543564 18.947205 9.354797c3.7396545 4.600441 3.9411926 9.937901 0.55252075 14.633354l0 0c8.169769 6.3065033 10.080872 14.709839 5.0201416 22.074036c-5.06073 7.3642044 -16.333008 12.5828705 -29.610168 13.708504c-0.09359741 6.91156 -6.4845276 13.253525 -16.709503 16.581429c-10.224945 3.327896 -22.687256 3.1220703 -32.583405 -0.5381546c-4.21521 8.277794 -16.079681 14.368515 -30.467499 15.640747c-14.387817 1.272232 -28.719696 -2.5020905 -36.80371 -9.692337c-9.909302 3.544098 -21.799652 4.565033 -32.98883 2.8325195c-11.189148 -1.7325134 -20.73462 -6.072548 -26.483124 -12.041069l0 0c-10.126068 0.70280457 -19.91658 -2.4088364 -24.512543 -7.790642c-4.5959473 -5.3818054 -3.018982 -11.888107 3.9482727 -16.289856l0 0c-9.03273 -3.1531982 -13.641769 -9.410202 -11.423691 -15.508217c2.2180786 -6.098015 10.760651 -10.65522 21.17308 -11.295204z" fill-rule="nonzero"></path><path fill="#000000" fill-opacity="0.0" d="m252.78731 91.5098l0 0c4.262558 1.4880066 9.186844 2.163002 14.111649 1.9343567m6.450409 22.146675c2.117859 -0.14698792 4.193756 -0.45825958 6.174164 -0.9257889m53.29483 10.133957c-1.4895325 -1.3248672 -2.7366638 -2.7406006 -3.7201233 -4.2230835m70.99393 -1.7255783l0 0c0.76849365 -1.5091629 1.2664185 -3.0624237 1.4854431 -4.6338577m47.805573 -11.408836c0.09963989 -7.358429 -6.9470215 -14.095879 -18.11322 -17.31842m42.703033 -18.46334c-1.8083496 2.505684 -4.5689697 4.7284393 -8.065399 6.493988m-11.432648 -30.482796l0 0c0.30810547 1.0118523 0.4507141 2.03891 0.42581177 3.0669441m-47.69461 -10.578613l0 0c-1.6892395 1.1789246 -3.0809326 2.496357 -4.131775 3.9112778m-36.964508 -1.6031685l0 0c-0.9002075 1.0708084 -1.5724487 2.203907 -2.0011902 3.3731956m-45.078186 0.9226532l0 0c2.628357 0.91300964 5.059967 2.011917 7.241394 3.2725754m-63.535004 18.978474l0 0c0.26742554 1.1656723 0.69000244 2.3169708 1.2637329 3.4431229" fill-rule="nonzero"></path><path stroke="#000000" stroke-width="1.0" stroke-linejoin="round" stroke-linecap="butt" d="m262.73688 64.38042l0 0c-1.9403992 -8.457554 4.4303284 -16.830025 16.408813 -21.564655c11.978516 -4.7346344 27.46405 -5.0010796 39.88553 -0.6862755l0 0c4.400055 -4.917572 12.45343 -8.312817 21.724182 -9.158741c9.270752 -0.84592056 18.669922 0.9568405 25.354492 4.86298l0 0c3.748291 -4.4585876 11.108124 -7.4541893 19.467834 -7.923809c8.359741 -0.46961975 16.536224 1.653204 21.628082 5.615185l0 0c6.77182 -4.7260914 17.54596 -6.715973 27.6604 -5.10861c10.114441 1.6073627 17.752502 6.5232716 19.609192 12.620588l0 0c8.296631 1.3422279 15.20755 4.7543564 18.947205 9.354797c3.7396545 4.600441 3.9411926 9.937901 0.55252075 14.633354l0 0c8.169769 6.3065033 10.080872 14.709839 5.0201416 22.074036c-5.06073 7.3642044 -16.333008 12.5828705 -29.610168 13.708504c-0.09359741 6.91156 -6.4845276 13.253525 -16.709503 16.581429c-10.224945 3.327896 -22.687256 3.1220703 -32.583405 -0.5381546c-4.21521 8.277794 -16.079681 14.368515 -30.467499 15.640747c-14.387817 1.272232 -28.719696 -2.5020905 -36.80371 -9.692337c-9.909302 3.544098 -21.799652 4.565033 -32.98883 2.8325195c-11.189148 -1.7325134 -20.73462 -6.072548 -26.483124 -12.041069l0 0c-10.126068 0.70280457 -19.91658 -2.4088364 -24.512543 -7.790642c-4.5959473 -5.3818054 -3.018982 -11.888107 3.9482727 -16.289856l0 0c-9.03273 -3.1531982 -13.641769 -9.410202 -11.423691 -15.508217c2.2180786 -6.098015 10.760651 -10.65522 21.17308 -11.295204z" fill-rule="nonzero"></path><path stroke="#000000" stroke-width="1.0" stroke-linejoin="round" stroke-linecap="butt" d="m252.78731 91.5098l0 0c4.262558 1.4880066 9.186844 2.163002 14.111649 1.9343567m6.450409 22.146675c2.117859 -0.14698792 4.193756 -0.45825958 6.174164 -0.9257889m53.29483 10.133957c-1.4895325 -1.3248672 -2.7366638 -2.7406006 -3.7201233 -4.2230835m70.99393 -1.7255783l0 0c0.76849365 -1.5091629 1.2664185 -3.0624237 1.4854431 -4.6338577m47.805573 -11.408836c0.09963989 -7.358429 -6.9470215 -14.095879 -18.11322 -17.31842m42.703033 -18.46334c-1.8083496 2.505684 -4.5689697 4.7284393 -8.065399 6.493988m-11.432648 -30.482796l0 0c0.30810547 1.0118523 0.4507141 2.03891 0.42581177 3.0669441m-47.69461 -10.578613l0 0c-1.6892395 1.1789246 -3.0809326 2.496357 -4.131775 3.9112778m-36.964508 -1.6031685l0 0c-0.9002075 1.0708084 -1.5724487 2.203907 -2.0011902 3.3731956m-45.078186 0.9226532l0 0c2.628357 0.91300964 5.059967 2.011917 7.241394 3.2725754m-63.535004 18.978474l0 0c0.26742554 1.1656723 0.69000244 2.3169708 1.2637329 3.4431229" fill-rule="nonzero"></path><path fill="#000000" d="m293.57007 75.41841l-1.6875 -4.3125l-5.4375 0l-1.671875 4.3125l-1.59375 0l5.359375 -13.625l1.328125 0l5.34375 13.625l-1.640625 0zm-2.1875 -5.734375l-1.5625 -4.203125q-0.3125 -0.796875 -0.640625 -1.953125q-0.203125 0.890625 -0.578125 1.953125l-1.59375 4.203125l4.375 0zm6.680908 -4.4375l0 6.59375q0 1.25 0.5625 1.859375q0.578125 0.609375 1.78125 0.609375q1.59375 0 2.328125 -0.859375q0.734375 -0.875 0.734375 -2.859375l0 -5.34375l1.546875 0l0 10.171875l-1.265625 0l-0.234375 -1.359375l-0.078125 0q-0.46875 0.75 -1.3125 1.15625q-0.84375 0.390625 -1.921875 0.390625q-1.84375 0 -2.78125 -0.875q-0.921875 -0.890625 -0.921875 -2.828125l0 -6.65625l1.5625 0zm13.294373 9.09375q0.40625 0 0.78125 -0.0625q0.390625 -0.0625 0.609375 -0.125l0 1.171875q-0.25 0.125 -0.75 0.203125q-0.484375 0.078125 -0.875 0.078125q-2.9375 0 -2.9375 -3.109375l0 -6.046875l-1.46875 0l0 -0.75l1.46875 -0.640625l0.640625 -2.171875l0.890625 0l0 2.359375l2.953125 0l0 1.203125l-2.953125 0l0 5.984375q0 0.921875 0.4375 1.421875q0.4375 0.484375 1.203125 0.484375zm10.258057 1.078125l0 -6.578125q0 -1.25 -0.578125 -1.859375q-0.5625 -0.609375 -1.765625 -0.609375q-1.609375 0 -2.34375 0.875q-0.734375 0.875 -0.734375 2.859375l0 5.3125l-1.53125 0l0 -14.4375l1.53125 0l0 4.375q0 0.78125 -0.078125 1.296875l0.09375 0q0.453125 -0.71875 1.296875 -1.140625q0.84375 -0.421875 1.921875 -0.421875q1.859375 0 2.78125 0.890625q0.9375 0.875 0.9375 2.796875l0 6.640625l-1.53125 0zm8.778748 0.1875q-2.25 0 -3.5625 -1.375q-1.296875 -1.375 -1.296875 -3.8125q0 -2.453125 1.203125 -3.90625q1.21875 -1.453125 3.265625 -1.453125q1.90625 0 3.015625 1.265625q1.125 1.25 1.125 3.3125l0 0.96875l-7.015625 0q0.046875 1.796875 0.90625 2.734375q0.859375 0.921875 2.421875 0.921875q1.640625 0 3.25 -0.6875l0 1.375q-0.8125 0.34375 -1.546875 0.5q-0.734375 0.15625 -1.765625 0.15625zm-0.40625 -9.25q-1.234375 0 -1.96875 0.796875q-0.71875 0.796875 -0.84375 2.203125l5.3125 0q0 -1.453125 -0.65625 -2.21875q-0.640625 -0.78125 -1.84375 -0.78125zm13.544952 9.0625l0 -6.578125q0 -1.25 -0.578125 -1.859375q-0.5625 -0.609375 -1.765625 -0.609375q-1.59375 0 -2.34375 0.875q-0.734375 0.859375 -0.734375 2.84375l0 5.328125l-1.53125 0l0 -10.171875l1.25 0l0.25 1.390625l0.0625 0q0.484375 -0.75 1.328125 -1.15625q0.859375 -0.421875 1.90625 -0.421875q1.84375 0 2.765625 0.890625q0.921875 0.890625 0.921875 2.828125l0 6.640625l-1.53125 0zm7.7787476 -1.078125q0.40625 0 0.78125 -0.0625q0.390625 -0.0625 0.609375 -0.125l0 1.171875q-0.25 0.125 -0.75 0.203125q-0.484375 0.078125 -0.875 0.078125q-2.9375 0 -2.9375 -3.109375l0 -6.046875l-1.46875 0l0 -0.75l1.46875 -0.640625l0.640625 -2.171875l0.890625 0l0 2.359375l2.953125 0l0 1.203125l-2.953125 0l0 5.984375q0 0.921875 0.4375 1.421875q0.4375 0.484375 1.203125 0.484375zm4.8361816 1.078125l-1.53125 0l0 -10.171875l1.53125 0l0 10.171875zm-1.671875 -12.921875q0 -0.53125 0.25 -0.765625q0.265625 -0.25 0.65625 -0.25q0.375 0 0.640625 0.25q0.28125 0.25 0.28125 0.765625q0 0.515625 -0.28125 0.78125q-0.265625 0.25 -0.640625 0.25q-0.390625 0 -0.65625 -0.25q-0.25 -0.265625 -0.25 -0.78125zm8.9218445 13.109375q-2.21875 0 -3.4375 -1.359375q-1.203125 -1.359375 -1.203125 -3.84375q0 -2.5625 1.234375 -3.953125q1.234375 -1.390625 3.5 -1.390625q0.734375 0 1.46875 0.171875q0.734375 0.15625 1.15625 0.359375l-0.484375 1.3125q-0.5 -0.203125 -1.109375 -0.328125q-0.609375 -0.140625 -1.0625 -0.140625q-3.109375 0 -3.109375 3.953125q0 1.875 0.75 2.875q0.765625 1.0 2.25 1.0q1.28125 0 2.609375 -0.546875l0 1.359375q-1.015625 0.53125 -2.5625 0.53125zm11.069244 -0.1875l-0.3125 -1.453125l-0.078125 0q-0.75 0.96875 -1.515625 1.3125q-0.75 0.328125 -1.890625 0.328125q-1.5 0 -2.359375 -0.78125q-0.859375 -0.78125 -0.859375 -2.21875q0 -3.078125 4.921875 -3.234375l1.734375 -0.046875l0 -0.625q0 -1.203125 -0.515625 -1.765625q-0.515625 -0.578125 -1.65625 -0.578125q-1.265625 0 -2.875 0.78125l-0.46875 -1.1875q0.75 -0.40625 1.640625 -0.625q0.90625 -0.234375 1.796875 -0.234375q1.828125 0 2.703125 0.8125q0.875 0.796875 0.875 2.578125l0 6.9375l-1.140625 0zm-3.484375 -1.078125q1.4375 0 2.25 -0.78125q0.828125 -0.796875 0.828125 -2.21875l0 -0.921875l-1.53125 0.0625q-1.84375 0.0625 -2.65625 0.578125q-0.8125 0.5 -0.8125 1.5625q0 0.84375 0.5 1.28125q0.515625 0.4375 1.421875 0.4375zm10.891357 0q0.40625 0 0.78125 -0.0625q0.390625 -0.0625 0.609375 -0.125l0 1.171875q-0.25 0.125 -0.75 0.203125q-0.484375 0.078125 -0.875 0.078125q-2.9375 0 -2.9375 -3.109375l0 -6.046875l-1.46875 0l0 -0.75l1.46875 -0.640625l0.640625 -2.171875l0.890625 0l0 2.359375l2.953125 0l0 1.203125l-2.953125 0l0 5.984375q0 0.921875 0.4375 1.421875q0.4375 0.484375 1.203125 0.484375zm4.836151 1.078125l-1.53125 0l0 -10.171875l1.53125 0l0 10.171875zm-1.671875 -12.921875q0 -0.53125 0.25 -0.765625q0.265625 -0.25 0.65625 -0.25q0.375 0 0.640625 0.25q0.28125 0.25 0.28125 0.765625q0 0.515625 -0.28125 0.78125q-0.265625 0.25 -0.640625 0.25q-0.390625 0 -0.65625 -0.25q-0.25 -0.265625 -0.25 -0.78125zm13.6249695 7.828125q0 2.484375 -1.25 3.890625q-1.25 1.390625 -3.453125 1.390625q-1.375 0 -2.4375 -0.640625q-1.046875 -0.640625 -1.625 -1.828125q-0.578125 -1.203125 -0.578125 -2.8125q0 -2.484375 1.234375 -3.875q1.25 -1.390625 3.46875 -1.390625q2.125 0 3.375 1.421875q1.265625 1.421875 1.265625 3.84375zm-7.75 0q0 1.953125 0.78125 2.96875q0.78125 1.015625 2.296875 1.015625q1.515625 0 2.296875 -1.015625q0.78125 -1.015625 0.78125 -2.96875q0 -1.9375 -0.78125 -2.9375q-0.78125 -1.015625 -2.3125 -1.015625q-1.515625 0 -2.296875 1.0q-0.765625 0.984375 -0.765625 2.953125zm17.205963 5.09375l0 -6.578125q0 -1.25 -0.578125 -1.859375q-0.5625 -0.609375 -1.765625 -0.609375q-1.59375 0 -2.34375 0.875q-0.734375 0.859375 -0.734375 2.84375l0 5.328125l-1.53125 0l0 -10.171875l1.25 0l0.25 1.390625l0.0625 0q0.484375 -0.75 1.328125 -1.15625q0.859375 -0.421875 1.90625 -0.421875q1.84375 0 2.765625 0.890625q0.921875 0.890625 0.921875 2.828125l0 6.640625l-1.53125 0z" fill-rule="nonzero"></path><path fill="#000000" d="m292.69507 93.80904q0 1.796875 -1.296875 2.796875q-1.296875 1.0 -3.53125 1.0q-2.40625 0 -3.703125 -0.625l0 -1.515625q0.828125 0.34375 1.8125 0.546875q0.984375 0.203125 1.953125 0.203125q1.578125 0 2.375 -0.59375q0.796875 -0.59375 0.796875 -1.65625q0 -0.71875 -0.28125 -1.15625q-0.28125 -0.453125 -0.953125 -0.828125q-0.65625 -0.390625 -2.015625 -0.875q-1.890625 -0.671875 -2.703125 -1.59375q-0.8125 -0.9375 -0.8125 -2.421875q0 -1.578125 1.171875 -2.5q1.1875 -0.9375 3.125 -0.9375q2.03125 0 3.71875 0.75l-0.484375 1.375q-1.6875 -0.703125 -3.265625 -0.703125q-1.25 0 -1.96875 0.546875q-0.703125 0.53125 -0.703125 1.484375q0 0.703125 0.265625 1.15625q0.265625 0.4375 0.875 0.828125q0.625 0.375 1.890625 0.828125q2.125 0.75 2.921875 1.625q0.8125 0.875 0.8125 2.265625zm6.6453247 3.796875q-2.25 0 -3.5625 -1.375q-1.296875 -1.375 -1.296875 -3.8125q0 -2.453125 1.203125 -3.90625q1.21875 -1.453125 3.265625 -1.453125q1.90625 0 3.015625 1.265625q1.125 1.25 1.125 3.3125l0 0.96875l-7.015625 0q0.046875 1.796875 0.90625 2.734375q0.859375 0.921875 2.421875 0.921875q1.640625 0 3.25 -0.6875l0 1.375q-0.8125 0.34375 -1.546875 0.5q-0.734375 0.15625 -1.765625 0.15625zm-0.40625 -9.25q-1.234375 0 -1.96875 0.796875q-0.71875 0.796875 -0.84375 2.203125l5.3125 0q0 -1.453125 -0.65625 -2.21875q-0.640625 -0.78125 -1.84375 -0.78125zm11.216797 -1.296875q0.6875 0 1.21875 0.109375l-0.203125 1.4375q-0.640625 -0.140625 -1.125 -0.140625q-1.234375 0 -2.109375 1.0q-0.875 1.0 -0.875 2.5l0 5.453125l-1.53125 0l0 -10.171875l1.265625 0l0.171875 1.890625l0.078125 0q0.5625 -1.0 1.359375 -1.53125q0.796875 -0.546875 1.75 -0.546875zm5.2092896 10.359375l-3.859375 -10.171875l1.65625 0l2.1875 6.03125q0.734375 2.125 0.875 2.75l0.0625 0q0.109375 -0.5 0.640625 -2.03125q0.546875 -1.546875 2.453125 -6.75l1.640625 0l-3.859375 10.171875l-1.796875 0zm8.658844 0l-1.53125 0l0 -10.171875l1.53125 0l0 10.171875zm-1.671875 -12.921875q0 -0.53125 0.25 -0.765625q0.265625 -0.25 0.65625 -0.25q0.375 0 0.640625 0.25q0.28125 0.25 0.28125 0.765625q0 0.515625 -0.28125 0.78125q-0.265625 0.25 -0.640625 0.25q-0.390625 0 -0.65625 -0.25q-0.25 -0.265625 -0.25 -0.78125zm8.9218445 13.109375q-2.21875 0 -3.4375 -1.359375q-1.203125 -1.359375 -1.203125 -3.84375q0 -2.5625 1.234375 -3.953125q1.234375 -1.390625 3.5 -1.390625q0.734375 0 1.46875 0.171875q0.734375 0.15625 1.15625 0.359375l-0.484375 1.3125q-0.5 -0.203125 -1.109375 -0.328125q-0.609375 -0.140625 -1.0625 -0.140625q-3.109375 0 -3.109375 3.953125q0 1.875 0.75 2.875q0.765625 1.0 2.25 1.0q1.28125 0 2.609375 -0.546875l0 1.359375q-1.015625 0.53125 -2.5625 0.53125zm9.100525 0q-2.25 0 -3.5625 -1.375q-1.296875 -1.375 -1.296875 -3.8125q0 -2.453125 1.203125 -3.90625q1.21875 -1.453125 3.265625 -1.453125q1.90625 0 3.015625 1.265625q1.125 1.25 1.125 3.3125l0 0.96875l-7.015625 0q0.046875 1.796875 0.90625 2.734375q0.859375 0.921875 2.421875 0.921875q1.640625 0 3.25 -0.6875l0 1.375q-0.8125 0.34375 -1.546875 0.5q-0.734375 0.15625 -1.765625 0.15625zm-0.40625 -9.25q-1.234375 0 -1.96875 0.796875q-0.71875 0.796875 -0.84375 2.203125l5.3125 0q0 -1.453125 -0.65625 -2.21875q-0.640625 -0.78125 -1.84375 -0.78125z" fill-rule="nonzero"></path><path fill="#f0ba95" d="m265.53543 367.5525l0 0c0 9.399719 30.479889 17.019684 68.078735 17.019684c37.598846 0 68.078735 -7.6199646 68.078735 -17.019684l0 106.3071c0 9.399689 -30.479889 17.019684 -68.078735 17.019684c-37.598846 0 -68.078735 -7.619995 -68.078735 -17.019684z" fill-rule="nonzero"></path><path fill="#f6d5bf" d="m265.53543 367.5525l0 0c0 -9.399719 30.479889 -17.019684 68.078735 -17.019684c37.598846 0 68.078735 7.6199646 68.078735 17.019684l0 0c0 9.399719 -30.479889 17.019684 -68.078735 17.019684c-37.598846 0 -68.078735 -7.6199646 -68.078735 -17.019684z" fill-rule="nonzero"></path><path fill="#000000" fill-opacity="0.0" d="m401.6929 367.5525l0 0c0 9.399719 -30.479889 17.019684 -68.078735 17.019684c-37.598846 0 -68.078735 -7.6199646 -68.078735 -17.019684l0 0c0 -9.399719 30.479889 -17.019684 68.078735 -17.019684c37.598846 0 68.078735 7.6199646 68.078735 17.019684l0 106.3071c0 9.399689 -30.479889 17.019684 -68.078735 17.019684c-37.598846 0 -68.078735 -7.619995 -68.078735 -17.019684l0 -106.3071" fill-rule="nonzero"></path><path stroke="#000000" stroke-width="1.0" stroke-linejoin="round" stroke-linecap="butt" d="m401.6929 367.5525l0 0c0 9.399719 -30.479889 17.019684 -68.078735 17.019684c-37.598846 0 -68.078735 -7.6199646 -68.078735 -17.019684l0 0c0 -9.399719 30.479889 -17.019684 68.078735 -17.019684c37.598846 0 68.078735 7.6199646 68.078735 17.019684l0 106.3071c0 9.399689 -30.479889 17.019684 -68.078735 17.019684c-37.598846 0 -68.078735 -7.619995 -68.078735 -17.019684l0 -106.3071" fill-rule="nonzero"></path><path fill="#000000" d="m285.00418 415.5265q0 2.0625 -1.40625 3.171875q-1.40625 1.109375 -4.03125 1.109375l-1.59375 0l0 5.328125l-1.578125 0l0 -13.5625l3.515625 0q5.09375 0 5.09375 3.953125zm-7.03125 2.921875l1.421875 0q2.09375 0 3.03125 -0.671875q0.9375 -0.6875 0.9375 -2.171875q0 -1.34375 -0.890625 -2.0q-0.875 -0.671875 -2.734375 -0.671875l-1.765625 0l0 5.515625zm14.06015 -3.671875q0.6875 0 1.21875 0.109375l-0.203125 1.4375q-0.640625 -0.140625 -1.125 -0.140625q-1.234375 0 -2.109375 1.0q-0.875 1.0 -0.875 2.5l0 5.453125l-1.53125 0l0 -10.171875l1.265625 0l0.171875 1.890625l0.078125 0q0.5625 -1.0 1.359375 -1.53125q0.796875 -0.546875 1.75 -0.546875zm11.756165 5.265625q0 2.484375 -1.25 3.890625q-1.25 1.390625 -3.453125 1.390625q-1.375 0 -2.4375 -0.640625q-1.046875 -0.640625 -1.625 -1.828125q-0.578125 -1.203125 -0.578125 -2.8125q0 -2.484375 1.234375 -3.875q1.25 -1.390625 3.46875 -1.390625q2.125 0 3.375 1.421875q1.265625 1.421875 1.265625 3.84375zm-7.75 0q0 1.953125 0.78125 2.96875q0.78125 1.015625 2.296875 1.015625q1.515625 0 2.296875 -1.015625q0.78125 -1.015625 0.78125 -2.96875q0 -1.9375 -0.78125 -2.9375q-0.78125 -1.015625 -2.3125 -1.015625q-1.515625 0 -2.296875 1.0q-0.765625 0.984375 -0.765625 2.953125zm17.159058 3.734375l-0.078125 0q-1.0625 1.546875 -3.1875 1.546875q-2.0 0 -3.109375 -1.359375q-1.109375 -1.375 -1.109375 -3.890625q0 -2.515625 1.109375 -3.90625q1.125 -1.390625 3.109375 -1.390625q2.0625 0 3.171875 1.515625l0.125 0l-0.078125 -0.734375l-0.03125 -0.71875l0 -4.140625l1.546875 0l0 14.4375l-1.25 0l-0.21875 -1.359375zm-3.078125 0.25q1.578125 0 2.28125 -0.859375q0.71875 -0.859375 0.71875 -2.765625l0 -0.328125q0 -2.15625 -0.71875 -3.078125q-0.71875 -0.921875 -2.296875 -0.921875q-1.359375 0 -2.078125 1.0625q-0.71875 1.046875 -0.71875 2.96875q0 1.9375 0.71875 2.9375q0.71875 0.984375 2.09375 0.984375zm9.041809 -9.0625l0 6.59375q0 1.25 0.5625 1.859375q0.578125 0.609375 1.78125 0.609375q1.59375 0 2.328125 -0.859375q0.734375 -0.875 0.734375 -2.859375l0 -5.34375l1.546875 0l0 10.171875l-1.265625 0l-0.234375 -1.359375l-0.078125 0q-0.46875 0.75 -1.3125 1.15625q-0.84375 0.390625 -1.921875 0.390625q-1.84375 0 -2.78125 -0.875q-0.921875 -0.890625 -0.921875 -2.828125l0 -6.65625l1.5625 0zm14.075623 10.359375q-2.21875 0 -3.4375 -1.359375q-1.203125 -1.359375 -1.203125 -3.84375q0 -2.5625 1.234375 -3.953125q1.234375 -1.390625 3.5 -1.390625q0.734375 0 1.46875 0.171875q0.734375 0.15625 1.15625 0.359375l-0.484375 1.3125q-0.5 -0.203125 -1.109375 -0.328125q-0.609375 -0.140625 -1.0625 -0.140625q-3.109375 0 -3.109375 3.953125q0 1.875 0.75 2.875q0.765625 1.0 2.25 1.0q1.28125 0 2.609375 -0.546875l0 1.359375q-1.015625 0.53125 -2.5625 0.53125zm8.100525 -1.265625q0.40625 0 0.78125 -0.0625q0.390625 -0.0625 0.609375 -0.125l0 1.171875q-0.25 0.125 -0.75 0.203125q-0.484375 0.078125 -0.875 0.078125q-2.9375 0 -2.9375 -3.109375l0 -6.046875l-1.46875 0l0 -0.75l1.46875 -0.640625l0.640625 -2.171875l0.890625 0l0 2.359375l2.953125 0l0 1.203125l-2.953125 0l0 5.984375q0 0.921875 0.4375 1.421875q0.4375 0.484375 1.203125 0.484375z" fill-rule="nonzero"></path><path fill="#000000" d="m287.22293 440.2296q0 3.359375 -1.828125 5.140625q-1.8125 1.765625 -5.234375 1.765625l-3.765625 0l0 -13.5625l4.15625 0q3.171875 0 4.921875 1.75q1.75 1.75 1.75 4.90625zm-1.671875 0.046875q0 -2.65625 -1.328125 -4.0q-1.328125 -1.34375 -3.953125 -1.34375l-2.296875 0l0 10.84375l1.921875 0q2.828125 0 4.234375 -1.390625q1.421875 -1.390625 1.421875 -4.109375zm10.475494 6.859375l-0.3125 -1.453125l-0.078125 0q-0.75 0.96875 -1.515625 1.3125q-0.75 0.328125 -1.890625 0.328125q-1.5 0 -2.359375 -0.78125q-0.859375 -0.78125 -0.859375 -2.21875q0 -3.078125 4.921875 -3.234375l1.734375 -0.046875l0 -0.625q0 -1.203125 -0.515625 -1.765625q-0.515625 -0.578125 -1.65625 -0.578125q-1.265625 0 -2.875 0.78125l-0.46875 -1.1875q0.75 -0.40625 1.640625 -0.625q0.90625 -0.234375 1.796875 -0.234375q1.828125 0 2.703125 0.8125q0.875 0.796875 0.875 2.578125l0 6.9375l-1.140625 0zm-3.484375 -1.078125q1.4375 0 2.25 -0.78125q0.828125 -0.796875 0.828125 -2.21875l0 -0.921875l-1.53125 0.0625q-1.84375 0.0625 -2.65625 0.578125q-0.8125 0.5 -0.8125 1.5625q0 0.84375 0.5 1.28125q0.515625 0.4375 1.421875 0.4375zm10.891327 0q0.40625 0 0.78125 -0.0625q0.390625 -0.0625 0.609375 -0.125l0 1.171875q-0.25 0.125 -0.75 0.203125q-0.484375 0.078125 -0.875 0.078125q-2.9375 0 -2.9375 -3.109375l0 -6.046875l-1.46875 0l0 -0.75l1.46875 -0.640625l0.640625 -2.171875l0.890625 0l0 2.359375l2.953125 0l0 1.203125l-2.953125 0l0 5.984375q0 0.921875 0.4375 1.421875q0.4375 0.484375 1.203125 0.484375zm9.554932 1.078125l-0.3125 -1.453125l-0.078125 0q-0.75 0.96875 -1.515625 1.3125q-0.75 0.328125 -1.890625 0.328125q-1.5 0 -2.359375 -0.78125q-0.859375 -0.78125 -0.859375 -2.21875q0 -3.078125 4.921875 -3.234375l1.734375 -0.046875l0 -0.625q0 -1.203125 -0.515625 -1.765625q-0.515625 -0.578125 -1.65625 -0.578125q-1.265625 0 -2.875 0.78125l-0.46875 -1.1875q0.75 -0.40625 1.640625 -0.625q0.90625 -0.234375 1.796875 -0.234375q1.828125 0 2.703125 0.8125q0.875 0.796875 0.875 2.578125l0 6.9375l-1.140625 0zm-3.484375 -1.078125q1.4375 0 2.25 -0.78125q0.828125 -0.796875 0.828125 -2.21875l0 -0.921875l-1.53125 0.0625q-1.84375 0.0625 -2.65625 0.578125q-0.8125 0.5 -0.8125 1.5625q0 0.84375 0.5 1.28125q0.515625 0.4375 1.421875 0.4375zm12.328827 -9.25q2.015625 0 3.109375 1.375q1.109375 1.359375 1.109375 3.859375q0 2.5 -1.125 3.890625q-1.109375 1.390625 -3.09375 1.390625q-0.984375 0 -1.8125 -0.359375q-0.8125 -0.375 -1.375 -1.140625l-0.109375 0l-0.328125 1.3125l-1.09375 0l0 -14.4375l1.53125 0l0 3.515625q0 1.171875 -0.078125 2.109375l0.078125 0q1.078125 -1.515625 3.1875 -1.515625zm-0.21875 1.28125q-1.578125 0 -2.28125 0.90625q-0.6875 0.90625 -0.6875 3.046875q0 2.140625 0.71875 3.0625q0.71875 0.921875 2.28125 0.921875q1.421875 0 2.109375 -1.03125q0.703125 -1.03125 0.703125 -2.96875q0 -1.984375 -0.703125 -2.953125q-0.6875 -0.984375 -2.140625 -0.984375zm13.182434 9.046875l-0.3125 -1.453125l-0.078125 0q-0.75 0.96875 -1.515625 1.3125q-0.75 0.328125 -1.890625 0.328125q-1.5 0 -2.359375 -0.78125q-0.859375 -0.78125 -0.859375 -2.21875q0 -3.078125 4.921875 -3.234375l1.734375 -0.046875l0 -0.625q0 -1.203125 -0.515625 -1.765625q-0.515625 -0.578125 -1.65625 -0.578125q-1.265625 0 -2.875 0.78125l-0.46875 -1.1875q0.75 -0.40625 1.640625 -0.625q0.90625 -0.234375 1.796875 -0.234375q1.828125 0 2.703125 0.8125q0.875 0.796875 0.875 2.578125l0 6.9375l-1.140625 0zm-3.484375 -1.078125q1.4375 0 2.25 -0.78125q0.828125 -0.796875 0.828125 -2.21875l0 -0.921875l-1.53125 0.0625q-1.84375 0.0625 -2.65625 0.578125q-0.8125 0.5 -0.8125 1.5625q0 0.84375 0.5 1.28125q0.515625 0.4375 1.421875 0.4375zm14.156952 -1.703125q0 1.421875 -1.0625 2.203125q-1.046875 0.765625 -2.953125 0.765625q-2.03125 0 -3.15625 -0.640625l0 -1.4375q0.734375 0.375 1.5625 0.59375q0.84375 0.21875 1.625 0.21875q1.203125 0 1.84375 -0.390625q0.65625 -0.390625 0.65625 -1.171875q0 -0.59375 -0.515625 -1.015625q-0.515625 -0.421875 -2.0 -1.0q-1.421875 -0.53125 -2.03125 -0.921875q-0.59375 -0.390625 -0.890625 -0.890625q-0.28125 -0.515625 -0.28125 -1.203125q0 -1.25 1.0 -1.96875q1.015625 -0.71875 2.78125 -0.71875q1.640625 0 3.21875 0.671875l-0.546875 1.25q-1.53125 -0.625 -2.78125 -0.625q-1.09375 0 -1.65625 0.34375q-0.546875 0.34375 -0.546875 0.9375q0 0.421875 0.203125 0.703125q0.203125 0.28125 0.671875 0.546875q0.46875 0.265625 1.78125 0.75q1.8125 0.65625 2.4375 1.328125q0.640625 0.671875 0.640625 1.671875zm6.634369 2.96875q-2.25 0 -3.5625 -1.375q-1.296875 -1.375 -1.296875 -3.8125q0 -2.453125 1.203125 -3.90625q1.21875 -1.453125 3.265625 -1.453125q1.90625 0 3.015625 1.265625q1.125 1.25 1.125 3.3125l0 0.96875l-7.015625 0q0.046875 1.796875 0.90625 2.734375q0.859375 0.921875 2.421875 0.921875q1.640625 0 3.25 -0.6875l0 1.375q-0.8125 0.34375 -1.546875 0.5q-0.734375 0.15625 -1.765625 0.15625zm-0.40625 -9.25q-1.234375 0 -1.96875 0.796875q-0.71875 0.796875 -0.84375 2.203125l5.3125 0q0 -1.453125 -0.65625 -2.21875q-0.640625 -0.78125 -1.84375 -0.78125z" fill-rule="nonzero"></path><path fill="#89b77f" d="m288.31094 230.09756l129.00787 0l0 45.102356l-129.00787 0z" fill-rule="nonzero"></path><path stroke="#000000" stroke-width="1.0" stroke-linejoin="round" stroke-linecap="butt" d="m288.31094 230.09756l129.00787 0l0 45.102356l-129.00787 0z" fill-rule="nonzero"></path><path fill="#000000" d="m307.70157 259.56873l-1.6875 -4.3124847l-5.4375 0l-1.671875 4.3124847l-1.59375 0l5.359375 -13.624985l1.328125 0l5.34375 13.624985l-1.640625 0zm-2.1875 -5.7343597l-1.5625 -4.203125q-0.3125 -0.796875 -0.640625 -1.953125q-0.203125 0.890625 -0.578125 1.953125l-1.59375 4.203125l4.375 0zm14.071533 -3.875q0 2.0625 -1.40625 3.171875q-1.40625 1.109375 -4.03125 1.109375l-1.59375 0l0 5.3281097l-1.578125 0l0 -13.562485l3.515625 0q5.09375 0 5.09375 3.953125zm-7.03125 2.921875l1.421875 0q2.09375 0 3.03125 -0.671875q0.9375 -0.6875 0.9375 -2.171875q0 -1.34375 -0.890625 -2.0q-0.875 -0.671875 -2.734375 -0.671875l-1.765625 0l0 5.515625zm9.6539 6.6874847l0 -13.562485l1.578125 0l0 13.562485l-1.578125 0zm16.01651 -7.1093597l4.609375 0l0 6.5937347q-1.078125 0.34375 -2.1875 0.515625q-1.109375 0.1875 -2.578125 0.1875q-3.078125 0 -4.796875 -1.828125q-1.71875 -1.84375 -1.71875 -5.1406097q0 -2.109375 0.84375 -3.703125q0.859375 -1.59375 2.453125 -2.4375q1.59375 -0.84375 3.734375 -0.84375q2.171875 0 4.046875 0.8125l-0.609375 1.390625q-1.84375 -0.78125 -3.53125 -0.78125q-2.484375 0 -3.875 1.484375q-1.390625 1.46875 -1.390625 4.078125q0 2.75 1.34375 4.1718597q1.34375 1.40625 3.9375 1.40625q1.40625 0 2.75 -0.3125l0 -4.1874847l-3.03125 0l0 -1.40625zm13.644775 7.1093597l-0.3125 -1.453125l-0.078125 0q-0.75 0.96875 -1.515625 1.3125q-0.75 0.328125 -1.890625 0.328125q-1.5 0 -2.359375 -0.78125q-0.859375 -0.78125 -0.859375 -2.21875q0 -3.0781097 4.921875 -3.2343597l1.734375 -0.046875l0 -0.625q0 -1.203125 -0.515625 -1.765625q-0.515625 -0.578125 -1.65625 -0.578125q-1.265625 0 -2.875 0.78125l-0.46875 -1.1875q0.75 -0.40625 1.640625 -0.625q0.90625 -0.234375 1.796875 -0.234375q1.828125 0 2.703125 0.8125q0.875 0.796875 0.875 2.578125l0 6.9374847l-1.140625 0zm-3.484375 -1.078125q1.4375 0 2.25 -0.78125q0.828125 -0.796875 0.828125 -2.2187347l0 -0.921875l-1.53125 0.0625q-1.84375 0.0625 -2.65625 0.578125q-0.8125 0.5 -0.8125 1.5624847q0 0.84375 0.5 1.28125q0.515625 0.4375 1.421875 0.4375zm10.891327 0q0.40625 0 0.78125 -0.0625q0.390625 -0.0625 0.609375 -0.125l0 1.171875q-0.25 0.125 -0.75 0.203125q-0.484375 0.078125 -0.875 0.078125q-2.9375 0 -2.9375 -3.109375l0 -6.0468597l-1.46875 0l0 -0.75l1.46875 -0.640625l0.640625 -2.171875l0.890625 0l0 2.359375l2.953125 0l0 1.203125l-2.953125 0l0 5.9843597q0 0.921875 0.4375 1.421875q0.4375 0.484375 1.203125 0.484375zm7.5861816 1.265625q-2.25 0 -3.5625 -1.375q-1.296875 -1.375 -1.296875 -3.8124847q0 -2.453125 1.203125 -3.90625q1.21875 -1.453125 3.265625 -1.453125q1.90625 0 3.015625 1.265625q1.125 1.25 1.125 3.3125l0 0.96875l-7.015625 0q0.046875 1.7968597 0.90625 2.7343597q0.859375 0.921875 2.421875 0.921875q1.640625 0 3.25 -0.6875l0 1.375q-0.8125 0.34375 -1.546875 0.5q-0.734375 0.15625 -1.765625 0.15625zm-0.40625 -9.249985q-1.234375 0 -1.96875 0.796875q-0.71875 0.796875 -0.84375 2.203125l5.3125 0q0 -1.453125 -0.65625 -2.21875q-0.640625 -0.78125 -1.84375 -0.78125zm14.888672 9.062485l-1.859375 -5.9687347q-0.1875 -0.546875 -0.671875 -2.484375l-0.0625 0q-0.375 1.625 -0.65625 2.5l-1.921875 5.9531097l-1.78125 0l-2.765625 -10.17186l1.609375 0q0.984375 3.828125 1.5 5.84375q0.515625 1.9999847 0.59375 2.6874847l0.0625 0q0.109375 -0.515625 0.328125 -1.359375q0.234375 -0.84373474 0.40625 -1.3281097l1.859375 -5.84375l1.671875 0l1.8125 5.84375q0.515625 1.5937347 0.703125 2.6718597l0.078125 0q0.03125 -0.328125 0.1875 -1.015625q0.171875 -0.703125 1.953125 -7.4999847l1.59375 0l-2.8125 10.17186l-1.828125 0zm12.464569 0l-0.3125 -1.453125l-0.078125 0q-0.75 0.96875 -1.515625 1.3125q-0.75 0.328125 -1.890625 0.328125q-1.5 0 -2.359375 -0.78125q-0.859375 -0.78125 -0.859375 -2.21875q0 -3.0781097 4.921875 -3.2343597l1.734375 -0.046875l0 -0.625q0 -1.203125 -0.515625 -1.765625q-0.515625 -0.578125 -1.65625 -0.578125q-1.265625 0 -2.875 0.78125l-0.46875 -1.1875q0.75 -0.40625 1.640625 -0.625q0.90625 -0.234375 1.796875 -0.234375q1.828125 0 2.703125 0.8125q0.875 0.796875 0.875 2.578125l0 6.9374847l-1.140625 0zm-3.484375 -1.078125q1.4375 0 2.25 -0.78125q0.828125 -0.796875 0.828125 -2.2187347l0 -0.921875l-1.53125 0.0625q-1.84375 0.0625 -2.65625 0.578125q-0.8125 0.5 -0.8125 1.5624847q0 0.84375 0.5 1.28125q0.515625 0.4375 1.421875 0.4375zm5.985077 -9.093735l1.65625 0l2.21875 5.796875q0.734375 1.9843597 0.921875 2.8749847l0.0625 0q0.125 -0.46875 0.5 -1.609375q0.390625 -1.1562347 2.53125 -7.0624847l1.65625 0l-4.375 11.57811q-0.65625 1.71875 -1.53125 2.4375q-0.859375 0.71875 -2.109375 0.71875q-0.71875 0 -1.390625 -0.15625l0 -1.234375q0.5 0.109375 1.140625 0.109375q1.578125 0 2.25 -1.78125l0.578125 -1.4375l-4.109375 -10.23436z" fill-rule="nonzero"></path><path fill="#89b77f" d="m487.15726 180.62862l95.02121 0l0 0c12.448059 0 22.539185 13.4995575 22.539185 30.152115c0 16.652557 -10.0911255 30.15213 -22.539185 30.15213l-95.02121 0l0 0c-12.448029 0 -22.539154 -13.499573 -22.539154 -30.15213c0 -16.652557 10.0911255 -30.152115 22.539154 -30.152115z" fill-rule="nonzero"></path><path stroke="#000000" stroke-width="1.0" stroke-linejoin="round" stroke-linecap="butt" d="m487.15726 180.62862l95.02121 0l0 0c12.448059 0 22.539185 13.4995575 22.539185 30.152115c0 16.652557 -10.0911255 30.15213 -22.539185 30.15213l-95.02121 0l0 0c-12.448029 0 -22.539154 -13.499573 -22.539154 -30.15213c0 -16.652557 10.0911255 -30.152115 22.539154 -30.152115z" fill-rule="nonzero"></path><path fill="#000000" d="m490.6897 197.09135q0 2.0625 -1.40625 3.171875q-1.40625 1.109375 -4.03125 1.109375l-1.59375 0l0 5.328125l-1.578125 0l0 -13.5625l3.515625 0q5.09375 0 5.09375 3.953125zm-7.03125 2.921875l1.421875 0q2.09375 0 3.03125 -0.671875q0.9375 -0.6875 0.9375 -2.171875q0 -1.34375 -0.890625 -2.0q-0.875 -0.671875 -2.734375 -0.671875l-1.765625 0l0 5.515625zm10.87265 -3.484375l0 6.59375q0 1.25 0.5625 1.859375q0.578125 0.609375 1.78125 0.609375q1.59375 0 2.328125 -0.859375q0.734375 -0.875 0.734375 -2.859375l0 -5.34375l1.546875 0l0 10.171875l-1.265625 0l-0.234375 -1.359375l-0.078125 0q-0.46875 0.75 -1.3125 1.15625q-0.84375 0.390625 -1.921875 0.390625q-1.84375 0 -2.78125 -0.875q-0.921875 -0.890625 -0.921875 -2.828125l0 -6.65625l1.5625 0zm14.638123 -0.1875q0.6875 0 1.21875 0.109375l-0.203125 1.4375q-0.640625 -0.140625 -1.125 -0.140625q-1.234375 0 -2.109375 1.0q-0.875 1.0 -0.875 2.5l0 5.453125l-1.53125 0l0 -10.171875l1.265625 0l0.171875 1.890625l0.078125 0q0.5625 -1.0 1.359375 -1.53125q0.796875 -0.546875 1.75 -0.546875zm7.05307 10.546875q-2.21875 0 -3.4375 -1.359375q-1.2031555 -1.359375 -1.2031555 -3.84375q0 -2.5625 1.2344055 -3.953125q1.234375 -1.390625 3.5 -1.390625q0.734375 0 1.46875 0.171875q0.734375 0.15625 1.15625 0.359375l-0.484375 1.3125q-0.5 -0.203125 -1.109375 -0.328125q-0.609375 -0.140625 -1.0625 -0.140625q-3.109375 0 -3.109375 3.953125q0 1.875 0.75 2.875q0.765625 1.0 2.25 1.0q1.28125 0 2.609375 -0.546875l0 1.359375q-1.015625 0.53125 -2.5625 0.53125zm11.772339 -0.1875l0 -6.578125q0 -1.25 -0.578125 -1.859375q-0.5625 -0.609375 -1.765625 -0.609375q-1.609375 0 -2.34375 0.875q-0.734375 0.875 -0.734375 2.859375l0 5.3125l-1.53125 0l0 -14.4375l1.53125 0l0 4.375q0 0.78125 -0.078125 1.296875l0.09375 0q0.453125 -0.71875 1.296875 -1.140625q0.84375 -0.421875 1.921875 -0.421875q1.859375 0 2.78125 0.890625q0.9375 0.875 0.9375 2.796875l0 6.640625l-1.53125 0zm10.747559 0l-0.3125 -1.453125l-0.078125 0q-0.75 0.96875 -1.515625 1.3125q-0.75 0.328125 -1.890625 0.328125q-1.5 0 -2.359375 -0.78125q-0.859375 -0.78125 -0.859375 -2.21875q0 -3.078125 4.921875 -3.234375l1.734375 -0.046875l0 -0.625q0 -1.203125 -0.515625 -1.765625q-0.515625 -0.578125 -1.65625 -0.578125q-1.265625 0 -2.875 0.78125l-0.46875 -1.1875q0.75 -0.40625 1.640625 -0.625q0.90625 -0.234375 1.796875 -0.234375q1.828125 0 2.703125 0.8125q0.875 0.796875 0.875 2.578125l0 6.9375l-1.140625 0zm-3.484375 -1.078125q1.4375 0 2.25 -0.78125q0.828125 -0.796875 0.828125 -2.21875l0 -0.921875l-1.53125 0.0625q-1.84375 0.0625 -2.65625 0.578125q-0.8125 0.5 -0.8125 1.5625q0 0.84375 0.5 1.28125q0.515625 0.4375 1.421875 0.4375zm14.156921 -1.703125q0 1.421875 -1.0625 2.203125q-1.046875 0.765625 -2.953125 0.765625q-2.03125 0 -3.15625 -0.640625l0 -1.4375q0.734375 0.375 1.5625 0.59375q0.84375 0.21875 1.625 0.21875q1.203125 0 1.84375 -0.390625q0.65625 -0.390625 0.65625 -1.171875q0 -0.59375 -0.515625 -1.015625q-0.515625 -0.421875 -2.0 -1.0q-1.421875 -0.53125 -2.03125 -0.921875q-0.59375 -0.390625 -0.890625 -0.890625q-0.28125 -0.515625 -0.28125 -1.203125q0 -1.25 1.0 -1.96875q1.015625 -0.71875 2.78125 -0.71875q1.640625 0 3.21875 0.671875l-0.546875 1.25q-1.53125 -0.625 -2.78125 -0.625q-1.09375 0 -1.65625 0.34375q-0.546875 0.34375 -0.546875 0.9375q0 0.421875 0.203125 0.703125q0.203125 0.28125 0.671875 0.546875q0.46875 0.265625 1.78125 0.75q1.8125 0.65625 2.4375 1.328125q0.640625 0.671875 0.640625 1.671875zm6.6343994 2.96875q-2.25 0 -3.5625 -1.375q-1.296875 -1.375 -1.296875 -3.8125q0 -2.453125 1.203125 -3.90625q1.21875 -1.453125 3.265625 -1.453125q1.90625 0 3.015625 1.265625q1.125 1.25 1.125 3.3125l0 0.96875l-7.015625 0q0.046875 1.796875 0.90625 2.734375q0.859375 0.921875 2.421875 0.921875q1.640625 0 3.25 -0.6875l0 1.375q-0.8125 0.34375 -1.546875 0.5q-0.734375 0.15625 -1.765625 0.15625zm-0.40625 -9.25q-1.234375 0 -1.96875 0.796875q-0.71875 0.796875 -0.84375 2.203125l5.3125 0q0 -1.453125 -0.65625 -2.21875q-0.640625 -0.78125 -1.84375 -0.78125z" fill-rule="nonzero"></path><path fill="#000000" d="m483.65845 228.70073l-1.578125 0l0 -13.5625l7.5625 0l0 1.40625l-5.984375 0l0 4.953125l5.625 0l0 1.40625l-5.625 0l0 5.796875zm9.269379 -10.171875l0 6.59375q0 1.25 0.5625 1.859375q0.578125 0.609375 1.78125 0.609375q1.59375 0 2.328125 -0.859375q0.734375 -0.875 0.734375 -2.859375l0 -5.34375l1.546875 0l0 10.171875l-1.265625 0l-0.234375 -1.359375l-0.078125 0q-0.46875 0.75 -1.3125 1.15625q-0.84375 0.390625 -1.921875 0.390625q-1.84375 0 -2.78125 -0.875q-0.921875 -0.890625 -0.921875 -2.828125l0 -6.65625l1.5625 0zm16.966248 10.171875l0 -6.578125q0 -1.25 -0.578125 -1.859375q-0.5625 -0.609375 -1.765625 -0.609375q-1.59375 0 -2.34375 0.875q-0.734375 0.859375 -0.734375 2.84375l0 5.328125l-1.53125 0l0 -10.171875l1.25 0l0.25 1.390625l0.0625 0q0.484375 -0.75 1.328125 -1.15625q0.859375 -0.421875 1.90625 -0.421875q1.84375 0 2.765625 0.890625q0.921875 0.890625 0.921875 2.828125l0 6.640625l-1.53125 0zm8.560028 0.1875q-2.21875 0 -3.4375 -1.359375q-1.203125 -1.359375 -1.203125 -3.84375q0 -2.5625 1.234375 -3.953125q1.234375 -1.390625 3.5 -1.390625q0.734375 0 1.46875 0.171875q0.734375 0.15625 1.15625 0.359375l-0.484375 1.3125q-0.5 -0.203125 -1.109375 -0.328125q-0.609375 -0.140625 -1.0625 -0.140625q-3.109375 0 -3.109375 3.953125q0 1.875 0.75 2.875q0.765625 1.0 2.25 1.0q1.28125 0 2.609375 -0.546875l0 1.359375q-1.015625 0.53125 -2.5625 0.53125zm8.100525 -1.265625q0.40625 0 0.78125 -0.0625q0.390625 -0.0625 0.609375 -0.125l0 1.171875q-0.25 0.125 -0.75 0.203125q-0.484375 0.078125 -0.875 0.078125q-2.9375 0 -2.9375 -3.109375l0 -6.046875l-1.46875 0l0 -0.75l1.46875 -0.640625l0.640625 -2.171875l0.890625 0l0 2.359375l2.953125 0l0 1.203125l-2.953125 0l0 5.984375q0 0.921875 0.4375 1.421875q0.4375 0.484375 1.203125 0.484375zm4.8361206 1.078125l-1.53125 0l0 -10.171875l1.53125 0l0 10.171875zm-1.671875 -12.921875q0 -0.53125 0.25 -0.765625q0.265625 -0.25 0.65625 -0.25q0.375 0 0.640625 0.25q0.28125 0.25 0.28125 0.765625q0 0.515625 -0.28125 0.78125q-0.265625 0.25 -0.640625 0.25q-0.390625 0 -0.65625 -0.25q-0.25 -0.265625 -0.25 -0.78125zm13.625 7.828125q0 2.484375 -1.25 3.890625q-1.25 1.390625 -3.453125 1.390625q-1.375 0 -2.4375 -0.640625q-1.046875 -0.640625 -1.625 -1.828125q-0.578125 -1.203125 -0.578125 -2.8125q0 -2.484375 1.234375 -3.875q1.25 -1.390625 3.46875 -1.390625q2.125 0 3.375 1.421875q1.265625 1.421875 1.265625 3.84375zm-7.75 0q0 1.953125 0.78125 2.96875q0.78125 1.015625 2.296875 1.015625q1.515625 0 2.296875 -1.015625q0.78125 -1.015625 0.78125 -2.96875q0 -1.9375 -0.78125 -2.9375q-0.78125 -1.015625 -2.3125 -1.015625q-1.515625 0 -2.296875 1.0q-0.765625 0.984375 -0.765625 2.953125zm17.205933 5.09375l0 -6.578125q0 -1.25 -0.578125 -1.859375q-0.5625 -0.609375 -1.765625 -0.609375q-1.59375 0 -2.34375 0.875q-0.734375 0.859375 -0.734375 2.84375l0 5.328125l-1.53125 0l0 -10.171875l1.25 0l0.25 1.390625l0.0625 0q0.484375 -0.75 1.328125 -1.15625q0.859375 -0.421875 1.90625 -0.421875q1.84375 0 2.765625 0.890625q0.921875 0.890625 0.921875 2.828125l0 6.640625l-1.53125 0z" fill-rule="nonzero"></path><path fill="#89b77f" d="m487.15726 264.36353l95.02121 0l0 0c12.448059 0 22.539185 13.499573 22.539185 30.15213c0 16.652557 -10.0911255 30.1521 -22.539185 30.1521l-95.02121 0l0 0c-12.448029 0 -22.539154 -13.499542 -22.539154 -30.1521c0 -16.652557 10.0911255 -30.15213 22.539154 -30.15213z" fill-rule="nonzero"></path><path stroke="#000000" stroke-width="1.0" stroke-linejoin="round" stroke-linecap="butt" d="m487.15726 264.36353l95.02121 0l0 0c12.448059 0 22.539185 13.499573 22.539185 30.15213c0 16.652557 -10.0911255 30.1521 -22.539185 30.1521l-95.02121 0l0 0c-12.448029 0 -22.539154 -13.499542 -22.539154 -30.1521c0 -16.652557 10.0911255 -30.15213 22.539154 -30.15213z" fill-rule="nonzero"></path><path fill="#000000" d="m489.73657 286.82626q0 1.796875 -1.296875 2.796875q-1.296875 1.0 -3.53125 1.0q-2.40625 0 -3.703125 -0.625l0 -1.515625q0.828125 0.34375 1.8125 0.546875q0.984375 0.203125 1.953125 0.203125q1.578125 0 2.375 -0.59375q0.796875 -0.59375 0.796875 -1.65625q0 -0.71875 -0.28125 -1.15625q-0.28125 -0.453125 -0.953125 -0.828125q-0.65625 -0.390625 -2.015625 -0.875q-1.890625 -0.671875 -2.703125 -1.59375q-0.8125 -0.9375 -0.8125 -2.421875q0 -1.578125 1.171875 -2.5q1.1875 -0.9375 3.125 -0.9375q2.03125 0 3.71875 0.75l-0.484375 1.375q-1.6875 -0.703125 -3.265625 -0.703125q-1.25 0 -1.96875 0.546875q-0.703125 0.53125 -0.703125 1.484375q0 0.703125 0.265625 1.15625q0.265625 0.4375 0.875 0.828125q0.625 0.375 1.890625 0.828125q2.125 0.75 2.921875 1.625q0.8125 0.875 0.8125 2.265625zm6.6453247 3.796875q-2.25 0 -3.5625 -1.375q-1.296875 -1.375 -1.296875 -3.8125q0 -2.453125 1.203125 -3.90625q1.21875 -1.453125 3.265625 -1.453125q1.90625 0 3.015625 1.265625q1.125 1.25 1.125 3.3125l0 0.96875l-7.015625 0q0.046875 1.796875 0.90625 2.734375q0.859375 0.921875 2.421875 0.921875q1.640625 0 3.25 -0.6875l0 1.375q-0.8125 0.34375 -1.546875 0.5q-0.734375 0.15625 -1.765625 0.15625zm-0.40625 -9.25q-1.234375 0 -1.96875 0.796875q-0.71875 0.796875 -0.84375 2.203125l5.3125 0q0 -1.453125 -0.65625 -2.21875q-0.640625 -0.78125 -1.84375 -0.78125zm12.841827 9.0625l-0.3125 -1.453125l-0.078125 0q-0.75 0.96875 -1.515625 1.3125q-0.75 0.328125 -1.890625 0.328125q-1.5 0 -2.359375 -0.78125q-0.859375 -0.78125 -0.859375 -2.21875q0 -3.078125 4.921875 -3.234375l1.734375 -0.046875l0 -0.625q0 -1.203125 -0.515625 -1.765625q-0.515625 -0.578125 -1.65625 -0.578125q-1.265625 0 -2.875 0.78125l-0.46875 -1.1875q0.75 -0.40625 1.640625 -0.625q0.90625 -0.234375 1.796875 -0.234375q1.828125 0 2.703125 0.8125q0.875 0.796875 0.875 2.578125l0 6.9375l-1.140625 0zm-3.484375 -1.078125q1.4375 0 2.25 -0.78125q0.828125 -0.796875 0.828125 -2.21875l0 -0.921875l-1.53125 0.0625q-1.84375 0.0625 -2.65625 0.578125q-0.8125 0.5 -0.8125 1.5625q0 0.84375 0.5 1.28125q0.515625 0.4375 1.421875 0.4375zm12.235077 -9.28125q0.6875 0 1.21875 0.109375l-0.203125 1.4375q-0.640625 -0.140625 -1.125 -0.140625q-1.234375 0 -2.109375 1.0q-0.875 1.0 -0.875 2.5l0 5.453125l-1.53125 0l0 -10.171875l1.265625 0l0.171875 1.890625l0.078125 0q0.5625 -1.0 1.359375 -1.53125q0.796875 -0.546875 1.75 -0.546875zm7.0530396 10.546875q-2.21875 0 -3.4375 -1.359375q-1.203125 -1.359375 -1.203125 -3.84375q0 -2.5625 1.234375 -3.953125q1.234375 -1.390625 3.5 -1.390625q0.734375 0 1.46875 0.171875q0.734375 0.15625 1.15625 0.359375l-0.484375 1.3125q-0.5 -0.203125 -1.109375 -0.328125q-0.609375 -0.140625 -1.0625 -0.140625q-3.109375 0 -3.109375 3.953125q0 1.875 0.75 2.875q0.765625 1.0 2.25 1.0q1.28125 0 2.609375 -0.546875l0 1.359375q-1.015625 0.53125 -2.5625 0.53125zm11.7724 -0.1875l0 -6.578125q0 -1.25 -0.578125 -1.859375q-0.5625 -0.609375 -1.765625 -0.609375q-1.609375 0 -2.34375 0.875q-0.734375 0.875 -0.734375 2.859375l0 5.3125l-1.53125 0l0 -14.4375l1.53125 0l0 4.375q0 0.78125 -0.078125 1.296875l0.09375 0q0.453125 -0.71875 1.296875 -1.140625q0.84375 -0.421875 1.921875 -0.421875q1.859375 0 2.78125 0.890625q0.9375 0.875 0.9375 2.796875l0 6.640625l-1.53125 0z" fill-rule="nonzero"></path><path fill="#000000" d="m483.65845 312.43564l-1.578125 0l0 -13.5625l7.5625 0l0 1.40625l-5.984375 0l0 4.953125l5.625 0l0 1.40625l-5.625 0l0 5.796875zm9.269379 -10.171875l0 6.59375q0 1.25 0.5625 1.859375q0.578125 0.609375 1.78125 0.609375q1.59375 0 2.328125 -0.859375q0.734375 -0.875 0.734375 -2.859375l0 -5.34375l1.546875 0l0 10.171875l-1.265625 0l-0.234375 -1.359375l-0.078125 0q-0.46875 0.75 -1.3125 1.15625q-0.84375 0.390625 -1.921875 0.390625q-1.84375 0 -2.78125 -0.875q-0.921875 -0.890625 -0.921875 -2.828125l0 -6.65625l1.5625 0zm16.966248 10.171875l0 -6.578125q0 -1.25 -0.578125 -1.859375q-0.5625 -0.609375 -1.765625 -0.609375q-1.59375 0 -2.34375 0.875q-0.734375 0.859375 -0.734375 2.84375l0 5.328125l-1.53125 0l0 -10.171875l1.25 0l0.25 1.390625l0.0625 0q0.484375 -0.75 1.328125 -1.15625q0.859375 -0.421875 1.90625 -0.421875q1.84375 0 2.765625 0.890625q0.921875 0.890625 0.921875 2.828125l0 6.640625l-1.53125 0zm8.560028 0.1875q-2.21875 0 -3.4375 -1.359375q-1.203125 -1.359375 -1.203125 -3.84375q0 -2.5625 1.234375 -3.953125q1.234375 -1.390625 3.5 -1.390625q0.734375 0 1.46875 0.171875q0.734375 0.15625 1.15625 0.359375l-0.484375 1.3125q-0.5 -0.203125 -1.109375 -0.328125q-0.609375 -0.140625 -1.0625 -0.140625q-3.109375 0 -3.109375 3.953125q0 1.875 0.75 2.875q0.765625 1.0 2.25 1.0q1.28125 0 2.609375 -0.546875l0 1.359375q-1.015625 0.53125 -2.5625 0.53125zm8.100525 -1.265625q0.40625 0 0.78125 -0.0625q0.390625 -0.0625 0.609375 -0.125l0 1.171875q-0.25 0.125 -0.75 0.203125q-0.484375 0.078125 -0.875 0.078125q-2.9375 0 -2.9375 -3.109375l0 -6.046875l-1.46875 0l0 -0.75l1.46875 -0.640625l0.640625 -2.171875l0.890625 0l0 2.359375l2.953125 0l0 1.203125l-2.953125 0l0 5.984375q0 0.921875 0.4375 1.421875q0.4375 0.484375 1.203125 0.484375zm4.8361206 1.078125l-1.53125 0l0 -10.171875l1.53125 0l0 10.171875zm-1.671875 -12.921875q0 -0.53125 0.25 -0.765625q0.265625 -0.25 0.65625 -0.25q0.375 0 0.640625 0.25q0.28125 0.25 0.28125 0.765625q0 0.515625 -0.28125 0.78125q-0.265625 0.25 -0.640625 0.25q-0.390625 0 -0.65625 -0.25q-0.25 -0.265625 -0.25 -0.78125zm13.625 7.828125q0 2.484375 -1.25 3.890625q-1.25 1.390625 -3.453125 1.390625q-1.375 0 -2.4375 -0.640625q-1.046875 -0.640625 -1.625 -1.828125q-0.578125 -1.203125 -0.578125 -2.8125q0 -2.484375 1.234375 -3.875q1.25 -1.390625 3.46875 -1.390625q2.125 0 3.375 1.421875q1.265625 1.421875 1.265625 3.84375zm-7.75 0q0 1.953125 0.78125 2.96875q0.78125 1.015625 2.296875 1.015625q1.515625 0 2.296875 -1.015625q0.78125 -1.015625 0.78125 -2.96875q0 -1.9375 -0.78125 -2.9375q-0.78125 -1.015625 -2.3125 -1.015625q-1.515625 0 -2.296875 1.0q-0.765625 0.984375 -0.765625 2.953125zm17.205933 5.09375l0 -6.578125q0 -1.25 -0.578125 -1.859375q-0.5625 -0.609375 -1.765625 -0.609375q-1.59375 0 -2.34375 0.875q-0.734375 0.859375 -0.734375 2.84375l0 5.328125l-1.53125 0l0 -10.171875l1.25 0l0.25 1.390625l0.0625 0q0.484375 -0.75 1.328125 -1.15625q0.859375 -0.421875 1.90625 -0.421875q1.84375 0 2.765625 0.890625q0.921875 0.890625 0.921875 2.828125l0 6.640625l-1.53125 0z" fill-rule="nonzero"></path><path fill="#000000" fill-opacity="0.0" d="m160.77428 252.6483l127.52757 0" fill-rule="nonzero"></path><path stroke="#000000" stroke-width="2.0" stroke-linejoin="round" stroke-linecap="butt" d="m160.77428 252.6483l115.52757 0" fill-rule="evenodd"></path><path fill="#000000" stroke="#000000" stroke-width="2.0" stroke-linecap="butt" d="m276.30185 255.95175l9.076172 -3.3034515l-9.076172 -3.3034668z" fill-rule="evenodd"></path><path fill="#000000" fill-opacity="0.0" d="m417.31882 252.64874c11.82489 0 17.73639 -10.464569 23.64975 -20.929138c5.913391 -10.464569 11.828674 -20.929138 23.657349 -20.929138" fill-rule="nonzero"></path><path stroke="#000000" stroke-width="2.0" stroke-linejoin="round" stroke-linecap="butt" d="m417.31882 252.64874c11.82489 0 17.73639 -10.464569 23.64978 -20.929138c2.9566956 -5.2322693 5.9138794 -10.464554 9.610443 -14.388779c0.46206665 -0.4905243 0.93566895 -0.9606018 1.4223022 -1.4076996c0.24328613 -0.22354126 0.48986816 -0.44136047 0.73983765 -0.6530762c0.125 -0.10586548 0.2508545 -0.21022034 0.377594 -0.31300354l0.197052 -0.15629578" fill-rule="evenodd"></path><path fill="#000000" stroke="#000000" stroke-width="2.0" stroke-linecap="butt" d="m454.4198 217.91428l7.450409 -6.146698l-9.658356 -0.08036804z" fill-rule="evenodd"></path><path fill="#000000" fill-opacity="0.0" d="m417.31882 252.64874c11.82489 0 17.73639 10.464569 23.64975 20.929138c5.913391 10.464569 11.828674 20.929138 23.657349 20.929138" fill-rule="nonzero"></path><path stroke="#000000" stroke-width="2.0" stroke-linejoin="round" stroke-linecap="butt" d="m417.31882 252.64874c11.82489 0 17.73639 10.464569 23.64978 20.929138c2.9566956 5.2322693 5.9138794 10.464569 9.610443 14.388763c0.46206665 0.49053955 0.93566895 0.9606323 1.4223022 1.4077148c0.24328613 0.22354126 0.48986816 0.4413452 0.73983765 0.6530762c0.125 0.10586548 0.2508545 0.2102356 0.377594 0.3130188l0.197052 0.15628052" fill-rule="evenodd"></path><path fill="#000000" stroke="#000000" stroke-width="2.0" stroke-linecap="butt" d="m452.21185 293.6103l9.658356 -0.0803833l-7.450409 -6.146698z" fill-rule="evenodd"></path><path fill="#000000" fill-opacity="0.0" d="m604.71655 210.71916c18.834656 0 28.251953 0.01574707 37.66925 0.03149414c9.417358 0.01574707 18.834656 0.03149414 37.66931 0.03149414" fill-rule="nonzero"></path><path stroke="#000000" stroke-width="2.0" stroke-linejoin="round" stroke-linecap="butt" d="m604.71655 210.71916c18.834656 0 28.251953 0.01574707 37.66925 0.03149414c4.708679 0.007873535 9.417358 0.01574707 15.303162 0.021652222c2.9429321 0.002960205 6.1801147 0.00541687 9.858765 0.0071411133l0.50738525 9.1552734E-5" fill-rule="evenodd"></path><path fill="#000000" stroke="#000000" stroke-width="2.0" stroke-linecap="butt" d="m668.0544 214.08302l9.076904 -3.3014984l-9.075439 -3.3054352z" fill-rule="evenodd"></path><path fill="#000000" fill-opacity="0.0" d="m534.66785 324.66776c0 48.015747 -66.48816 96.031525 -132.97635 96.031525" fill-rule="nonzero"></path><path stroke="#000000" stroke-width="2.0" stroke-linejoin="round" stroke-linecap="butt" d="m534.66785 324.6678c0 24.007874 -16.62201 48.015747 -41.555115 66.02164c-12.466522 9.00296 -27.010834 16.505432 -42.593994 21.757141c-7.7915955 2.6258545 -15.8428955 4.689026 -24.024078 6.095764c-4.0905457 0.7033386 -8.213623 1.2425842 -12.352875 1.605957l-0.46121216 0.03930664" fill-rule="evenodd"></path><path fill="#000000" stroke="#000000" stroke-width="2.0" stroke-linecap="butt" d="m413.5397 416.88712l-8.9270935 3.6874695l9.208832 2.9134521z" fill-rule="evenodd"></path><path fill="#000000" fill-opacity="0.0" d="m138.90645 289.7185c0 65.49606 63.3071 130.99213 126.61418 130.99213" fill-rule="nonzero"></path><path stroke="#000000" stroke-width="2.0" stroke-linejoin="round" stroke-linecap="butt" d="m138.90645 289.7185c0 32.748016 15.826782 65.49606 39.56694 90.0571c11.870071 12.280487 25.718506 22.514252 40.55609 29.677887c7.418808 3.5818176 15.0849 6.3960876 22.874634 8.314911c1.9474335 0.4797058 3.9026031 0.9034729 5.863556 1.2692566c0.980484 0.18289185 1.9624176 0.35128784 2.9455414 0.50494385c0.49157715 0.076812744 0.98342896 0.14993286 1.4755859 0.21936035c0.24607849 0.03475952 0.49220276 0.06854248 0.7384033 0.101379395l0.6179657 0.08010864" fill-rule="evenodd"></path><path fill="#000000" stroke="#000000" stroke-width="2.0" stroke-linecap="butt" d="m253.33398 423.24014l9.268829 -2.7164307l-8.846436 -3.8769836z" fill-rule="evenodd"></path><path fill="#000000" fill-opacity="0.0" d="m138.90645 215.57808c0 -66.81889 51.433075 -133.63779 102.86615 -133.63779" fill-rule="nonzero"></path><path stroke="#000000" stroke-width="2.0" stroke-linejoin="round" stroke-linecap="butt" d="m138.90645 215.57808c0 -33.40944 12.858276 -66.81889 32.145676 -91.87598c9.643707 -12.528549 20.894684 -22.969002 32.94931 -30.277313c6.027313 -3.6541595 12.255539 -6.525284 18.584213 -8.482872c1.5821686 -0.48939514 3.1706238 -0.9216919 4.7637787 -1.2948608c0.7965698 -0.18657684 1.5943298 -0.35837555 2.3930664 -0.51514435l0.08773804 -0.016792297" fill-rule="evenodd"></path><path fill="#000000" stroke="#000000" stroke-width="2.0" stroke-linecap="butt" d="m230.15366 86.40271l8.709183 -4.176178l-9.356003 -2.3990097z" fill-rule="evenodd"></path><path fill="#ef5ba1" d="m160.7664 73.80315l8.501007 -4.0626373l-4.3678436 -6.401928l10.3563385 -0.6347809l0.93569946 -7.025814l9.436691 2.963169l5.988495 -5.7671394l5.98851 5.7671394l9.436691 -2.963169l0.93569946 7.025814l10.3563385 0.6347809l-4.3678436 6.401928l8.501007 4.0626373l-8.501007 4.062645l4.3678436 6.401924l-10.3563385 0.6347809l-0.93569946 7.025818l-9.436691 -2.963173l-5.98851 5.7671432l-5.988495 -5.7671432l-9.436691 2.963173l-0.93569946 -7.025818l-10.3563385 -0.6347809l4.3678436 -6.401924z" fill-rule="nonzero"></path><path stroke="#000000" stroke-width="1.0" stroke-linejoin="round" stroke-linecap="butt" d="m160.7664 73.80315l8.501007 -4.0626373l-4.3678436 -6.401928l10.3563385 -0.6347809l0.93569946 -7.025814l9.436691 2.963169l5.988495 -5.7671394l5.98851 5.7671394l9.436691 -2.963169l0.93569946 7.025814l10.3563385 0.6347809l-4.3678436 6.401928l8.501007 4.0626373l-8.501007 4.062645l4.3678436 6.401924l-10.3563385 0.6347809l-0.93569946 7.025818l-9.436691 -2.963173l-5.98851 5.7671432l-5.988495 -5.7671432l-9.436691 2.963173l-0.93569946 -7.025818l-10.3563385 -0.6347809l4.3678436 -6.401924z" fill-rule="nonzero"></path><path fill="#ffffff" d="m193.91331 80.72315l-2.609375 0l0 -9.828125q-1.4375 1.34375 -3.375 1.984375l0 -2.375q1.03125 -0.328125 2.21875 -1.25q1.203125 -0.9375 1.640625 -2.1875l2.125 0l0 13.65625z" fill-rule="nonzero"></path><path fill="#ef5ba1" d="m184.59055 428.89502l8.501007 -4.0626526l-4.3678284 -6.4019165l10.356323 -0.63479614l0.93569946 -7.025818l9.436691 2.9631958l5.98851 -5.767151l5.988495 5.767151l9.436691 -2.9631958l0.93569946 7.025818l10.3563385 0.63479614l-4.3678284 6.4019165l8.500992 4.0626526l-8.500992 4.0626526l4.3678284 6.4019165l-10.3563385 0.6347656l-0.93569946 7.025818l-9.436691 -2.9631653l-5.988495 5.767151l-5.98851 -5.767151l-9.436691 2.9631653l-0.93569946 -7.025818l-10.356323 -0.6347656l4.3678284 -6.4019165z" fill-rule="nonzero"></path><path stroke="#000000" stroke-width="1.0" stroke-linejoin="round" stroke-linecap="butt" d="m184.59055 428.89502l8.501007 -4.0626526l-4.3678284 -6.4019165l10.356323 -0.63479614l0.93569946 -7.025818l9.436691 2.9631958l5.98851 -5.767151l5.988495 5.767151l9.436691 -2.9631958l0.93569946 7.025818l10.3563385 0.63479614l-4.3678284 6.4019165l8.500992 4.0626526l-8.500992 4.0626526l4.3678284 6.4019165l-10.3563385 0.6347656l-0.93569946 7.025818l-9.436691 -2.9631653l-5.988495 5.767151l-5.98851 -5.767151l-9.436691 2.9631653l-0.93569946 -7.025818l-10.356323 -0.6347656l4.3678284 -6.4019165z" fill-rule="nonzero"></path><path fill="#ffffff" d="m219.86246 433.39313l0 2.421875l-9.140625 0q0.15625 -1.375 0.890625 -2.59375q0.75 -1.234375 2.9375 -3.265625q1.765625 -1.640625 2.15625 -2.234375q0.546875 -0.796875 0.546875 -1.59375q0 -0.875 -0.46875 -1.34375q-0.46875 -0.46875 -1.296875 -0.46875q-0.8125 0 -1.296875 0.5q-0.484375 0.484375 -0.5625 1.625l-2.59375 -0.25q0.234375 -2.15625 1.453125 -3.09375q1.21875 -0.9375 3.0625 -0.9375q2.015625 0 3.15625 1.09375q1.15625 1.078125 1.15625 2.6875q0 0.921875 -0.328125 1.75q-0.328125 0.828125 -1.046875 1.734375q-0.46875 0.609375 -1.703125 1.75q-1.234375 1.125 -1.5625 1.5q-0.328125 0.359375 -0.53125 0.71875l5.171875 0z" fill-rule="nonzero"></path><path fill="#ef5ba1" d="m20.66929 185.62993l8.501001 -4.0626526l-4.367832 -6.4019165l10.356335 -0.6347809l0.93569565 -7.025818l9.436691 2.9631653l5.9885025 -5.7671356l5.9885025 5.7671356l9.436699 -2.9631653l0.93569183 7.025818l10.356331 0.6347809l-4.3678284 6.4019165l8.500999 4.0626526l-8.500999 4.0626373l4.3678284 6.4019165l-10.356331 0.6347809l-0.93569183 7.025818l-9.436699 -2.9631653l-5.9885025 5.7671356l-5.9885025 -5.7671356l-9.436691 2.9631653l-0.93569565 -7.025818l-10.356335 -0.6347809l4.367832 -6.4019165z" fill-rule="nonzero"></path><path stroke="#000000" stroke-width="1.0" stroke-linejoin="round" stroke-linecap="butt" d="m20.66929 185.62993l8.501001 -4.0626526l-4.367832 -6.4019165l10.356335 -0.6347809l0.93569565 -7.025818l9.436691 2.9631653l5.9885025 -5.7671356l5.9885025 5.7671356l9.436699 -2.9631653l0.93569183 7.025818l10.356331 0.6347809l-4.3678284 6.4019165l8.500999 4.0626526l-8.500999 4.0626373l4.3678284 6.4019165l-10.356331 0.6347809l-0.93569183 7.025818l-9.436699 -2.9631653l-5.9885025 5.7671356l-5.9885025 -5.7671356l-9.436691 2.9631653l-0.93569565 -7.025818l-10.356335 -0.6347809l4.367832 -6.4019165z" fill-rule="nonzero"></path><path fill="#ffffff" d="m47.050575 188.94055l2.515625 -0.3125q0.125 0.96875 0.65625 1.484375q0.53125 0.5 1.28125 0.5q0.796875 0 1.34375 -0.609375q0.5625 -0.609375 0.5625 -1.640625q0 -0.984375 -0.53125 -1.5625q-0.53125 -0.578125 -1.28125 -0.578125q-0.5 0 -1.203125 0.203125l0.28125 -2.125q1.0625 0.015625 1.609375 -0.46875q0.5625 -0.484375 0.5625 -1.296875q0 -0.6875 -0.40625 -1.09375q-0.40625 -0.40625 -1.078125 -0.40625q-0.671875 0 -1.140625 0.46875q-0.46875 0.46875 -0.578125 1.359375l-2.40625 -0.421875q0.25 -1.234375 0.75 -1.96875q0.515625 -0.734375 1.421875 -1.15625q0.90625 -0.421875 2.03125 -0.421875q1.90625 0 3.078125 1.21875q0.953125 1.0 0.953125 2.265625q0 1.796875 -1.953125 2.859375q1.15625 0.25 1.859375 1.125q0.703125 0.875 0.703125 2.109375q0 1.78125 -1.3125 3.046875q-1.296875 1.265625 -3.25 1.265625q-1.84375 0 -3.0625 -1.0625q-1.21875 -1.0625 -1.40625 -2.78125z" fill-rule="nonzero"></path><path fill="#ef5ba1" d="m552.17584 159.70079l8.501038 -4.0626526l-4.367859 -6.4019165l10.356323 -0.6347809l0.93573 -7.025818l9.4366455 2.9631653l5.9885254 -5.7671356l5.9885254 5.7671356l9.4366455 -2.9631653l0.93573 7.025818l10.356323 0.6347809l-4.367859 6.4019165l8.501038 4.0626526l-8.501038 4.0626373l4.367859 6.401932l-10.356323 0.6347809l-0.93573 7.0258026l-9.4366455 -2.9631653l-5.9885254 5.767151l-5.9885254 -5.767151l-9.4366455 2.9631653l-0.93573 -7.0258026l-10.356323 -0.6347809l4.367859 -6.401932z" fill-rule="nonzero"></path><path stroke="#000000" stroke-width="1.0" stroke-linejoin="round" stroke-linecap="butt" d="m552.17584 159.70079l8.501038 -4.0626526l-4.367859 -6.4019165l10.356323 -0.6347809l0.93573 -7.025818l9.4366455 2.9631653l5.9885254 -5.7671356l5.9885254 5.7671356l9.4366455 -2.9631653l0.93573 7.025818l10.356323 0.6347809l-4.367859 6.4019165l8.501038 4.0626526l-8.501038 4.0626373l4.367859 6.401932l-10.356323 0.6347809l-0.93573 7.0258026l-9.4366455 -2.9631653l-5.9885254 5.767151l-5.9885254 -5.767151l-9.4366455 2.9631653l-0.93573 -7.0258026l-10.356323 -0.6347809l4.367859 -6.401932z" fill-rule="nonzero"></path><path fill="#ffffff" d="m578.6821 163.12079l2.59375 -0.265625q0.109375 0.875 0.65625 1.390625q0.546875 0.515625 1.265625 0.515625q0.8125 0 1.375 -0.65625q0.578125 -0.671875 0.578125 -2.0q0 -1.25 -0.5625 -1.875q-0.5625 -0.625 -1.46875 -0.625q-1.109375 0 -2.0 0.984375l-2.125 -0.3125l1.34375 -7.078125l6.890625 0l0 2.453125l-4.921875 0l-0.40625 2.296875q0.875 -0.421875 1.78125 -0.421875q1.734375 0 2.9375 1.265625q1.203125 1.25 1.203125 3.265625q0 1.671875 -0.96875 3.0q-1.328125 1.796875 -3.6875 1.796875q-1.875 0 -3.0625 -1.015625q-1.1875 -1.015625 -1.421875 -2.71875z" fill-rule="nonzero"></path><path fill="#ef5ba1" d="m543.01575 345.5958l8.500977 -4.0626526l-4.367798 -6.4019165l10.356323 -0.6347656l0.93566895 -7.025818l9.436707 2.9631653l5.9885254 -5.767151l5.9884644 5.767151l9.436707 -2.9631653l0.93573 7.025818l10.356323 0.6347656l-4.367859 6.4019165l8.501038 4.0626526l-8.501038 4.0626526l4.367859 6.4019165l-10.356323 0.63479614l-0.93573 7.0257874l-9.436707 -2.9631653l-5.9884644 5.767151l-5.9885254 -5.767151l-9.436707 2.9631653l-0.93566895 -7.0257874l-10.356323 -0.63479614l4.367798 -6.4019165z" fill-rule="nonzero"></path><path stroke="#000000" stroke-width="1.0" stroke-linejoin="round" stroke-linecap="butt" d="m543.01575 345.5958l8.500977 -4.0626526l-4.367798 -6.4019165l10.356323 -0.6347656l0.93566895 -7.025818l9.436707 2.9631653l5.9885254 -5.767151l5.9884644 5.767151l9.436707 -2.9631653l0.93573 7.025818l10.356323 0.6347656l-4.367859 6.4019165l8.501038 4.0626526l-8.501038 4.0626526l4.367859 6.4019165l-10.356323 0.63479614l-0.93573 7.0257874l-9.436707 -2.9631653l-5.9884644 5.767151l-5.9885254 -5.767151l-9.436707 2.9631653l-0.93566895 -7.0257874l-10.356323 -0.63479614l4.367798 -6.4019165z" fill-rule="nonzero"></path><path fill="#ffffff" d="m574.60016 352.5158l0 -2.734375l-5.5625 0l0 -2.28125l5.890625 -8.640625l2.1875 0l0 8.625l1.6875 0l0 2.296875l-1.6875 0l0 2.734375l-2.515625 0zm0 -5.03125l0 -4.640625l-3.125 4.640625l3.125 0z" fill-rule="nonzero"></path></g></svg>

