<?xml version="1.0" encoding="UTF-8" standalone="no"?><svg xmlns="http://www.w3.org/2000/svg" xmlns:xlink="http://www.w3.org/1999/xlink" contentScriptType="application/ecmascript" contentStyleType="text/css" height="165px" preserveAspectRatio="none" style="width:526px;height:165px;" version="1.1" viewBox="0 0 526 165" width="526px" zoomAndPan="magnify"><defs/><g><rect fill="#F7F8FE" height="33.9688" style="stroke:#070D4A;stroke-width:1.5;" width="42" x="15.5" y="7"/><text fill="#000000" font-family="sans-serif" font-size="12" lengthAdjust="spacing" textLength="28" x="22.5" y="20.1387">Alice</text><line style="stroke:#070D4A;stroke-width:1.5;" x1="16.5" x2="56.5" y1="24.9688" y2="24.9688"/><rect fill="#F7F8FE" height="33.9688" style="stroke:#070D4A;stroke-width:1.5;" width="37" x="270" y="7"/><text fill="#000000" font-family="sans-serif" font-size="12" lengthAdjust="spacing" textLength="23" x="277" y="20.1387">Bob</text><line style="stroke:#070D4A;stroke-width:1.5;" x1="271" x2="306" y1="24.9688" y2="24.9688"/><rect fill="#F7F8FE" height="37.6094" style="stroke:#070D4A;stroke-width:1.5;" width="59" x="7" y="119"/><text fill="#000000" font-family="sans-serif" font-size="12" lengthAdjust="spacing" textLength="26" x="23.5" y="132.1387">Blue</text><line style="stroke:#070D4A;stroke-width:1.5;" x1="8" x2="65" y1="136.9688" y2="136.9688"/><text fill="#000000" font-family="sans-serif" font-size="10" lengthAdjust="spacing" textLength="47" x="13" y="150.251">clock = 1</text><rect fill="#F7F8FE" height="37.6094" style="stroke:#070D4A;stroke-width:1.5;" width="59" x="259" y="119"/><text fill="#000000" font-family="sans-serif" font-size="12" lengthAdjust="spacing" textLength="36" x="270.5" y="132.1387">Green</text><line style="stroke:#070D4A;stroke-width:1.5;" x1="260" x2="317" y1="136.9688" y2="136.9688"/><text fill="#000000" font-family="sans-serif" font-size="10" lengthAdjust="spacing" textLength="47" x="265" y="150.251">clock = 2</text><path d="M101,118 L101,134 L66.03,138 L101,142 L101,158.2656 A0,0 0 0 0 101,158.2656 L224,158.2656 A0,0 0 0 0 224,158.2656 L224,128 L214,118 L101,118 A0,0 0 0 0 101,118 " fill="#F7F8FE" style="stroke:#070D4A;stroke-width:1.0;"/><path d="M214,118 L214,128 L224,128 L214,118 " fill="#F7F8FE" style="stroke:#070D4A;stroke-width:1.0;"/><text fill="#000000" font-family="sans-serif" font-size="13" lengthAdjust="spacing" textLength="102" x="107" y="135.0669">key: "name@1"</text><text fill="#000000" font-family="sans-serif" font-size="13" lengthAdjust="spacing" textLength="88" x="107" y="150.1997">value: "Alice"</text><path d="M353.5,118 L353.5,134 L318.27,138 L353.5,142 L353.5,158.2656 A0,0 0 0 0 353.5,158.2656 L519.5,158.2656 A0,0 0 0 0 519.5,158.2656 L519.5,128 L509.5,118 L353.5,118 A0,0 0 0 0 353.5,118 " fill="#F7F8FE" style="stroke:#070D4A;stroke-width:1.0;"/><path d="M509.5,118 L509.5,128 L519.5,128 L509.5,118 " fill="#F7F8FE" style="stroke:#070D4A;stroke-width:1.0;"/><text fill="#000000" font-family="sans-serif" font-size="13" lengthAdjust="spacing" textLength="91" x="359.5" y="135.0669">key: "title@2"</text><text fill="#000000" font-family="sans-serif" font-size="13" lengthAdjust="spacing" textLength="145" x="359.5" y="150.1997">value: "Microservices"</text><!--MD5=[19c4946fcd66b7d5f693b703e9eb5850]
link Alice to Blue--><path codeLine="12" d="M36.5,41.05 C36.5,60.09 36.5,91.98 36.5,113.73 " fill="none" id="Alice-to-Blue" style="stroke:#070D4A;stroke-width:1.0;"/><polygon fill="#070D4A" points="36.5,118.75,40.5,109.75,36.5,113.75,32.5,109.75,36.5,118.75" style="stroke:#070D4A;stroke-width:1.0;"/><text fill="#000000" font-family="sans-serif" font-size="13" lengthAdjust="spacing" textLength="144" x="37.5" y="84.0669">write("name", "Alice")</text><!--MD5=[e90d446a17e47f039bb6749b6b36a58d]
link Bob to Green--><path codeLine="13" d="M288.5,41.05 C288.5,60.09 288.5,91.98 288.5,113.73 " fill="none" id="Bob-to-Green" style="stroke:#070D4A;stroke-width:1.0;"/><polygon fill="#070D4A" points="288.5,118.75,292.5,109.75,288.5,113.75,284.5,109.75,288.5,118.75" style="stroke:#070D4A;stroke-width:1.0;"/><text fill="#000000" font-family="sans-serif" font-size="13" lengthAdjust="spacing" textLength="190" x="289.5" y="84.0669">write("title", "Microservices")</text><!--MD5=[08194e4b2a13f57f603b5d4cb6044742]
@startuml
!include ../style.puml
object Alice
object Bob

object Blue {
    clock = 1
}
object Green {
    clock = 2
}

Alice - -> Blue: write("name", "Alice")
Bob - -> Green: write("title", "Microservices")

note right of Blue: key: "name@1"\nvalue: "Alice"
note right of Green: key: "title@2"\nvalue: "Microservices"
@enduml

@startuml
skinparam shadowing false
skinparam sequenceParticipant{
    BackgroundColor #F7F8FE
  BorderColor #070D4A
}
skinparam sequenceLifeLine {
   BackgroundColor #F7F8FE
  BorderColor #070D4A
}
skinparam sequence {
  ArrowColor #070D4A
}

skinparam Note {
    BackgroundColor #F7F8FE
  BorderColor #070D4A
}
skinparam Node {
    BackgroundColor #F7F8FE
  BorderColor #070D4A
}

skinparam object {
    BackgroundColor #F7F8FE
  BorderColor #070D4A
}


hide footbox
object Alice
object Bob

object Blue {
    clock = 1
}
object Green {
    clock = 2
}

Alice - -> Blue: write("name", "Alice")
Bob - -> Green: write("title", "Microservices")

note right of Blue: key: "name@1"\nvalue: "Alice"
note right of Green: key: "title@2"\nvalue: "Microservices"
@enduml

PlantUML version 1.2021.5(Sun Apr 25 16:50:28 IST 2021)
(GPL source distribution)
Java Runtime: Java(TM) SE Runtime Environment
JVM: Java HotSpot(TM) 64-Bit Server VM
Default Encoding: UTF-8
Language: en
Country: IN
--></g></svg>